GeezHandwritingWithArrows.ufo
<glyph name="quotesingle" format="2">
  <advance width="307"/>
  <unicode hex="0027"/>
  <outline>
    <contour>
      <point x="205" y="1280" type="line" smooth="yes"/>
      <point x="205" y="1311"/>
      <point x="188" y="1329"/>
      <point x="154" y="1331" type="curve"/>
      <point x="119" y="1329"/>
      <point x="102" y="1311"/>
      <point x="102" y="1280" type="curve" smooth="yes"/>
      <point x="102" y="1040" type="line" smooth="yes"/>
      <point x="102" y="1010"/>
      <point x="119" y="991"/>
      <point x="154" y="989" type="curve"/>
      <point x="188" y="991"/>
      <point x="205" y="1010"/>
      <point x="205" y="1040" type="curve" smooth="yes"/>
    </contour>
  </outline>
</glyph>
<glyph name="zero" format="2">
  <advance width="1024"/>
  <unicode hex="0030"/>
  <outline>
    <contour>
      <point x="877" y="678" type="curve" smooth="yes"/>
      <point x="877" y="545"/>
      <point x="847.169" y="421.917"/>
      <point x="788" y="309" type="curve" smooth="yes"/>
      <point x="716.165" y="171.911"/>
      <point x="621" y="102"/>
      <point x="500" y="102" type="curve" smooth="yes"/>
      <point x="381" y="102"/>
      <point x="289.55" y="171.795"/>
      <point x="225" y="311" type="curve" smooth="yes"/>
      <point x="174.551" y="419.795"/>
      <point x="150" y="543"/>
      <point x="150" y="676" type="curve" smooth="yes"/>
      <point x="150" y="805"/>
      <point x="175.958" y="921.024"/>
      <point x="229" y="1028" type="curve" smooth="yes"/>
      <point x="294.957" y="1161.02"/>
      <point x="385" y="1229"/>
      <point x="500" y="1229" type="curve" smooth="yes"/>
      <point x="625" y="1229"/>
      <point x="720.754" y="1164.88"/>
      <point x="791" y="1036" type="curve" smooth="yes"/>
      <point x="847.761" y="931.864"/>
      <point x="877" y="811"/>
    </contour>
    <contour>
      <point x="979" y="680" type="curve" smooth="yes"/>
      <point x="979" y="852"/>
      <point x="941.528" y="997.724"/>
      <point x="870" y="1118" type="curve" smooth="yes"/>
      <point x="784.532" y="1261.72"/>
      <point x="662" y="1333"/>
      <point x="500" y="1333" type="curve" smooth="yes"/>
      <point x="350" y="1333"/>
      <point x="233.398" y="1257.79"/>
      <point x="150" y="1108" type="curve" smooth="yes"/>
      <point x="81.3948" y="984.781"/>
      <point x="47" y="842"/>
      <point x="47" y="678" type="curve" smooth="yes"/>
      <point x="47" y="508"/>
      <point x="79.7055" y="360.854"/>
      <point x="145" y="236" type="curve" smooth="yes"/>
      <point x="227.713" y="77.8398"/>
      <point x="346" y="0"/>
      <point x="500" y="0" type="curve" smooth="yes"/>
      <point x="662" y="0"/>
      <point x="785.924" y="76.0368"/>
      <point x="872" y="229" type="curve" smooth="yes"/>
      <point x="942.927" y="355.044"/>
      <point x="979" y="506"/>
    </contour>
  </outline>
</glyph>
<glyph name="four" format="2">
  <advance width="1024"/>
  <unicode hex="0034"/>
  <outline>
    <contour>
      <point x="922" y="684" type="curve"/>
      <point x="920" y="719"/>
      <point x="901" y="735"/>
      <point x="870" y="735" type="curve" smooth="yes"/>
      <point x="797" y="735" type="line"/>
      <point x="797" y="1284" type="line" smooth="yes"/>
      <point x="797" y="1315"/>
      <point x="780" y="1333"/>
      <point x="745" y="1335" type="curve"/>
      <point x="711" y="1333"/>
      <point x="694" y="1315"/>
      <point x="694" y="1284" type="curve" smooth="yes"/>
      <point x="694" y="735" type="line"/>
      <point x="205" y="735" type="line"/>
      <point x="205" y="1284" type="line" smooth="yes"/>
      <point x="205" y="1315"/>
      <point x="188" y="1333"/>
      <point x="154" y="1335" type="curve"/>
      <point x="119" y="1333"/>
      <point x="102" y="1315"/>
      <point x="102" y="1284" type="curve" smooth="yes"/>
      <point x="102" y="682" type="line" smooth="yes"/>
      <point x="102" y="649"/>
      <point x="119" y="633"/>
      <point x="154" y="633" type="curve" smooth="yes"/>
      <point x="694" y="633" type="line"/>
      <point x="694" y="51" type="line" smooth="yes"/>
      <point x="694" y="20"/>
      <point x="711" y="2"/>
      <point x="745" y="0" type="curve"/>
      <point x="780" y="2"/>
      <point x="797" y="20"/>
      <point x="797" y="51" type="curve" smooth="yes"/>
      <point x="797" y="633" type="line"/>
      <point x="870" y="633" type="line" smooth="yes"/>
      <point x="901" y="633"/>
      <point x="920" y="649"/>
    </contour>
  </outline>
</glyph>
<glyph name="colon" format="2">
  <advance width="307"/>
  <unicode hex="003A"/>
  <outline>
    <contour>
      <point x="170" y="59" type="curve" smooth="yes"/>
      <point x="170" y="98"/>
      <point x="150" y="119"/>
      <point x="111" y="119" type="curve" smooth="yes"/>
      <point x="72" y="119"/>
      <point x="51" y="98"/>
      <point x="51" y="59" type="curve" smooth="yes"/>
      <point x="51" y="20"/>
      <point x="72" y="0"/>
      <point x="111" y="0" type="curve" smooth="yes"/>
      <point x="150" y="0"/>
      <point x="170" y="20"/>
    </contour>
    <contour>
      <point x="170" y="618" type="curve" smooth="yes"/>
      <point x="170" y="657"/>
      <point x="150" y="678"/>
      <point x="111" y="678" type="curve" smooth="yes"/>
      <point x="72" y="678"/>
      <point x="51" y="657"/>
      <point x="51" y="618" type="curve" smooth="yes"/>
      <point x="51" y="580"/>
      <point x="72" y="559"/>
      <point x="111" y="559" type="curve" smooth="yes"/>
      <point x="150" y="559"/>
      <point x="170" y="580"/>
    </contour>
  </outline>
</glyph>
<glyph name="G" format="2">
  <advance width="1536"/>
  <unicode hex="0047"/>
  <outline>
    <contour>
      <point x="801" y="688" type="line" smooth="yes"/>
      <point x="766" y="688"/>
      <point x="750" y="672"/>
      <point x="750" y="637" type="curve" smooth="yes"/>
      <point x="750" y="602"/>
      <point x="765.998" y="586"/>
      <point x="801" y="586" type="curve" smooth="yes"/>
      <point x="1356" y="586" type="line"/>
      <point x="1331" y="446"/>
      <point x="1265.79" y="331.249"/>
      <point x="1159" y="240" type="curve" smooth="yes"/>
      <point x="1052.79" y="149.244"/>
      <point x="928.004" y="104"/>
      <point x="784" y="104" type="curve" smooth="yes"/>
      <point x="622.996" y="104"/>
      <point x="485.225" y="156.245"/>
      <point x="373" y="256" type="curve" smooth="yes"/>
      <point x="260.219" y="356.25"/>
      <point x="205" y="487"/>
      <point x="205" y="649" type="curve" smooth="yes"/>
      <point x="205" y="811"/>
      <point x="260.252" y="947.751"/>
      <point x="373" y="1061" type="curve" smooth="yes"/>
      <point x="485.252" y="1173.75"/>
      <point x="623" y="1229"/>
      <point x="784" y="1229" type="curve" smooth="yes"/>
      <point x="970.992" y="1229"/>
      <point x="1121.32" y="1154.26"/>
      <point x="1239" y="1006" type="curve" smooth="yes"/>
      <point x="1248.33" y="994.251"/>
      <point x="1262" y="991"/>
      <point x="1276" y="991" type="curve" smooth="yes"/>
      <point x="1311" y="991"/>
      <point x="1327" y="1008"/>
      <point x="1327" y="1042" type="curve" smooth="yes"/>
      <point x="1327" y="1057"/>
      <point x="1321" y="1067"/>
      <point x="1311" y="1077" type="curve"/>
      <point x="1184" y="1247"/>
      <point x="1008.01" y="1331"/>
      <point x="784" y="1331" type="curve" smooth="yes"/>
      <point x="593.993" y="1331"/>
      <point x="431.751" y="1266.25"/>
      <point x="299" y="1133" type="curve" smooth="yes"/>
      <point x="167.745" y="1001.25"/>
      <point x="102" y="839.996"/>
      <point x="102" y="649" type="curve" smooth="yes"/>
      <point x="102" y="458.996"/>
      <point x="169.694" y="303.676"/>
      <point x="303" y="180" type="curve" smooth="yes"/>
      <point x="432.699" y="59.6708"/>
      <point x="593.996" y="0"/>
      <point x="784" y="0" type="curve" smooth="yes"/>
      <point x="974.996" y="0"/>
      <point x="1135" y="68"/>
      <point x="1268" y="201" type="curve" smooth="yes"/>
      <point x="1401" y="334"/>
      <point x="1466" y="498"/>
      <point x="1466" y="688" type="curve"/>
    </contour>
  </outline>
</glyph>
<glyph name="I" format="2">
  <advance width="614"/>
  <unicode hex="0049"/>
  <outline>
    <contour>
      <point x="479" y="51" type="curve"/>
      <point x="477" y="86"/>
      <point x="459" y="102"/>
      <point x="428" y="102" type="curve" smooth="yes"/>
      <point x="342" y="102" type="line"/>
      <point x="342" y="1229" type="line"/>
      <point x="418" y="1229" type="line" smooth="yes"/>
      <point x="449" y="1229"/>
      <point x="467" y="1245"/>
      <point x="469" y="1280" type="curve"/>
      <point x="467" y="1315"/>
      <point x="449" y="1331"/>
      <point x="418" y="1331" type="curve" smooth="yes"/>
      <point x="143" y="1331" type="line" smooth="yes"/>
      <point x="113" y="1331"/>
      <point x="94" y="1315"/>
      <point x="92" y="1280" type="curve"/>
      <point x="94" y="1245"/>
      <point x="113" y="1229"/>
      <point x="143" y="1229" type="curve" smooth="yes"/>
      <point x="240" y="1229" type="line"/>
      <point x="240" y="102" type="line"/>
      <point x="154" y="102" type="line" smooth="yes"/>
      <point x="123" y="102"/>
      <point x="104" y="86"/>
      <point x="102" y="51" type="curve"/>
      <point x="104" y="16"/>
      <point x="123" y="0"/>
      <point x="154" y="0" type="curve" smooth="yes"/>
      <point x="428" y="0" type="line" smooth="yes"/>
      <point x="459" y="0"/>
      <point x="477" y="16"/>
    </contour>
  </outline>
</glyph>
<glyph name="L" format="2">
  <advance width="1126"/>
  <unicode hex="004C"/>
  <outline>
    <contour>
      <point x="995" y="51" type="curve"/>
      <point x="993" y="86"/>
      <point x="975" y="102"/>
      <point x="944" y="102" type="curve" smooth="yes"/>
      <point x="205" y="102" type="line"/>
      <point x="205" y="1280" type="line" smooth="yes"/>
      <point x="205" y="1311"/>
      <point x="188" y="1329"/>
      <point x="154" y="1331" type="curve"/>
      <point x="119" y="1329"/>
      <point x="102" y="1311"/>
      <point x="102" y="1280" type="curve" smooth="yes"/>
      <point x="102" y="51" type="line" smooth="yes"/>
      <point x="102" y="16"/>
      <point x="118.998" y="0"/>
      <point x="154" y="0" type="curve" smooth="yes"/>
      <point x="944" y="0" type="line" smooth="yes"/>
      <point x="975.002" y="0"/>
      <point x="993" y="16"/>
    </contour>
  </outline>
</glyph>
<glyph name="O" format="2">
  <advance width="1536"/>
  <unicode hex="004F"/>
  <outline>
    <contour>
      <point x="1348" y="684" type="curve" smooth="yes"/>
      <point x="1348" y="522"/>
      <point x="1293" y="383"/>
      <point x="1180" y="270" type="curve" smooth="yes"/>
      <point x="1067" y="157"/>
      <point x="930" y="102"/>
      <point x="768" y="102" type="curve" smooth="yes"/>
      <point x="606" y="102"/>
      <point x="468.781" y="153.75"/>
      <point x="356" y="254" type="curve" smooth="yes"/>
      <point x="243.775" y="353.755"/>
      <point x="188" y="485"/>
      <point x="188" y="647" type="curve" smooth="yes"/>
      <point x="188" y="809"/>
      <point x="243" y="946"/>
      <point x="356" y="1059" type="curve" smooth="yes"/>
      <point x="469" y="1172"/>
      <point x="606" y="1229"/>
      <point x="768" y="1229" type="curve" smooth="yes"/>
      <point x="930" y="1229"/>
      <point x="1066.97" y="1177.97"/>
      <point x="1180" y="1077" type="curve" smooth="yes"/>
      <point x="1291.98" y="976.964"/>
      <point x="1348" y="846"/>
    </contour>
    <contour>
      <point x="1450" y="682" type="curve" smooth="yes"/>
      <point x="1450" y="872"/>
      <point x="1383.8" y="1027.77"/>
      <point x="1251" y="1149" type="curve" smooth="yes"/>
      <point x="1119.79" y="1268.78"/>
      <point x="958" y="1331"/>
      <point x="768" y="1331" type="curve" smooth="yes"/>
      <point x="578" y="1331"/>
      <point x="415.751" y="1266.25"/>
      <point x="283" y="1133" type="curve" smooth="yes"/>
      <point x="151.745" y="1001.25"/>
      <point x="86" y="839.996"/>
      <point x="86" y="649" type="curve" smooth="yes"/>
      <point x="86" y="458.996"/>
      <point x="153.934" y="303.924"/>
      <point x="287" y="180" type="curve" smooth="yes"/>
      <point x="415.933" y="59.925"/>
      <point x="578" y="0"/>
      <point x="768" y="0" type="curve" smooth="yes"/>
      <point x="958" y="0"/>
      <point x="1120" y="66.0015"/>
      <point x="1251" y="197" type="curve" smooth="yes"/>
      <point x="1384" y="330.001"/>
      <point x="1450" y="492"/>
    </contour>
  </outline>
</glyph>
<glyph name="R" format="2">
  <advance width="1229"/>
  <unicode hex="0052"/>
  <outline>
    <contour>
      <point x="987" y="985" type="curve" smooth="yes"/>
      <point x="987" y="926"/>
      <point x="962.836" y="879.238"/>
      <point x="913" y="844" type="curve" smooth="yes"/>
      <point x="863.83" y="809.234"/>
      <point x="809.003" y="791"/>
      <point x="748" y="791" type="curve" smooth="yes"/>
      <point x="205" y="791" type="line"/>
      <point x="205" y="1229" type="line"/>
      <point x="758" y="1229" type="line" smooth="yes"/>
      <point x="897.002" y="1229"/>
      <point x="987" y="1126"/>
    </contour>
    <contour>
      <point x="1163" y="51" type="curve" smooth="yes"/>
      <point x="1163" y="66"/>
      <point x="1154.88" y="79.8378"/>
      <point x="1141" y="90" type="curve" smooth="yes"/>
      <point x="324" y="688" type="line"/>
      <point x="748" y="688" type="line" smooth="yes"/>
      <point x="838" y="688"/>
      <point x="917.047" y="714.944"/>
      <point x="985" y="770" type="curve" smooth="yes"/>
      <point x="1054.05" y="825.943"/>
      <point x="1090" y="897"/>
      <point x="1090" y="985" type="curve" smooth="yes"/>
      <point x="1090" y="1085"/>
      <point x="1058.98" y="1166.98"/>
      <point x="997" y="1233" type="curve" smooth="yes"/>
      <point x="935.982" y="1297.99"/>
      <point x="856" y="1331"/>
      <point x="758" y="1331" type="curve" smooth="yes"/>
      <point x="154" y="1331" type="line" smooth="yes"/>
      <point x="119" y="1331"/>
      <point x="102" y="1315"/>
      <point x="102" y="1280" type="curve" smooth="yes"/>
      <point x="102" y="51" type="line" smooth="yes"/>
      <point x="102" y="20"/>
      <point x="119" y="2"/>
      <point x="154" y="0" type="curve"/>
      <point x="188" y="2"/>
      <point x="205" y="20"/>
      <point x="205" y="51" type="curve" smooth="yes"/>
      <point x="205" y="647" type="line"/>
      <point x="1081" y="8" type="line"/>
      <point x="1092" y="2"/>
      <point x="1102" y="-2"/>
      <point x="1112" y="-2" type="curve" smooth="yes"/>
      <point x="1147" y="-2"/>
      <point x="1163" y="16"/>
    </contour>
  </outline>
</glyph>
<glyph name="S" format="2">
  <advance width="1126"/>
  <unicode hex="0053"/>
  <outline>
    <contour>
      <point x="1024" y="362" type="curve" smooth="yes"/>
      <point x="1024" y="496"/>
      <point x="963" y="596"/>
      <point x="842" y="664" type="curve"/>
      <point x="502" y="795" type="line" smooth="yes"/>
      <point x="379.129" y="842.341"/>
      <point x="319" y="920"/>
      <point x="319" y="1012" type="curve" smooth="yes"/>
      <point x="319" y="1079"/>
      <point x="349.866" y="1135.19"/>
      <point x="410" y="1176" type="curve" smooth="yes"/>
      <point x="461.869" y="1211.2"/>
      <point x="526" y="1229"/>
      <point x="598" y="1229" type="curve" smooth="yes"/>
      <point x="682" y="1229"/>
      <point x="774.116" y="1200.19"/>
      <point x="872" y="1141" type="curve" smooth="yes"/>
      <point x="903.114" y="1122.19"/>
      <point x="924.724" y="1129.16"/>
      <point x="942" y="1159" type="curve" smooth="yes"/>
      <point x="957.725" y="1186.16"/>
      <point x="952.968" y="1210.95"/>
      <point x="924" y="1229" type="curve" smooth="yes"/>
      <point x="814.972" y="1296.94"/>
      <point x="707" y="1331"/>
      <point x="600" y="1331" type="curve" smooth="yes"/>
      <point x="475" y="1331"/>
      <point x="376.85" y="1294.14"/>
      <point x="305" y="1219" type="curve" smooth="yes"/>
      <point x="245.853" y="1157.14"/>
      <point x="217" y="1087"/>
      <point x="217" y="1010" type="curve" smooth="yes"/>
      <point x="217" y="885"/>
      <point x="279" y="793"/>
      <point x="399" y="729" type="curve"/>
      <point x="739" y="600" type="line" smooth="yes"/>
      <point x="863.865" y="552.625"/>
      <point x="922" y="467.004"/>
      <point x="922" y="362" type="curve" smooth="yes"/>
      <point x="922" y="275.996"/>
      <point x="876.861" y="206.245"/>
      <point x="786" y="154" type="curve" smooth="yes"/>
      <point x="716.861" y="114.245"/>
      <point x="653" y="94"/>
      <point x="594" y="94" type="curve" smooth="yes"/>
      <point x="485" y="94"/>
      <point x="345.914" y="151.866"/>
      <point x="176" y="266" type="curve" smooth="yes"/>
      <point x="147.911" y="284.868"/>
      <point x="121.771" y="281.15"/>
      <point x="104" y="254" type="curve" smooth="yes"/>
      <point x="85.7703" y="226.149"/>
      <point x="89.909" y="200.869"/>
      <point x="117" y="182" type="curve" smooth="yes"/>
      <point x="290.914" y="60.8662"/>
      <point x="449" y="0"/>
      <point x="594" y="0" type="curve" smooth="yes"/>
      <point x="729" y="0"/>
      <point x="838.354" y="40.651"/>
      <point x="920" y="125" type="curve" smooth="yes"/>
      <point x="989.36" y="196.657"/>
      <point x="1024" y="274"/>
    </contour>
  </outline>
</glyph>
<glyph name="T" format="2">
  <advance width="1229"/>
  <unicode hex="0054"/>
  <outline>
    <contour>
      <point x="1204" y="1280" type="curve"/>
      <point x="1202" y="1315"/>
      <point x="1184" y="1331"/>
      <point x="1153" y="1331" type="curve" smooth="yes"/>
      <point x="154" y="1331" type="line" smooth="yes"/>
      <point x="123" y="1331"/>
      <point x="104" y="1315"/>
      <point x="102" y="1280" type="curve"/>
      <point x="104" y="1245"/>
      <point x="123" y="1229"/>
      <point x="154" y="1229" type="curve" smooth="yes"/>
      <point x="602" y="1229" type="line"/>
      <point x="602" y="51" type="line" smooth="yes"/>
      <point x="602" y="20"/>
      <point x="618" y="2"/>
      <point x="653" y="0" type="curve"/>
      <point x="688" y="2"/>
      <point x="705" y="20"/>
      <point x="705" y="51" type="curve" smooth="yes"/>
      <point x="705" y="1229" type="line"/>
      <point x="1153" y="1229" type="line" smooth="yes"/>
      <point x="1184" y="1229"/>
      <point x="1202" y="1245"/>
    </contour>
  </outline>
</glyph>
<glyph name="bracketleft" format="2">
  <advance width="717"/>
  <unicode hex="005B"/>
  <outline>
    <contour>
      <point x="520" y="1280" type="curve"/>
      <point x="518" y="1315"/>
      <point x="500" y="1331"/>
      <point x="469" y="1331" type="curve" smooth="yes"/>
      <point x="219" y="1331" type="line" smooth="yes"/>
      <point x="184" y="1331"/>
      <point x="168" y="1311"/>
      <point x="168" y="1280" type="curve" smooth="yes"/>
      <point x="168" y="51" type="line" smooth="yes"/>
      <point x="168" y="16"/>
      <point x="184" y="0"/>
      <point x="219" y="0" type="curve" smooth="yes"/>
      <point x="467" y="0" type="line" smooth="yes"/>
      <point x="498" y="0"/>
      <point x="516" y="16"/>
      <point x="518" y="51" type="curve"/>
      <point x="516" y="86"/>
      <point x="498.001" y="102"/>
      <point x="467" y="102" type="curve" smooth="yes"/>
      <point x="272" y="102" type="line"/>
      <point x="272" y="1229" type="line"/>
      <point x="469" y="1229" type="line" smooth="yes"/>
      <point x="500.001" y="1229"/>
      <point x="518" y="1245"/>
    </contour>
  </outline>
</glyph>
<glyph name="e" format="2">
  <advance width="819"/>
  <unicode hex="0065"/>
  <outline>
    <contour>
      <point x="227" y="444" type="line"/>
      <point x="266" y="537"/>
      <point x="328" y="582"/>
      <point x="410" y="582" type="curve" smooth="yes"/>
      <point x="492" y="582"/>
      <point x="553" y="537"/>
      <point x="592" y="444" type="curve"/>
    </contour>
    <contour>
      <point x="717" y="342" type="line"/>
      <point x="717" y="434"/>
      <point x="688.236" y="512.196"/>
      <point x="633" y="578" type="curve" smooth="yes"/>
      <point x="573.235" y="649.199"/>
      <point x="500" y="684"/>
      <point x="410" y="684" type="curve" smooth="yes"/>
      <point x="322" y="684"/>
      <point x="247.451" y="649.613"/>
      <point x="188" y="580" type="curve" smooth="yes"/>
      <point x="130.451" y="512.614"/>
      <point x="102" y="432"/>
      <point x="102" y="342" type="curve" smooth="yes"/>
      <point x="102" y="252"/>
      <point x="130.86" y="173.884"/>
      <point x="188" y="106" type="curve" smooth="yes"/>
      <point x="247.862" y="34.8812"/>
      <point x="322" y="0"/>
      <point x="410" y="0" type="curve" smooth="yes"/>
      <point x="510" y="0"/>
      <point x="594" y="47"/>
      <point x="662" y="143" type="curve"/>
      <point x="676" y="174"/>
      <point x="668" y="197"/>
      <point x="637" y="211" type="curve" smooth="yes"/>
      <point x="606" y="225"/>
      <point x="584" y="217"/>
      <point x="569" y="186" type="curve"/>
      <point x="530" y="131"/>
      <point x="477" y="102"/>
      <point x="410" y="102" type="curve" smooth="yes"/>
      <point x="352" y="102"/>
      <point x="303" y="127"/>
      <point x="264" y="178" type="curve" smooth="yes"/>
      <point x="225" y="229"/>
      <point x="205" y="283"/>
      <point x="205" y="342" type="curve"/>
    </contour>
  </outline>
</glyph>
<glyph name="l" format="2">
  <advance width="307"/>
  <unicode hex="006C"/>
  <outline>
    <contour>
      <point x="205" y="1280" type="line" smooth="yes"/>
      <point x="205" y="1311"/>
      <point x="188" y="1329"/>
      <point x="154" y="1331" type="curve"/>
      <point x="119" y="1329"/>
      <point x="102" y="1311"/>
      <point x="102" y="1280" type="curve" smooth="yes"/>
      <point x="102" y="51" type="line" smooth="yes"/>
      <point x="102" y="20"/>
      <point x="119" y="2"/>
      <point x="154" y="0" type="curve"/>
      <point x="188" y="2"/>
      <point x="205" y="20"/>
      <point x="205" y="51" type="curve" smooth="yes"/>
    </contour>
  </outline>
</glyph>
<glyph name="x" format="2">
  <advance width="819"/>
  <unicode hex="0078"/>
  <outline>
    <contour>
      <point x="694" y="598" type="line" smooth="yes"/>
      <point x="717.057" y="624.952"/>
      <point x="715.038" y="647.043"/>
      <point x="688" y="670" type="curve" smooth="yes"/>
      <point x="662.037" y="692.044"/>
      <point x="638.501" y="690.433"/>
      <point x="616" y="664" type="curve" smooth="yes"/>
      <point x="410" y="422" type="line"/>
      <point x="209" y="666" type="line" smooth="yes"/>
      <point x="186.855" y="692.883"/>
      <point x="164.038" y="694.957"/>
      <point x="137" y="672" type="curve" smooth="yes"/>
      <point x="111.037" y="649.956"/>
      <point x="108.951" y="626.961"/>
      <point x="131" y="600" type="curve" smooth="yes"/>
      <point x="342" y="342" type="line"/>
      <point x="123" y="84" type="line" smooth="yes"/>
      <point x="100.047" y="56.959"/>
      <point x="101.753" y="34.706"/>
      <point x="129" y="12" type="curve" smooth="yes"/>
      <point x="155.756" y="-10.2962"/>
      <point x="178.418" y="-8.36375"/>
      <point x="201" y="18" type="curve" smooth="yes"/>
      <point x="410" y="262" type="line"/>
      <point x="608" y="18" type="line" smooth="yes"/>
      <point x="629.946" y="-9.0445"/>
      <point x="653.244" y="-10.2963"/>
      <point x="680" y="12" type="curve" smooth="yes"/>
      <point x="707.247" y="34.706"/>
      <point x="708.153" y="59.1227"/>
      <point x="686" y="86" type="curve" smooth="yes"/>
      <point x="475" y="342" type="line"/>
    </contour>
  </outline>
</glyph>
<glyph name="braceright" format="2">
  <advance width="717"/>
  <unicode hex="007D"/>
  <outline>
    <contour>
      <point x="496" y="700" type="curve"/>
      <point x="440" y="721"/>
      <point x="406" y="764"/>
      <point x="393" y="827" type="curve"/>
      <point x="389" y="889" type="line"/>
      <point x="389" y="1184" type="line" smooth="yes"/>
      <point x="389" y="1210"/>
      <point x="388.676" y="1228.94"/>
      <point x="387" y="1239" type="curve" smooth="yes"/>
      <point x="375.676" y="1306.95"/>
      <point x="326" y="1339"/>
      <point x="236" y="1339" type="curve" smooth="yes"/>
      <point x="213" y="1339"/>
      <point x="190" y="1337"/>
      <point x="168" y="1333" type="curve"/>
      <point x="233" y="1325"/>
      <point x="274.254" y="1292.04"/>
      <point x="283" y="1233" type="curve" smooth="yes"/>
      <point x="286.254" y="1211.04"/>
      <point x="285" y="1192"/>
      <point x="283" y="1178" type="curve"/>
      <point x="283" y="889" type="line"/>
      <point x="289" y="823" type="line" smooth="yes"/>
      <point x="294.819" y="758.984"/>
      <point x="332" y="721"/>
      <point x="385" y="702" type="curve"/>
      <point x="332" y="684"/>
      <point x="301.95" y="643.007"/>
      <point x="291" y="582" type="curve" smooth="yes"/>
      <point x="287.951" y="565.009"/>
      <point x="285" y="543"/>
      <point x="285" y="516" type="curve" smooth="yes"/>
      <point x="285" y="164" type="line" smooth="yes"/>
      <point x="285" y="139"/>
      <point x="283" y="121"/>
      <point x="283" y="109" type="curve"/>
      <point x="272" y="53"/>
      <point x="236" y="20"/>
      <point x="170" y="12" type="curve"/>
      <point x="195" y="6"/>
      <point x="219" y="4"/>
      <point x="242" y="4" type="curve" smooth="yes"/>
      <point x="330" y="4"/>
      <point x="380.134" y="36.98"/>
      <point x="389" y="102" type="curve" smooth="yes"/>
      <point x="392.134" y="124.982"/>
      <point x="391.072" y="143"/>
      <point x="391" y="156" type="curve" smooth="yes"/>
      <point x="389" y="516" type="line"/>
      <point x="395" y="575" type="line" smooth="yes"/>
      <point x="401.514" y="639.05"/>
      <point x="440" y="682"/>
    </contour>
  </outline>
</glyph>
<glyph name="registered" format="2">
  <advance width="1024"/>
  <unicode hex="00AE"/>
  <outline>
    <contour>
      <point x="643" y="756" type="curve" smooth="yes"/>
      <point x="613.292" y="800.2"/>
      <point x="569" y="823"/>
      <point x="510" y="823" type="curve" smooth="yes"/>
      <point x="467" y="823"/>
      <point x="434" y="813"/>
      <point x="416" y="793" type="curve"/>
      <point x="416" y="799" type="line"/>
      <point x="414" y="817"/>
      <point x="403" y="825"/>
      <point x="385" y="823" type="curve" smooth="yes"/>
      <point x="367" y="821"/>
      <point x="356" y="813"/>
      <point x="356" y="795" type="curve" smooth="yes"/>
      <point x="356" y="467" type="line" smooth="yes"/>
      <point x="356" y="449"/>
      <point x="367" y="440"/>
      <point x="385" y="438" type="curve"/>
      <point x="406" y="440"/>
      <point x="416" y="449"/>
      <point x="416" y="467" type="curve" smooth="yes"/>
      <point x="416" y="698" type="line"/>
      <point x="428" y="743"/>
      <point x="459" y="766"/>
      <point x="510" y="766" type="curve" smooth="yes"/>
      <point x="549" y="766"/>
      <point x="577.24" y="751.15"/>
      <point x="596" y="721" type="curve" smooth="yes"/>
      <point x="605.241" y="706.149"/>
      <point x="621" y="705"/>
      <point x="637" y="715" type="curve" smooth="yes"/>
      <point x="653" y="725"/>
      <point x="654.295" y="739.195"/>
    </contour>
    <contour>
      <point x="848" y="651" type="curve" smooth="yes"/>
      <point x="848" y="546.996"/>
      <point x="811.747" y="458.252"/>
      <point x="737" y="383" type="curve" smooth="yes"/>
      <point x="663.747" y="309.252"/>
      <point x="575" y="272"/>
      <point x="471" y="272" type="curve" smooth="yes"/>
      <point x="367" y="272"/>
      <point x="276.003" y="309.004"/>
      <point x="203" y="383" type="curve" smooth="yes"/>
      <point x="129.003" y="458.004"/>
      <point x="92" y="546.996"/>
      <point x="92" y="651" type="curve" smooth="yes"/>
      <point x="92" y="756.004"/>
      <point x="129.002" y="846.002"/>
      <point x="203" y="920" type="curve" smooth="yes"/>
      <point x="276" y="993"/>
      <point x="367" y="1030"/>
      <point x="471" y="1030" type="curve" smooth="yes"/>
      <point x="575" y="1030"/>
      <point x="664" y="993"/>
      <point x="737" y="920" type="curve" smooth="yes"/>
      <point x="810.998" y="846.002"/>
      <point x="848" y="756.004"/>
    </contour>
    <contour>
      <point x="899" y="651" type="curve" smooth="yes"/>
      <point x="899" y="770"/>
      <point x="856" y="870"/>
      <point x="772" y="954" type="curve" smooth="yes"/>
      <point x="688" y="1038"/>
      <point x="588" y="1081"/>
      <point x="471" y="1081" type="curve" smooth="yes"/>
      <point x="352" y="1081"/>
      <point x="250" y="1038"/>
      <point x="166" y="954" type="curve" smooth="yes"/>
      <point x="82" y="870"/>
      <point x="41" y="770"/>
      <point x="41" y="651" type="curve" smooth="yes"/>
      <point x="41" y="532"/>
      <point x="82" y="430"/>
      <point x="166" y="346" type="curve" smooth="yes"/>
      <point x="250" y="262"/>
      <point x="352" y="221"/>
      <point x="471" y="221" type="curve" smooth="yes"/>
      <point x="588" y="221"/>
      <point x="688" y="262"/>
      <point x="772" y="346" type="curve" smooth="yes"/>
      <point x="856" y="430"/>
      <point x="899" y="532"/>
    </contour>
  </outline>
</glyph>
<glyph name="plusminus" format="2">
  <advance width="1024"/>
  <unicode hex="00B1"/>
  <outline>
    <contour>
      <point x="913" y="256" type="curve"/>
      <point x="911" y="291"/>
      <point x="893" y="307"/>
      <point x="862" y="307" type="curve" smooth="yes"/>
      <point x="180" y="307" type="line" smooth="yes"/>
      <point x="150" y="307"/>
      <point x="131" y="291"/>
      <point x="129" y="256" type="curve"/>
      <point x="131" y="221"/>
      <point x="150" y="205"/>
      <point x="180" y="205" type="curve" smooth="yes"/>
      <point x="862" y="205" type="line" smooth="yes"/>
      <point x="893" y="205"/>
      <point x="911" y="221"/>
    </contour>
    <contour>
      <point x="877" y="920" type="curve"/>
      <point x="874" y="954"/>
      <point x="856" y="971"/>
      <point x="825" y="971" type="curve" smooth="yes"/>
      <point x="545" y="971" type="line"/>
      <point x="545" y="1251" type="line" smooth="yes"/>
      <point x="545" y="1282"/>
      <point x="528" y="1300"/>
      <point x="494" y="1303" type="curve"/>
      <point x="459" y="1300"/>
      <point x="442" y="1282"/>
      <point x="442" y="1251" type="curve" smooth="yes"/>
      <point x="442" y="971" type="line"/>
      <point x="162" y="971" type="line" smooth="yes"/>
      <point x="131" y="971"/>
      <point x="113" y="954"/>
      <point x="111" y="920" type="curve"/>
      <point x="113" y="885"/>
      <point x="131" y="868"/>
      <point x="162" y="868" type="curve" smooth="yes"/>
      <point x="442" y="868" type="line"/>
      <point x="442" y="588" type="line" smooth="yes"/>
      <point x="442" y="557"/>
      <point x="459" y="539"/>
      <point x="494" y="537" type="curve"/>
      <point x="528" y="539"/>
      <point x="545" y="557"/>
      <point x="545" y="588" type="curve" smooth="yes"/>
      <point x="545" y="868" type="line"/>
      <point x="825" y="868" type="line" smooth="yes"/>
      <point x="856" y="868"/>
      <point x="874" y="885"/>
    </contour>
  </outline>
</glyph>
<glyph name="questiondown" format="2">
  <advance width="1024"/>
  <unicode hex="00BF"/>
  <outline>
    <contour>
      <point x="739" y="227" type="curve" smooth="yes"/>
      <point x="739.908" y="250.004"/>
      <point x="713" y="274"/>
      <point x="690" y="274" type="curve" smooth="yes"/>
      <point x="655" y="274"/>
      <point x="638" y="256"/>
      <point x="637" y="221" type="curve" smooth="yes"/>
      <point x="636" y="186"/>
      <point x="624.01" y="157.988"/>
      <point x="600" y="135" type="curve" smooth="yes"/>
      <point x="577.011" y="112.989"/>
      <point x="547" y="102"/>
      <point x="512" y="102" type="curve" smooth="yes"/>
      <point x="444" y="102"/>
      <point x="385" y="160"/>
      <point x="385" y="227" type="curve" smooth="yes"/>
      <point x="385" y="283"/>
      <point x="408" y="356"/>
      <point x="455" y="444" type="curve" smooth="yes"/>
      <point x="502" y="532"/>
      <point x="524" y="609.998"/>
      <point x="524" y="676" type="curve" smooth="yes"/>
      <point x="524" y="983" type="line" smooth="yes"/>
      <point x="524" y="1014"/>
      <point x="508" y="1032"/>
      <point x="473" y="1034" type="curve"/>
      <point x="438" y="1032"/>
      <point x="422" y="1014"/>
      <point x="422" y="983" type="curve" smooth="yes"/>
      <point x="422" y="688" type="line" smooth="yes"/>
      <point x="422" y="632.999"/>
      <point x="398.593" y="555.195"/>
      <point x="352" y="457" type="curve" smooth="yes"/>
      <point x="305.589" y="359.188"/>
      <point x="285" y="283.002"/>
      <point x="285" y="227" type="curve" smooth="yes"/>
      <point x="285" y="93.9945"/>
      <point x="381" y="0"/>
      <point x="512" y="0" type="curve" smooth="yes"/>
      <point x="637" y="0"/>
      <point x="733.908" y="98"/>
    </contour>
    <contour>
      <point x="530" y="1272" type="curve" smooth="yes"/>
      <point x="530" y="1311"/>
      <point x="510" y="1331"/>
      <point x="471" y="1331" type="curve" smooth="yes"/>
      <point x="432" y="1331"/>
      <point x="412" y="1311"/>
      <point x="412" y="1272" type="curve" smooth="yes" name=".hr01"/>
      <point x="412" y="1233"/>
      <point x="432" y="1212"/>
      <point x="471" y="1212" type="curve" smooth="yes"/>
      <point x="510" y="1212"/>
      <point x="530" y="1233"/>
    </contour>
  </outline>
</glyph>
<glyph name="Ntilde" format="2">
  <advance width="1229"/>
  <unicode hex="00D1"/>
  <outline>
    <contour>
      <point x="1047" y="1034" type="line" smooth="yes"/>
      <point x="1047" y="1065"/>
      <point x="1030" y="1083"/>
      <point x="995" y="1085" type="curve"/>
      <point x="961" y="1083"/>
      <point x="944" y="1065"/>
      <point x="944" y="1034" type="curve" smooth="yes"/>
      <point x="944" y="199" type="line"/>
      <point x="274" y="1067" type="line"/>
      <point x="258" y="1081"/>
      <point x="244" y="1087"/>
      <point x="233" y="1085" type="curve"/>
      <point x="199" y="1083"/>
      <point x="182" y="1065"/>
      <point x="182" y="1034" type="curve" smooth="yes"/>
      <point x="182" y="51" type="line" smooth="yes"/>
      <point x="182" y="20"/>
      <point x="199" y="2"/>
      <point x="233" y="0" type="curve"/>
      <point x="268" y="2"/>
      <point x="285" y="20"/>
      <point x="285" y="51" type="curve" smooth="yes"/>
      <point x="285" y="887" type="line"/>
      <point x="950" y="27" type="line"/>
      <point x="961" y="8"/>
      <point x="975" y="0"/>
      <point x="995" y="0" type="curve" smooth="yes"/>
      <point x="1030" y="0"/>
      <point x="1047" y="16"/>
      <point x="1047" y="51" type="curve" smooth="yes"/>
    </contour>
    <contour>
      <point x="926" y="1311" type="curve" smooth="yes"/>
      <point x="903" y="1334"/>
      <point x="879" y="1333"/>
      <point x="854" y="1311" type="curve"/>
      <point x="813" y="1282"/>
      <point x="772" y="1268"/>
      <point x="729" y="1268" type="curve" smooth="yes"/>
      <point x="715" y="1268"/>
      <point x="685.848" y="1274.64"/>
      <point x="645" y="1292" type="curve" smooth="yes"/>
      <point x="605.845" y="1308.64"/>
      <point x="571" y="1319"/>
      <point x="541" y="1319" type="curve" smooth="yes"/>
      <point x="481" y="1319"/>
      <point x="416" y="1294"/>
      <point x="346" y="1247" type="curve"/>
      <point x="324" y="1221"/>
      <point x="324" y="1196"/>
      <point x="346" y="1174" type="curve" smooth="yes"/>
      <point x="369" y="1151"/>
      <point x="393" y="1151"/>
      <point x="418" y="1174" type="curve"/>
      <point x="457" y="1202"/>
      <point x="498" y="1217"/>
      <point x="541" y="1217" type="curve" smooth="yes"/>
      <point x="571" y="1217"/>
      <point x="606" y="1208"/>
      <point x="645" y="1192" type="curve" smooth="yes"/>
      <point x="684" y="1176"/>
      <point x="713" y="1167" name=".hr01"/>
      <point x="729" y="1167" type="curve" smooth="yes"/>
      <point x="791" y="1167"/>
      <point x="856" y="1192"/>
      <point x="924" y="1239" type="curve"/>
      <point x="948" y="1264"/>
      <point x="949" y="1288"/>
    </contour>
  </outline>
</glyph>
<glyph name="Ucircumflex" format="2">
  <advance width="1229"/>
  <unicode hex="00DB"/>
  <outline>
    <contour>
      <point x="1065" y="1044" type="line" smooth="yes"/>
      <point x="1065" y="1075"/>
      <point x="1049" y="1094"/>
      <point x="1014" y="1096" type="curve"/>
      <point x="979" y="1094"/>
      <point x="963" y="1075"/>
      <point x="963" y="1044" type="curve" smooth="yes"/>
      <point x="963" y="479" type="line" smooth="yes"/>
      <point x="963" y="374.999"/>
      <point x="925.998" y="284.998"/>
      <point x="852" y="211" type="curve" smooth="yes"/>
      <point x="780.002" y="139.002"/>
      <point x="690.004" y="102"/>
      <point x="584" y="102" type="curve" smooth="yes"/>
      <point x="476.996" y="102"/>
      <point x="385.748" y="137.75"/>
      <point x="313" y="211" type="curve" smooth="yes"/>
      <point x="240.748" y="283.75"/>
      <point x="205" y="374.997"/>
      <point x="205" y="481" type="curve" smooth="yes"/>
      <point x="205" y="1047" type="line" smooth="yes"/>
      <point x="205" y="1077"/>
      <point x="188" y="1096"/>
      <point x="154" y="1098" type="curve"/>
      <point x="119" y="1096"/>
      <point x="102" y="1077"/>
      <point x="102" y="1047" type="curve" smooth="yes"/>
      <point x="102" y="481" type="line" smooth="yes"/>
      <point x="102" y="345.996"/>
      <point x="150" y="231"/>
      <point x="242" y="139" type="curve" smooth="yes"/>
      <point x="334" y="47"/>
      <point x="449" y="0"/>
      <point x="584" y="0" type="curve" smooth="yes"/>
      <point x="717" y="0"/>
      <point x="831.506" y="47.501"/>
      <point x="924" y="139" type="curve" smooth="yes"/>
      <point x="1017.51" y="231.501"/>
      <point x="1065" y="345.998"/>
      <point x="1065" y="479" type="curve" smooth="yes"/>
    </contour>
    <contour>
      <point x="782" y="1169" type="curve" smooth="yes"/>
      <point x="782" y="1182"/>
      <point x="775.897" y="1193.9"/>
      <point x="766" y="1204" type="curve" smooth="yes"/>
      <point x="621" y="1352" type="line"/>
      <point x="604" y="1362"/>
      <point x="592" y="1366"/>
      <point x="586" y="1368" type="curve"/>
      <point x="549" y="1352" type="line"/>
      <point x="401" y="1204" type="line" smooth="yes"/>
      <point x="391" y="1194"/>
      <point x="385" y="1182"/>
      <point x="385" y="1169" type="curve" smooth="yes"/>
      <point x="385" y="1145"/>
      <point x="414" y="1116"/>
      <point x="438" y="1116" type="curve" smooth="yes"/>
      <point x="451" y="1116"/>
      <point x="462.535" y="1122.44"/>
      <point x="473" y="1133" type="curve" smooth="yes"/>
      <point x="584" y="1245" type="line"/>
      <point x="694" y="1133" type="line" smooth="yes"/>
      <point x="704.417" y="1122.39"/>
      <point x="717" y="1116"/>
      <point x="729" y="1116" type="curve" smooth="yes"/>
      <point x="754" y="1116"/>
      <point x="782" y="1145"/>
    </contour>
  </outline>
</glyph>
<glyph name="aacute" format="2">
  <advance width="819"/>
  <unicode hex="00E1"/>
  <outline>
    <contour>
      <point x="614" y="342" type="curve" smooth="yes"/>
      <point x="614" y="283"/>
      <point x="594" y="229"/>
      <point x="555" y="178" type="curve" smooth="yes"/>
      <point x="516" y="127"/>
      <point x="467" y="102"/>
      <point x="410" y="102" type="curve" smooth="yes"/>
      <point x="352" y="102"/>
      <point x="303" y="127"/>
      <point x="264" y="178" type="curve" smooth="yes"/>
      <point x="225" y="229"/>
      <point x="205" y="283"/>
      <point x="205" y="342" type="curve" smooth="yes"/>
      <point x="205" y="401"/>
      <point x="225" y="455"/>
      <point x="264" y="506" type="curve" smooth="yes"/>
      <point x="303" y="557"/>
      <point x="352" y="582"/>
      <point x="410" y="582" type="curve" smooth="yes"/>
      <point x="469" y="582"/>
      <point x="518.249" y="555.2"/>
      <point x="559" y="504" type="curve" smooth="yes"/>
      <point x="596.251" y="457.197"/>
      <point x="614" y="401"/>
    </contour>
    <contour>
      <point x="719" y="633" type="line" smooth="yes"/>
      <point x="719" y="664"/>
      <point x="702" y="682"/>
      <point x="668" y="684" type="curve"/>
      <point x="633" y="682"/>
      <point x="616" y="664"/>
      <point x="616" y="633" type="curve" smooth="yes"/>
      <point x="616" y="592" type="line"/>
      <point x="557" y="653"/>
      <point x="489" y="684"/>
      <point x="410" y="684" type="curve" smooth="yes"/>
      <point x="322" y="684"/>
      <point x="247.451" y="649.613"/>
      <point x="188" y="580" type="curve" smooth="yes"/>
      <point x="130.451" y="512.614"/>
      <point x="102" y="432"/>
      <point x="102" y="342" type="curve" smooth="yes"/>
      <point x="102" y="252"/>
      <point x="130.86" y="173.884"/>
      <point x="188" y="106" type="curve" smooth="yes"/>
      <point x="247.862" y="34.8812"/>
      <point x="322" y="0"/>
      <point x="410" y="0" type="curve" smooth="yes"/>
      <point x="489" y="0"/>
      <point x="557" y="31"/>
      <point x="616" y="92" type="curve"/>
      <point x="616" y="51" type="line" smooth="yes"/>
      <point x="616" y="20"/>
      <point x="633" y="2"/>
      <point x="668" y="0" type="curve"/>
      <point x="702" y="2"/>
      <point x="719" y="20"/>
      <point x="719" y="51" type="curve" smooth="yes"/>
    </contour>
    <contour>
      <point x="629" y="1004" type="curve" smooth="yes"/>
      <point x="629" y="1030"/>
      <point x="602" y="1057"/>
      <point x="575" y="1057" type="curve" smooth="yes"/>
      <point x="563" y="1057"/>
      <point x="551.535" y="1050.49"/>
      <point x="541" y="1040" type="curve" smooth="yes"/>
      <point x="307" y="807" type="line" smooth="yes"/>
      <point x="296.979" y="797.021"/>
      <point x="291" y="784"/>
      <point x="291" y="772" type="curve" smooth="yes"/>
      <point x="291" y="748"/>
      <point x="319" y="719"/>
      <point x="344" y="719" type="curve" smooth="yes"/>
      <point x="356" y="719"/>
      <point x="369.021" y="724.978"/>
      <point x="379" y="735" type="curve" smooth="yes"/>
      <point x="612" y="969" type="line" smooth="yes"/>
      <point x="622.489" y="979.535"/>
      <point x="629" y="991"/>
    </contour>
  </outline>
</glyph>
<glyph name="ucircumflex" format="2">
  <advance width="819"/>
  <unicode hex="00FB"/>
  <outline>
    <contour>
      <point x="659" y="633" type="line" smooth="yes"/>
      <point x="659" y="664"/>
      <point x="643" y="682"/>
      <point x="608" y="684" type="curve"/>
      <point x="573" y="682"/>
      <point x="557" y="664"/>
      <point x="557" y="633" type="curve" smooth="yes"/>
      <point x="557" y="223" type="line"/>
      <point x="535" y="143"/>
      <point x="479" y="102"/>
      <point x="387" y="102" type="curve" smooth="yes"/>
      <point x="291" y="102"/>
      <point x="233" y="143"/>
      <point x="219" y="223" type="curve"/>
      <point x="219" y="631" type="line" smooth="yes"/>
      <point x="219" y="662"/>
      <point x="203" y="680"/>
      <point x="168" y="682" type="curve"/>
      <point x="133" y="680"/>
      <point x="117" y="662.002"/>
      <point x="117" y="631" type="curve" smooth="yes"/>
      <point x="117" y="252" type="line" smooth="yes"/>
      <point x="117" y="89.9897"/>
      <point x="223" y="0"/>
      <point x="387" y="0" type="curve" smooth="yes"/>
      <point x="463" y="0"/>
      <point x="520" y="18"/>
      <point x="557" y="53" type="curve"/>
      <point x="557" y="51" type="line" smooth="yes"/>
      <point x="557" y="16"/>
      <point x="573" y="0"/>
      <point x="608" y="0" type="curve" smooth="yes"/>
      <point x="643" y="0"/>
      <point x="659" y="16"/>
      <point x="659" y="51" type="curve" smooth="yes"/>
    </contour>
    <contour>
      <point x="674" y="825" type="curve" smooth="yes"/>
      <point x="674" y="838"/>
      <point x="667.489" y="849.465"/>
      <point x="657" y="860" type="curve" smooth="yes"/>
      <point x="424" y="1094" type="line" smooth="yes"/>
      <point x="414.021" y="1104.02"/>
      <point x="401" y="1110"/>
      <point x="389" y="1110" type="curve" smooth="yes"/>
      <point x="387" y="1110" type="line" smooth="yes"/>
      <point x="375" y="1110"/>
      <point x="361.979" y="1104.02"/>
      <point x="352" y="1094" type="curve" smooth="yes"/>
      <point x="119" y="860" type="line" smooth="yes"/>
      <point x="109.021" y="849.979"/>
      <point x="102" y="838"/>
      <point x="102" y="825" type="curve" smooth="yes"/>
      <point x="102" y="801"/>
      <point x="131" y="772"/>
      <point x="156" y="772" type="curve" smooth="yes"/>
      <point x="168" y="772"/>
      <point x="180" y="778"/>
      <point x="190" y="788" type="curve" smooth="yes"/>
      <point x="389" y="987" type="line"/>
      <point x="586" y="788" type="line" smooth="yes"/>
      <point x="595.95" y="777.949"/>
      <point x="608" y="772"/>
      <point x="621" y="772" type="curve" smooth="yes"/>
      <point x="645" y="772"/>
      <point x="674" y="801"/>
    </contour>
  </outline>
</glyph>
<glyph name="Ydieresis" format="2">
  <advance width="1331"/>
  <unicode hex="0178"/>
  <outline>
    <contour>
      <point x="1071" y="942" type="line"/>
      <point x="1077" y="952"/>
      <point x="1081" y="963"/>
      <point x="1081" y="973" type="curve" smooth="yes"/>
      <point x="1081" y="1008"/>
      <point x="1063" y="1024"/>
      <point x="1028" y="1024" type="curve" smooth="yes"/>
      <point x="1014" y="1024"/>
      <point x="999.035" y="1016.97"/>
      <point x="989" y="1004" type="curve" smooth="yes"/>
      <point x="651" y="567" type="line"/>
      <point x="315" y="1004" type="line" smooth="yes"/>
      <point x="305.003" y="1017"/>
      <point x="291" y="1026"/>
      <point x="274" y="1026" type="curve" smooth="yes"/>
      <point x="240" y="1026"/>
      <point x="221" y="1008"/>
      <point x="221" y="973" type="curve" smooth="yes"/>
      <point x="221" y="963"/>
      <point x="225.185" y="952.146"/>
      <point x="233" y="942" type="curve" smooth="yes"/>
      <point x="602" y="463" type="line"/>
      <point x="602" y="51" type="line" smooth="yes"/>
      <point x="602" y="16"/>
      <point x="618" y="0"/>
      <point x="653" y="0" type="curve" smooth="yes"/>
      <point x="688" y="0"/>
      <point x="705" y="16"/>
      <point x="705" y="51" type="curve" smooth="yes"/>
      <point x="705" y="467" type="line"/>
    </contour>
    <contour>
      <point x="551" y="1174" type="curve" smooth="yes"/>
      <point x="551" y="1214"/>
      <point x="530" y="1235"/>
      <point x="487" y="1235" type="curve" smooth="yes"/>
      <point x="446" y="1235"/>
      <point x="426" y="1214"/>
      <point x="426" y="1174" type="curve" smooth="yes"/>
      <point x="426" y="1130"/>
      <point x="446" y="1110"/>
      <point x="487" y="1110" type="curve" smooth="yes"/>
      <point x="530" y="1110"/>
      <point x="551" y="1130"/>
    </contour>
    <contour>
      <point x="868" y="1174" type="curve" smooth="yes"/>
      <point x="868" y="1214"/>
      <point x="848" y="1235"/>
      <point x="805" y="1235" type="curve" smooth="yes"/>
      <point x="764" y="1235"/>
      <point x="743" y="1214"/>
      <point x="743" y="1174" type="curve" smooth="yes"/>
      <point x="743" y="1130"/>
      <point x="764" y="1110"/>
      <point x="805" y="1110" type="curve" smooth="yes"/>
      <point x="848" y="1110"/>
      <point x="868" y="1130"/>
    </contour>
  </outline>
</glyph>
<glyph name="uni1200" format="2">
  <advance width="900"/>
  <unicode hex="1200"/>
  <outline>
    <contour>
      <point x="426" y="1017" type="line"/>
      <point x="405" y="1017" type="line"/>
      <point x="405" y="1118" type="line"/>
      <point x="398" y="1112"/>
      <point x="384" y="1105"/>
      <point x="376" y="1103" type="curve"/>
      <point x="376" y="1122" type="line"/>
      <point x="385" y="1126"/>
      <point x="401" y="1139"/>
      <point x="405" y="1143" type="curve"/>
      <point x="426" y="1143" type="line"/>
    </contour>
    <contour>
      <point x="669" y="1070" type="line"/>
      <point x="653.787" y="1061.19" type="line"/>
      <point x="708.445" y="904.213"/>
      <point x="634.923" y="609.086"/>
      <point x="577.029" y="471.939" type="curve" smooth="yes"/>
      <point x="477.608" y="236.416"/>
      <point x="352.346" y="132"/>
      <point x="310.962" y="132" type="curve" smooth="yes"/>
      <point x="217.074" y="132"/>
      <point x="163.566" y="195.042"/>
      <point x="182.765" y="297.305" type="curve"/>
      <point x="182.765" y="297.305"/>
      <point x="275.211" y="789.528"/>
      <point x="327.237" y="1066.84" type="curve"/>
      <point x="356.722" y="1061.31" type="line"/>
      <point x="304.696" y="783.994"/>
      <point x="212.249" y="291.768"/>
      <point x="212.249" y="291.768" type="curve"/>
      <point x="196.275" y="206.679"/>
      <point x="237.059" y="162"/>
      <point x="310.962" y="162" type="curve" smooth="yes"/>
      <point x="330.303" y="162"/>
      <point x="448.879" y="245.5"/>
      <point x="549.391" y="483.606" type="curve" smooth="yes"/>
      <point x="607.313" y="620.82"/>
      <point x="674.123" y="900.812"/>
      <point x="627.343" y="1045.87" type="curve"/>
      <point x="612" y="1037" type="line"/>
      <point x="612" y="1103" type="line"/>
    </contour>
    <contour>
      <point x="753.645" y="1155.84" type="curve" smooth="yes"/>
      <point x="855.912" y="969.487"/>
      <point x="767.509" y="588.892"/>
      <point x="696.795" y="421.38" type="curve" smooth="yes"/>
      <point x="602.453" y="197.897"/>
      <point x="448.012" y="2"/>
      <point x="310.962" y="2" type="curve" smooth="yes"/>
      <point x="142.6" y="2"/>
      <point x="25.0045" y="159.695"/>
      <point x="54.553" y="318.406" type="curve"/>
      <point x="199.444" y="1090.69" type="line"/>
      <point x="207.948" y="1136.58"/>
      <point x="276.765" y="1123.77"/>
      <point x="268.262" y="1077.88" type="curve"/>
      <point x="123.371" y="305.594" type="line"/>
      <point x="101.709" y="189.244"/>
      <point x="186.377" y="72"/>
      <point x="310.962" y="72" type="curve" smooth="yes"/>
      <point x="396.496" y="72"/>
      <point x="535.258" y="218.711"/>
      <point x="632.306" y="448.604" type="curve" smooth="yes"/>
      <point x="703.167" y="616.465"/>
      <point x="755.065" y="867.546"/>
      <point x="718.762" y="1052.25" type="curve" smooth="yes"/>
      <point x="714.616" y="1073.34"/>
      <point x="707.198" y="1094.97"/>
      <point x="692.279" y="1122.16" type="curve" smooth="yes"/>
      <point x="669.828" y="1163.07"/>
      <point x="731.186" y="1196.76"/>
    </contour>
  </outline>
</glyph>
<glyph name="uni1201" format="2">
  <advance width="1291"/>
  <unicode hex="1201"/>
  <outline>
    <contour>
      <point x="976" y="1001" type="curve" smooth="yes"/>
      <point x="976" y="972"/>
      <point x="949" y="952"/>
      <point x="909" y="926" type="curve"/>
      <point x="973" y="926" type="line"/>
      <point x="973" y="906" type="line"/>
      <point x="888" y="906" type="line"/>
      <point x="888" y="924" type="line"/>
      <point x="939" y="965"/>
      <point x="954" y="984"/>
      <point x="954" y="1001" type="curve" smooth="yes"/>
      <point x="954" y="1009"/>
      <point x="950" y="1021"/>
      <point x="935" y="1021" type="curve" smooth="yes"/>
      <point x="919" y="1021"/>
      <point x="913" y="1008"/>
      <point x="912" y="997" type="curve"/>
      <point x="890" y="997" type="line"/>
      <point x="892" y="1023"/>
      <point x="907" y="1036"/>
      <point x="935" y="1036" type="curve" smooth="yes"/>
      <point x="961" y="1036"/>
      <point x="976" y="1022"/>
    </contour>
    <contour>
      <point x="1177" y="866.754" type="line"/>
      <point x="1120" y="833.754" type="line"/>
      <point x="1120" y="851.992" type="line"/>
      <point x="871" y="852" type="line"/>
      <point x="871" y="882" type="line"/>
      <point x="1120" y="881.991" type="line"/>
      <point x="1120" y="899.754" type="line"/>
    </contour>
    <contour>
      <point x="426" y="1017" type="line"/>
      <point x="405" y="1017" type="line"/>
      <point x="405" y="1118" type="line"/>
      <point x="398" y="1112"/>
      <point x="384" y="1105"/>
      <point x="376" y="1103" type="curve"/>
      <point x="376" y="1122" type="line"/>
      <point x="385" y="1126"/>
      <point x="401" y="1139"/>
      <point x="405" y="1143" type="curve"/>
      <point x="426" y="1143" type="line"/>
    </contour>
    <contour>
      <point x="1191" y="737" type="line" smooth="yes"/>
      <point x="1191" y="718"/>
      <point x="1175" y="702"/>
      <point x="1156" y="702" type="curve" smooth="yes"/>
      <point x="777.437" y="702.005" type="line"/>
      <point x="756.833" y="591.579"/>
      <point x="725.364" y="489.058"/>
      <point x="696.795" y="421.38" type="curve" smooth="yes"/>
      <point x="602.461" y="197.914"/>
      <point x="448.011" y="2"/>
      <point x="310.962" y="2" type="curve" smooth="yes"/>
      <point x="142.6" y="2"/>
      <point x="25.0075" y="159.71"/>
      <point x="54.553" y="318.406" type="curve"/>
      <point x="199.444" y="1090.69" type="line"/>
      <point x="207.948" y="1136.58"/>
      <point x="276.765" y="1123.77"/>
      <point x="268.262" y="1077.88" type="curve"/>
      <point x="123.37" y="305.594" type="line"/>
      <point x="101.715" y="189.275"/>
      <point x="186.364" y="72"/>
      <point x="310.962" y="72" type="curve" smooth="yes"/>
      <point x="396.505" y="72"/>
      <point x="535.258" y="218.712"/>
      <point x="632.306" y="448.604" type="curve" smooth="yes"/>
      <point x="703.167" y="616.464"/>
      <point x="755.064" y="867.544"/>
      <point x="718.761" y="1052.25" type="curve" smooth="yes"/>
      <point x="714.616" y="1073.34"/>
      <point x="707.197" y="1094.97"/>
      <point x="692.279" y="1122.16" type="curve" smooth="yes"/>
      <point x="669.827" y="1163.08"/>
      <point x="731.184" y="1196.77"/>
      <point x="753.645" y="1155.84" type="curve" smooth="yes"/>
      <point x="805.927" y="1060.57"/>
      <point x="808.375" y="914.425"/>
      <point x="788.808" y="771.998" type="curve"/>
      <point x="1156" y="772" type="line" smooth="yes"/>
      <point x="1175" y="772"/>
      <point x="1191" y="757"/>
      <point x="1191" y="738" type="curve" smooth="yes"/>
    </contour>
    <contour>
      <point x="669" y="1070" type="line"/>
      <point x="653.787" y="1061.19" type="line"/>
      <point x="708.445" y="904.213"/>
      <point x="634.92" y="609.08"/>
      <point x="577.029" y="471.939" type="curve" smooth="yes"/>
      <point x="477.612" y="236.424"/>
      <point x="352.346" y="132"/>
      <point x="310.962" y="132" type="curve" smooth="yes"/>
      <point x="217.074" y="132"/>
      <point x="163.566" y="195.042"/>
      <point x="182.765" y="297.305" type="curve"/>
      <point x="182.765" y="297.305"/>
      <point x="275.211" y="789.528"/>
      <point x="327.237" y="1066.84" type="curve"/>
      <point x="356.722" y="1061.31" type="line"/>
      <point x="304.696" y="783.994"/>
      <point x="212.249" y="291.768"/>
      <point x="212.249" y="291.768" type="curve"/>
      <point x="196.273" y="206.671"/>
      <point x="237.058" y="162"/>
      <point x="310.962" y="162" type="curve" smooth="yes"/>
      <point x="330.304" y="162"/>
      <point x="448.88" y="245.501"/>
      <point x="549.391" y="483.606" type="curve" smooth="yes"/>
      <point x="607.313" y="620.82"/>
      <point x="674.123" y="900.812"/>
      <point x="627.343" y="1045.87" type="curve"/>
      <point x="612" y="1037" type="line"/>
      <point x="612" y="1103" type="line"/>
    </contour>
  </outline>
</glyph>
<glyph name="uni1203" format="2">
  <advance width="799"/>
  <unicode hex="1203"/>
  <outline>
    <contour>
      <point x="894" y="1381" type="curve" smooth="yes"/>
      <point x="894" y="1352"/>
      <point x="867" y="1332"/>
      <point x="827" y="1306" type="curve"/>
      <point x="891" y="1306" type="line"/>
      <point x="891" y="1286" type="line"/>
      <point x="806" y="1286" type="line"/>
      <point x="806" y="1304" type="line"/>
      <point x="857" y="1345"/>
      <point x="872" y="1364"/>
      <point x="872" y="1381" type="curve" smooth="yes"/>
      <point x="872" y="1389"/>
      <point x="868" y="1401"/>
      <point x="853" y="1401" type="curve" smooth="yes"/>
      <point x="837" y="1401"/>
      <point x="831" y="1388"/>
      <point x="830" y="1377" type="curve"/>
      <point x="808" y="1377" type="line"/>
      <point x="810" y="1403"/>
      <point x="825" y="1416"/>
      <point x="853" y="1416" type="curve" smooth="yes"/>
      <point x="879" y="1416"/>
      <point x="894" y="1402"/>
    </contour>
    <contour>
      <point x="283" y="1289" type="line"/>
      <point x="262" y="1289" type="line"/>
      <point x="262" y="1390" type="line"/>
      <point x="255" y="1384"/>
      <point x="241" y="1377"/>
      <point x="233" y="1375" type="curve"/>
      <point x="233" y="1394" type="line"/>
      <point x="242" y="1398"/>
      <point x="258" y="1411"/>
      <point x="262" y="1415" type="curve"/>
      <point x="283" y="1415" type="line"/>
    </contour>
    <contour>
      <point x="581.644" y="1369.61" type="line"/>
      <point x="566.378" y="1373.72" type="line"/>
      <point x="552.977" y="1319.06"/>
      <point x="506.688" y="1130.34"/>
      <point x="484.22" y="1040.01" type="curve" smooth="yes"/>
      <point x="483.987" y="1039.07" type="line"/>
      <point x="443.113" y="934.334"/>
      <point x="392.283" y="898"/>
      <point x="279.922" y="898" type="curve" smooth="yes"/>
      <point x="215.186" y="898"/>
      <point x="178.466" y="954.771"/>
      <point x="180.042" y="1074.21" type="curve" smooth="yes"/>
      <point x="183.379" y="1326.94" type="line"/>
      <point x="213.376" y="1326.55" type="line"/>
      <point x="210.04" y="1073.81" type="line" smooth="yes"/>
      <point x="208.482" y="955.806"/>
      <point x="243.922" y="928"/>
      <point x="279.922" y="928" type="curve" smooth="yes"/>
      <point x="377.442" y="928"/>
      <point x="418.72" y="954.833"/>
      <point x="455.344" y="1048.18" type="curve"/>
      <point x="477.792" y="1138.44"/>
      <point x="524.271" y="1327.91"/>
      <point x="537.411" y="1381.52" type="curve"/>
      <point x="518.046" y="1386.73" type="line"/>
      <point x="564.563" y="1433.36" type="line"/>
    </contour>
    <contour>
      <point x="785.095" y="1338.53" type="line"/>
      <point x="473.293" y="67.4465" type="line"/>
      <point x="491.116" y="61.976" type="line"/>
      <point x="443" y="17" type="line"/>
      <point x="428.153" y="81.308" type="line"/>
      <point x="444.572" y="76.261" type="line"/>
      <point x="755.98" y="1345.76" type="line"/>
    </contour>
    <contour>
      <point x="697.74" y="1360.19" type="curve" smooth="yes"/>
      <point x="364.74" y="22.1875" type="line" smooth="yes"/>
      <point x="353.469" y="-23.099"/>
      <point x="284.652" y="-10.286"/>
      <point x="295.922" y="35" type="curve" smooth="yes"/>
      <point x="496.12" y="839.418" type="line"/>
      <point x="439.781" y="794.168"/>
      <point x="367.578" y="768"/>
      <point x="279.922" y="768" type="curve" smooth="yes"/>
      <point x="111.562" y="768"/>
      <point x="47.9205" y="914.247"/>
      <point x="50.0515" y="1075.67" type="curve" smooth="yes"/>
      <point x="53.388" y="1328.4" type="line" smooth="yes"/>
      <point x="54.0038" y="1375.06"/>
      <point x="124" y="1374.39"/>
      <point x="123.384" y="1327.74" type="curve" smooth="yes"/>
      <point x="120.048" y="1075" type="line" smooth="yes"/>
      <point x="118.487" y="956.738"/>
      <point x="155.337" y="838"/>
      <point x="279.923" y="838" type="curve" smooth="yes"/>
      <point x="416.972" y="838"/>
      <point x="491.184" y="889.36"/>
      <point x="541.307" y="1020.99" type="curve"/>
      <point x="628.923" y="1373" type="line" smooth="yes"/>
      <point x="640.194" y="1418.29"/>
      <point x="709.011" y="1405.47"/>
    </contour>
  </outline>
</glyph>
<glyph name="uni1205" format="2">
  <advance width="1028"/>
  <unicode hex="1205"/>
  <outline>
    <contour>
      <point x="301" y="873" type="line"/>
      <point x="280" y="873" type="line"/>
      <point x="280" y="974" type="line"/>
      <point x="273" y="968"/>
      <point x="259" y="961"/>
      <point x="251" y="959" type="curve"/>
      <point x="251" y="978" type="line"/>
      <point x="260" y="982"/>
      <point x="276" y="995"/>
      <point x="280" y="999" type="curve"/>
      <point x="301" y="999" type="line"/>
    </contour>
    <contour>
      <point x="801.567" y="1048.05" type="line"/>
      <point x="786.596" y="1042.58" type="line"/>
      <point x="831.071" y="882.156"/>
      <point x="760.565" y="602.372"/>
      <point x="704.663" y="469.938" type="curve" smooth="yes"/>
      <point x="605.303" y="234.553"/>
      <point x="479.992" y="130"/>
      <point x="438.595" y="130" type="curve" smooth="yes"/>
      <point x="355.078" y="130"/>
      <point x="293.746" y="209.677"/>
      <point x="309.885" y="292.056" type="curve" smooth="yes"/>
      <point x="330.834" y="398.987"/>
      <point x="375.599" y="623.088"/>
      <point x="375.599" y="623.088" type="curve"/>
      <point x="389.294" y="692.074"/>
      <point x="344.824" y="741.456"/>
      <point x="273.013" y="741.461" type="curve" smooth="yes"/>
      <point x="194.942" y="741.467" type="line"/>
      <point x="222.613" y="926.401" type="line"/>
      <point x="252.283" y="921.961" type="line"/>
      <point x="229.769" y="771.457" type="line"/>
      <point x="273.015" y="771.461" type="line" smooth="yes"/>
      <point x="361.531" y="771.47"/>
      <point x="422.826" y="706.917"/>
      <point x="405.022" y="617.229" type="curve"/>
      <point x="405.022" y="617.229"/>
      <point x="360.26" y="393.152"/>
      <point x="339.325" y="286.289" type="curve" smooth="yes"/>
      <point x="326.568" y="221.175"/>
      <point x="375.31" y="160"/>
      <point x="438.595" y="160" type="curve" smooth="yes"/>
      <point x="457.942" y="160"/>
      <point x="576.518" y="243.502"/>
      <point x="677.024" y="481.605" type="curve" smooth="yes"/>
      <point x="733.45" y="615.28"/>
      <point x="798.291" y="884.315"/>
      <point x="758.399" y="1032.27" type="curve"/>
      <point x="739.703" y="1025.45" type="line"/>
      <point x="751.164" y="1090.45" type="line"/>
    </contour>
    <contour>
      <point x="881.278" y="1153.84" type="curve" smooth="yes"/>
      <point x="983.534" y="967.499"/>
      <point x="895.168" y="586.957"/>
      <point x="824.428" y="419.38" type="curve" smooth="yes"/>
      <point x="730.07" y="195.851"/>
      <point x="575.643" y="0"/>
      <point x="438.595" y="0" type="curve" smooth="yes"/>
      <point x="270.235" y="0"/>
      <point x="150.956" y="157.996"/>
      <point x="182.187" y="316.406" type="curve" smooth="yes"/>
      <point x="240.358" y="611.469" type="line"/>
      <point x="85.0365" y="611.463" type="line"/>
      <point x="65.7068" y="611.463"/>
      <point x="50.0313" y="627.132"/>
      <point x="50.0313" y="646.461" type="curve" smooth="yes"/>
      <point x="50.0313" y="648.859"/>
      <point x="49.8603" y="651.217"/>
      <point x="50.3195" y="653.479" type="curve"/>
      <point x="94.0447" y="945.642" type="line" smooth="yes"/>
      <point x="100.944" y="991.742"/>
      <point x="170.181" y="981.443"/>
      <point x="163.274" y="935.281" type="curve" smooth="yes"/>
      <point x="125.293" y="681.461" type="line"/>
      <point x="273.011" y="681.461" type="line" smooth="yes"/>
      <point x="301.636" y="681.461"/>
      <point x="322.178" y="666.83"/>
      <point x="315.953" y="635.062" type="curve" smooth="yes"/>
      <point x="251.004" y="303.594" type="line" smooth="yes"/>
      <point x="228.264" y="187.543"/>
      <point x="313.995" y="70"/>
      <point x="438.595" y="70" type="curve" smooth="yes"/>
      <point x="524.139" y="70"/>
      <point x="662.878" y="216.671"/>
      <point x="759.939" y="446.604" type="curve" smooth="yes"/>
      <point x="830.825" y="614.528"/>
      <point x="882.7" y="865.506"/>
      <point x="846.395" y="1050.25" type="curve" smooth="yes"/>
      <point x="842.249" y="1071.35"/>
      <point x="834.826" y="1092.98"/>
      <point x="819.912" y="1120.16" type="curve" smooth="yes"/>
      <point x="797.457" y="1161.09"/>
      <point x="858.809" y="1194.78"/>
    </contour>
  </outline>
</glyph>
<glyph name="uni1207" format="2">
  <advance width="1502"/>
  <unicode hex="1207"/>
  <outline>
    <contour>
      <point x="1401.6" y="1118" type="curve" smooth="yes"/>
      <point x="1401.6" y="1023"/>
      <point x="1324.56" y="945.971"/>
      <point x="1229.56" y="945.971" type="curve" smooth="yes"/>
      <point x="1186.56" y="945.971"/>
      <point x="1144.88" y="968.075"/>
      <point x="1114.88" y="993.075" type="curve"/>
      <point x="1131.93" y="798.517"/>
      <point x="1067.97" y="548.58"/>
      <point x="1014.32" y="421.479" type="curve" smooth="yes"/>
      <point x="919.987" y="198.011"/>
      <point x="765.525" y="2.04805"/>
      <point x="628.477" y="2.04805" type="curve" smooth="yes"/>
      <point x="460.117" y="2.04805"/>
      <point x="342.281" y="159.813"/>
      <point x="372.067" y="318.464" type="curve" smooth="yes"/>
      <point x="437.308" y="665.961" type="line"/>
      <point x="78.9983" y="574.669" type="line" smooth="yes"/>
      <point x="59.6198" y="569.732"/>
      <point x="47.2321" y="596.508"/>
      <point x="50.5311" y="615.219" type="curve" smooth="yes"/>
      <point x="53.8301" y="633.93"/>
      <point x="72.7581" y="638.664"/>
      <point x="91.0816" y="643.687" type="curve" smooth="yes"/>
      <point x="451.677" y="742.539" type="line"/>
      <point x="517.066" y="1090.76" type="line" smooth="yes"/>
      <point x="525.677" y="1136.63"/>
      <point x="594.491" y="1123.73"/>
      <point x="585.878" y="1077.86" type="curve" smooth="yes"/>
      <point x="440.88" y="305.562" type="line" smooth="yes"/>
      <point x="419.066" y="189.374"/>
      <point x="503.877" y="72.0895"/>
      <point x="628.477" y="72.0895" type="curve" smooth="yes"/>
      <point x="714.021" y="72.0895"/>
      <point x="852.794" y="218.695"/>
      <point x="949.808" y="448.512" type="curve" smooth="yes"/>
      <point x="1007.1" y="584.221"/>
      <point x="1047.09" y="783.515"/>
      <point x="1047.29" y="949.043" type="curve" smooth="yes"/>
      <point x="1047.5" y="1118" type="line" smooth="yes"/>
      <point x="1047.61" y="1213"/>
      <point x="1134.56" y="1290.04"/>
      <point x="1229.56" y="1290.04" type="curve" smooth="yes"/>
      <point x="1324.56" y="1290.04"/>
      <point x="1401.6" y="1213"/>
    </contour>
    <contour>
      <point x="1331.56" y="1118" type="curve" smooth="yes"/>
      <point x="1331.56" y="1174"/>
      <point x="1285.56" y="1219.99"/>
      <point x="1229.56" y="1219.99" type="curve" smooth="yes"/>
      <point x="1173.56" y="1219.99"/>
      <point x="1127.57" y="1174"/>
      <point x="1127.57" y="1118" type="curve" smooth="yes"/>
      <point x="1127.57" y="1062"/>
      <point x="1173.56" y="1016.01"/>
      <point x="1229.56" y="1016.01" type="curve" smooth="yes"/>
      <point x="1285.56" y="1016.01"/>
      <point x="1331.56" y="1062"/>
    </contour>
    <contour>
      <point x="1488.31" y="1107.92" type="curve" smooth="yes"/>
      <point x="1488.31" y="972.921"/>
      <point x="1386.31" y="860.921"/>
      <point x="1254.31" y="846.921" type="curve"/>
      <point x="1254.31" y="827.921" type="line"/>
      <point x="1197.31" y="860.921" type="line"/>
      <point x="1254.31" y="893.921" type="line"/>
      <point x="1254.31" y="877.921" type="line"/>
      <point x="1369.31" y="891.921"/>
      <point x="1458.31" y="988.919"/>
      <point x="1458.31" y="1107.92" type="curve" smooth="yes"/>
      <point x="1458.31" y="1235.93"/>
      <point x="1354.31" y="1339.92"/>
      <point x="1226.31" y="1339.92" type="curve" smooth="yes"/>
      <point x="1102.31" y="1339.92"/>
      <point x="984.313" y="1239.92"/>
      <point x="984.313" y="1107.92" type="curve"/>
      <point x="954.313" y="1107.92" type="line"/>
      <point x="954.313" y="1258.92"/>
      <point x="1088.31" y="1369.92"/>
      <point x="1226.31" y="1369.92" type="curve" smooth="yes"/>
      <point x="1371.32" y="1369.92"/>
      <point x="1488.31" y="1252.92"/>
    </contour>
    <contour>
      <point x="922.313" y="1120.92" type="curve" smooth="yes"/>
      <point x="922.313" y="1091.92"/>
      <point x="895.313" y="1071.92"/>
      <point x="855.313" y="1045.92" type="curve"/>
      <point x="919.313" y="1045.92" type="line"/>
      <point x="919.313" y="1025.92" type="line"/>
      <point x="834.313" y="1025.92" type="line"/>
      <point x="834.313" y="1043.92" type="line"/>
      <point x="885.313" y="1084.92"/>
      <point x="900.313" y="1103.92"/>
      <point x="900.313" y="1120.92" type="curve" smooth="yes"/>
      <point x="900.313" y="1128.92"/>
      <point x="896.313" y="1140.92"/>
      <point x="881.313" y="1140.92" type="curve" smooth="yes"/>
      <point x="865.313" y="1140.92"/>
      <point x="859.313" y="1127.92"/>
      <point x="858.313" y="1116.92" type="curve"/>
      <point x="836.313" y="1116.92" type="line"/>
      <point x="838.313" y="1142.92"/>
      <point x="853.313" y="1155.92"/>
      <point x="881.313" y="1155.92" type="curve" smooth="yes"/>
      <point x="907.313" y="1155.92"/>
      <point x="922.313" y="1141.92"/>
    </contour>
    <contour>
      <point x="740.313" y="1006.92" type="line"/>
      <point x="719.313" y="1006.92" type="line"/>
      <point x="719.313" y="1107.92" type="line"/>
      <point x="712.313" y="1101.92"/>
      <point x="698.313" y="1094.92"/>
      <point x="690.313" y="1092.92" type="curve"/>
      <point x="690.313" y="1111.92" type="line"/>
      <point x="699.313" y="1115.92"/>
      <point x="715.313" y="1128.92"/>
      <point x="719.313" y="1132.92" type="curve"/>
      <point x="740.313" y="1132.92" type="line"/>
    </contour>
    <contour>
      <point x="1000.31" y="923.92" type="line"/>
      <point x="982.313" y="923.92" type="line"/>
      <point x="984.313" y="766.92"/>
      <point x="935.339" y="566.909"/>
      <point x="891.313" y="461.92" type="curve" smooth="yes"/>
      <point x="792.35" y="225.928"/>
      <point x="666.313" y="121.92"/>
      <point x="625.313" y="121.92" type="curve" smooth="yes"/>
      <point x="531.313" y="121.92"/>
      <point x="478.239" y="184.93"/>
      <point x="497.313" y="286.92" type="curve"/>
      <point x="497.313" y="286.92"/>
      <point x="589.313" y="779.92"/>
      <point x="641.313" y="1056.92" type="curve"/>
      <point x="671.313" y="1050.92" type="line"/>
      <point x="619.313" y="773.92"/>
      <point x="526.313" y="281.92"/>
      <point x="526.313" y="281.92" type="curve"/>
      <point x="510.268" y="196.826"/>
      <point x="551.313" y="151.92"/>
      <point x="625.313" y="151.92" type="curve" smooth="yes"/>
      <point x="644.313" y="151.92"/>
      <point x="762.721" y="236.216"/>
      <point x="863.313" y="473.92" type="curve" smooth="yes"/>
      <point x="908.685" y="581.138"/>
      <point x="954.313" y="775.92"/>
      <point x="952.313" y="924.92" type="curve"/>
      <point x="934.313" y="923.92" type="line"/>
      <point x="967.313" y="980.92" type="line"/>
    </contour>
    <contour>
      <point x="362.935" y="882.745" type="line"/>
      <point x="349.935" y="882.745" type="line"/>
      <point x="349.935" y="855.745" type="line"/>
      <point x="328.935" y="855.745" type="line"/>
      <point x="328.935" y="882.745" type="line"/>
      <point x="268.935" y="882.745" type="line"/>
      <point x="268.935" y="907.745" type="line"/>
      <point x="320.935" y="982.745" type="line"/>
      <point x="349.935" y="982.745" type="line"/>
      <point x="349.935" y="901.745" type="line"/>
      <point x="362.935" y="901.745" type="line"/>
    </contour>
    <contour>
      <point x="390.759" y="787.865" type="line"/>
      <point x="90.1775" y="707.985" type="line"/>
      <point x="94.6175" y="691.609" type="line"/>
      <point x="30.9248" y="708.608" type="line"/>
      <point x="77.4145" y="755.097" type="line"/>
      <point x="82.3133" y="737.034" type="line"/>
      <point x="383.181" y="816.947" type="line"/>
    </contour>
    <contour>
      <point x="328.935" y="901.745" type="line"/>
      <point x="328.935" y="966.745" type="line"/>
      <point x="283.935" y="901.745" type="line"/>
    </contour>
  </outline>
</glyph>
<glyph name="uni1208" format="2">
  <advance width="822"/>
  <unicode hex="1208"/>
  <outline>
    <contour>
      <point x="615" y="1368" type="line"/>
      <point x="594" y="1368" type="line"/>
      <point x="594" y="1469" type="line"/>
      <point x="587" y="1463"/>
      <point x="573" y="1456"/>
      <point x="565" y="1454" type="curve"/>
      <point x="565" y="1473" type="line"/>
      <point x="574" y="1477"/>
      <point x="590" y="1490"/>
      <point x="594" y="1494" type="curve"/>
      <point x="615" y="1494" type="line"/>
    </contour>
    <contour>
      <point x="297" y="1339" type="curve" smooth="yes"/>
      <point x="297" y="1310"/>
      <point x="270" y="1290"/>
      <point x="230" y="1264" type="curve"/>
      <point x="294" y="1264" type="line"/>
      <point x="294" y="1244" type="line"/>
      <point x="209" y="1244" type="line"/>
      <point x="209" y="1262" type="line"/>
      <point x="260" y="1303"/>
      <point x="275" y="1322"/>
      <point x="275" y="1339" type="curve" smooth="yes"/>
      <point x="275" y="1347"/>
      <point x="271" y="1359"/>
      <point x="256" y="1359" type="curve" smooth="yes"/>
      <point x="240" y="1359"/>
      <point x="234" y="1346"/>
      <point x="233" y="1335" type="curve"/>
      <point x="211" y="1335" type="line"/>
      <point x="213" y="1361"/>
      <point x="228" y="1374"/>
      <point x="256" y="1374" type="curve" smooth="yes"/>
      <point x="282" y="1374"/>
      <point x="297" y="1360"/>
    </contour>
    <contour>
      <point x="829" y="57" type="line"/>
      <point x="796" y="0" type="line"/>
      <point x="763" y="57" type="line"/>
      <point x="782.008" y="57" type="line"/>
      <point x="782.001" y="835" type="line" smooth="yes"/>
      <point x="782" y="968.234"/>
      <point x="658.383" y="1196.2"/>
      <point x="489.732" y="1405.63" type="curve"/>
      <point x="513.097" y="1424.45" type="line"/>
      <point x="681.553" y="1215.26"/>
      <point x="812" y="979.843"/>
      <point x="812.001" y="835" type="curve" smooth="yes"/>
      <point x="812.007" y="57" type="line"/>
    </contour>
    <contour>
      <point x="722.001" y="35" type="line" smooth="yes"/>
      <point x="722.001" y="16"/>
      <point x="706.001" y="0"/>
      <point x="687.001" y="0" type="curve" smooth="yes"/>
      <point x="667.001" y="0"/>
      <point x="652.001" y="16"/>
      <point x="652.001" y="35" type="curve" smooth="yes"/>
      <point x="652.001" y="800" type="line" smooth="yes"/>
      <point x="652.001" y="979.002"/>
      <point x="508.001" y="1153"/>
      <point x="508.001" y="1153" type="curve"/>
      <point x="101.186" y="930"/>
      <point x="126.009" y="722.141"/>
      <point x="120.001" y="35" type="curve" smooth="yes"/>
      <point x="119.835" y="16"/>
      <point x="104.001" y="0"/>
      <point x="85.0012" y="0" type="curve" smooth="yes"/>
      <point x="66.0012" y="0"/>
      <point x="49.841" y="16"/>
      <point x="50.0012" y="35" type="curve" smooth="yes"/>
      <point x="55.4802" y="684.466"/>
      <point x="21.1857" y="982"/>
      <point x="469.001" y="1205" type="curve"/>
      <point x="469.001" y="1205"/>
      <point x="440.088" y="1259.08"/>
      <point x="388.001" y="1325" type="curve" smooth="yes"/>
      <point x="376.094" y="1340.07"/>
      <point x="379.001" y="1362"/>
      <point x="394.001" y="1374" type="curve" smooth="yes"/>
      <point x="409.001" y="1386"/>
      <point x="430.07" y="1384.06"/>
      <point x="443.001" y="1368" type="curve" smooth="yes"/>
      <point x="612.066" y="1158.06"/>
      <point x="722.001" y="945"/>
      <point x="722.001" y="835" type="curve" smooth="yes"/>
    </contour>
    <contour>
      <point x="369.239" y="1219.34" type="line"/>
      <point x="41.6035" y="1027.53"/>
      <point x="0.905266" y="758.321"/>
      <point x="-8.67073" y="416.108" type="curve" smooth="yes"/>
      <point x="-12.1445" y="291.963"/>
      <point x="-9.41148" y="167.093"/>
      <point x="-9.86328" y="57" type="curve"/>
      <point x="9" y="57" type="line"/>
      <point x="-24" y="0" type="line"/>
      <point x="-57" y="57" type="line"/>
      <point x="-39.8622" y="57" type="line"/>
      <point x="-38.9242" y="302.207"/>
      <point x="-55.945" y="564.247"/>
      <point x="6.567" y="802.738" type="curve" smooth="yes"/>
      <point x="56.0313" y="991.45"/>
      <point x="158.882" y="1130.95"/>
      <point x="354.082" y="1245.23" type="curve"/>
    </contour>
  </outline>
</glyph>
<glyph name="uni1209" format="2">
  <advance width="1254"/>
  <unicode hex="1209"/>
  <outline>
    <contour>
      <point x="615" y="1368" type="line"/>
      <point x="594" y="1368" type="line"/>
      <point x="594" y="1469" type="line"/>
      <point x="587" y="1463"/>
      <point x="573" y="1456"/>
      <point x="565" y="1454" type="curve"/>
      <point x="565" y="1473" type="line"/>
      <point x="574" y="1477"/>
      <point x="590" y="1490"/>
      <point x="594" y="1494" type="curve"/>
      <point x="615" y="1494" type="line"/>
    </contour>
    <contour>
      <point x="940" y="905" type="curve" smooth="yes"/>
      <point x="940" y="886"/>
      <point x="926" y="867"/>
      <point x="894" y="867" type="curve" smooth="yes"/>
      <point x="861" y="867"/>
      <point x="853" y="887"/>
      <point x="853" y="903" type="curve"/>
      <point x="875" y="903" type="line"/>
      <point x="875" y="891"/>
      <point x="883" y="883"/>
      <point x="895" y="883" type="curve" smooth="yes"/>
      <point x="907" y="883"/>
      <point x="918" y="891"/>
      <point x="918" y="905" type="curve" smooth="yes"/>
      <point x="918" y="910"/>
      <point x="914" y="927"/>
      <point x="896" y="927" type="curve" smooth="yes"/>
      <point x="885" y="927" type="line"/>
      <point x="885" y="941" type="line"/>
      <point x="913" y="941"/>
      <point x="915" y="953"/>
      <point x="915" y="963" type="curve" smooth="yes"/>
      <point x="915" y="972"/>
      <point x="911" y="982"/>
      <point x="898" y="982" type="curve" smooth="yes"/>
      <point x="884" y="982"/>
      <point x="878" y="976"/>
      <point x="877" y="964" type="curve"/>
      <point x="855" y="964" type="line"/>
      <point x="856" y="986"/>
      <point x="874" y="997"/>
      <point x="897" y="997" type="curve" smooth="yes"/>
      <point x="919" y="997"/>
      <point x="937" y="985"/>
      <point x="937" y="963" type="curve" smooth="yes"/>
      <point x="937" y="944"/>
      <point x="925" y="939"/>
      <point x="914" y="935" type="curve"/>
      <point x="925" y="932"/>
      <point x="940" y="923"/>
    </contour>
    <contour>
      <point x="1120.89" y="822.484" type="line"/>
      <point x="1066.98" y="784.641" type="line"/>
      <point x="1065.6" y="800.506" type="line"/>
      <point x="842.451" y="781.32" type="line"/>
      <point x="839.674" y="811.191" type="line"/>
      <point x="1062.98" y="830.39" type="line"/>
      <point x="1061.23" y="850.391" type="line"/>
    </contour>
    <contour>
      <point x="297" y="1339" type="curve" smooth="yes"/>
      <point x="297" y="1310"/>
      <point x="270" y="1290"/>
      <point x="230" y="1264" type="curve"/>
      <point x="294" y="1264" type="line"/>
      <point x="294" y="1244" type="line"/>
      <point x="209" y="1244" type="line"/>
      <point x="209" y="1262" type="line"/>
      <point x="260" y="1303"/>
      <point x="275" y="1322"/>
      <point x="275" y="1339" type="curve" smooth="yes"/>
      <point x="275" y="1347"/>
      <point x="271" y="1359"/>
      <point x="256" y="1359" type="curve" smooth="yes"/>
      <point x="240" y="1359"/>
      <point x="234" y="1346"/>
      <point x="233" y="1335" type="curve"/>
      <point x="211" y="1335" type="line"/>
      <point x="213" y="1361"/>
      <point x="228" y="1374"/>
      <point x="256" y="1374" type="curve" smooth="yes"/>
      <point x="282" y="1374"/>
      <point x="297" y="1360"/>
    </contour>
    <contour>
      <point x="829" y="57" type="line"/>
      <point x="796" y="0" type="line"/>
      <point x="763" y="57" type="line"/>
      <point x="782.008" y="57" type="line"/>
      <point x="782.001" y="835" type="line" smooth="yes"/>
      <point x="782" y="968.234"/>
      <point x="658.383" y="1196.2"/>
      <point x="489.732" y="1405.63" type="curve"/>
      <point x="513.097" y="1424.45" type="line"/>
      <point x="681.553" y="1215.26"/>
      <point x="812" y="979.843"/>
      <point x="812.001" y="835" type="curve" smooth="yes"/>
      <point x="812.007" y="57" type="line"/>
    </contour>
    <contour>
      <point x="1154.14" y="709.868" type="line"/>
      <point x="1155.88" y="689.942"/>
      <point x="1141.24" y="673.654"/>
      <point x="1122.32" y="671.95" type="curve" smooth="yes"/>
      <point x="725.918" y="636.265" type="line"/>
      <point x="722.001" y="35" type="line" smooth="yes"/>
      <point x="721.878" y="16"/>
      <point x="706.001" y="0"/>
      <point x="687.001" y="0" type="curve" smooth="yes"/>
      <point x="667.001" y="0"/>
      <point x="652.001" y="16"/>
      <point x="652.001" y="35" type="curve" smooth="yes"/>
      <point x="652.001" y="800" type="line" smooth="yes"/>
      <point x="652.001" y="979.002"/>
      <point x="508.001" y="1153"/>
      <point x="508.001" y="1153" type="curve"/>
      <point x="101.186" y="930"/>
      <point x="126.01" y="722.165"/>
      <point x="120.001" y="35" type="curve" smooth="yes"/>
      <point x="119.835" y="16"/>
      <point x="104.001" y="0"/>
      <point x="85.0013" y="0" type="curve" smooth="yes"/>
      <point x="66.0013" y="0"/>
      <point x="49.8411" y="16"/>
      <point x="50.0013" y="35" type="curve" smooth="yes"/>
      <point x="55.48" y="684.458"/>
      <point x="21.1858" y="982"/>
      <point x="469.001" y="1205" type="curve"/>
      <point x="469.001" y="1205"/>
      <point x="440.088" y="1259.07"/>
      <point x="388.001" y="1325" type="curve" smooth="yes"/>
      <point x="376.094" y="1340.07"/>
      <point x="379.001" y="1362"/>
      <point x="394.001" y="1374" type="curve" smooth="yes"/>
      <point x="409.001" y="1386"/>
      <point x="430.069" y="1384.06"/>
      <point x="443.001" y="1368" type="curve" smooth="yes"/>
      <point x="612.066" y="1158.06"/>
      <point x="723.953" y="944.99"/>
      <point x="722.001" y="835" type="curve" smooth="yes"/>
      <point x="719.73" y="706.995" type="line"/>
      <point x="1116.22" y="741.684" type="line" smooth="yes"/>
      <point x="1135.15" y="743.34"/>
      <point x="1152.48" y="728.796"/>
      <point x="1154.05" y="710.864" type="curve"/>
    </contour>
    <contour>
      <point x="369.239" y="1219.34" type="line"/>
      <point x="41.6035" y="1027.53"/>
      <point x="0.906765" y="758.431"/>
      <point x="-8.67074" y="416.108" type="curve" smooth="yes"/>
      <point x="-12.1452" y="291.916"/>
      <point x="-9.41144" y="167.093"/>
      <point x="-9.86324" y="57" type="curve"/>
      <point x="9" y="57" type="line"/>
      <point x="-24" y="0" type="line"/>
      <point x="-57" y="57" type="line"/>
      <point x="-39.8622" y="57" type="line"/>
      <point x="-38.9242" y="302.207"/>
      <point x="-55.9435" y="564.249"/>
      <point x="6.567" y="802.738" type="curve" smooth="yes"/>
      <point x="56.03" y="991.449"/>
      <point x="158.882" y="1130.95"/>
      <point x="354.082" y="1245.23" type="curve"/>
    </contour>
  </outline>
</glyph>
<glyph name="uni120A" format="2">
  <advance width="1254"/>
  <unicode hex="120A"/>
  <outline>
    <contour>
      <point x="615" y="1368" type="line"/>
      <point x="594" y="1368" type="line"/>
      <point x="594" y="1469" type="line"/>
      <point x="587" y="1463"/>
      <point x="573" y="1456"/>
      <point x="565" y="1454" type="curve"/>
      <point x="565" y="1473" type="line"/>
      <point x="574" y="1477"/>
      <point x="590" y="1490"/>
      <point x="594" y="1494" type="curve"/>
      <point x="615" y="1494" type="line"/>
    </contour>
    <contour>
      <point x="312" y="1274" type="curve" smooth="yes"/>
      <point x="312" y="1255"/>
      <point x="298" y="1236"/>
      <point x="266" y="1236" type="curve" smooth="yes"/>
      <point x="233" y="1236"/>
      <point x="225" y="1256"/>
      <point x="225" y="1272" type="curve"/>
      <point x="247" y="1272" type="line"/>
      <point x="247" y="1260"/>
      <point x="255" y="1252"/>
      <point x="267" y="1252" type="curve" smooth="yes"/>
      <point x="279" y="1252"/>
      <point x="290" y="1260"/>
      <point x="290" y="1274" type="curve" smooth="yes"/>
      <point x="290" y="1279"/>
      <point x="286" y="1296"/>
      <point x="268" y="1296" type="curve" smooth="yes"/>
      <point x="257" y="1296" type="line"/>
      <point x="257" y="1310" type="line"/>
      <point x="285" y="1310"/>
      <point x="287" y="1322"/>
      <point x="287" y="1332" type="curve" smooth="yes"/>
      <point x="287" y="1341"/>
      <point x="283" y="1351"/>
      <point x="270" y="1351" type="curve" smooth="yes"/>
      <point x="256" y="1351"/>
      <point x="250" y="1345"/>
      <point x="249" y="1333" type="curve"/>
      <point x="227" y="1333" type="line"/>
      <point x="228" y="1355"/>
      <point x="246" y="1366"/>
      <point x="269" y="1366" type="curve" smooth="yes"/>
      <point x="291" y="1366"/>
      <point x="309" y="1354"/>
      <point x="309" y="1332" type="curve" smooth="yes"/>
      <point x="309" y="1313"/>
      <point x="297" y="1308"/>
      <point x="286" y="1304" type="curve"/>
      <point x="297" y="1301"/>
      <point x="312" y="1292"/>
    </contour>
    <contour>
      <point x="829" y="216" type="line"/>
      <point x="796" y="159" type="line"/>
      <point x="763" y="216" type="line"/>
      <point x="782.008" y="216" type="line"/>
      <point x="782.001" y="835" type="line" smooth="yes"/>
      <point x="782" y="968.237"/>
      <point x="658.383" y="1196.2"/>
      <point x="489.732" y="1405.63" type="curve"/>
      <point x="513.098" y="1424.45" type="line"/>
      <point x="681.554" y="1215.26"/>
      <point x="812" y="979.846"/>
      <point x="812.001" y="835" type="curve" smooth="yes"/>
      <point x="812.008" y="216" type="line"/>
    </contour>
    <contour>
      <point x="1154" y="35" type="curve" smooth="yes"/>
      <point x="1154" y="16"/>
      <point x="1139" y="0"/>
      <point x="1119" y="0" type="curve" smooth="yes"/>
      <point x="685.001" y="0" type="line" smooth="yes"/>
      <point x="666" y="0"/>
      <point x="651" y="16"/>
      <point x="651" y="35" type="curve" smooth="yes"/>
      <point x="651" y="800" type="line" smooth="yes"/>
      <point x="651" y="979.002"/>
      <point x="508" y="1153"/>
      <point x="508" y="1153" type="curve"/>
      <point x="101.185" y="930"/>
      <point x="126.008" y="722.141"/>
      <point x="120" y="35" type="curve" smooth="yes"/>
      <point x="119.834" y="16"/>
      <point x="104" y="0"/>
      <point x="85" y="0" type="curve" smooth="yes"/>
      <point x="66" y="0"/>
      <point x="49.8398" y="16"/>
      <point x="50" y="35" type="curve" smooth="yes"/>
      <point x="55.479" y="684.466"/>
      <point x="21.1845" y="982"/>
      <point x="469" y="1205" type="curve"/>
      <point x="469" y="1205"/>
      <point x="439.087" y="1259.08"/>
      <point x="387" y="1325" type="curve" smooth="yes"/>
      <point x="375.092" y="1340.07"/>
      <point x="378" y="1362"/>
      <point x="393" y="1374" type="curve" smooth="yes"/>
      <point x="408" y="1386"/>
      <point x="429.069" y="1384.06"/>
      <point x="442" y="1368" type="curve" smooth="yes"/>
      <point x="611.065" y="1158.06"/>
      <point x="721" y="945.001"/>
      <point x="721" y="835" type="curve" smooth="yes"/>
      <point x="721" y="70" type="line"/>
      <point x="1119" y="70" type="line" smooth="yes"/>
      <point x="1138" y="70"/>
      <point x="1154" y="54"/>
    </contour>
    <contour>
      <point x="1132" y="-88" type="line"/>
      <point x="1075" y="-121" type="line"/>
      <point x="1075" y="-102.762" type="line"/>
      <point x="772.007" y="-102.754" type="line"/>
      <point x="772.008" y="-72.7539" type="line"/>
      <point x="1075" y="-72.7626" type="line"/>
      <point x="1075" y="-55" type="line"/>
    </contour>
    <contour>
      <point x="369.239" y="1219.34" type="line"/>
      <point x="41.6035" y="1027.53"/>
      <point x="0.905766" y="758.358"/>
      <point x="-8.67073" y="416.108" type="curve" smooth="yes"/>
      <point x="-12.145" y="291.945"/>
      <point x="-9.41148" y="167.093"/>
      <point x="-9.86328" y="57" type="curve"/>
      <point x="9" y="57" type="line"/>
      <point x="-24" y="0" type="line"/>
      <point x="-57" y="57" type="line"/>
      <point x="-39.8622" y="57" type="line"/>
      <point x="-38.9242" y="302.207"/>
      <point x="-55.9445" y="564.248"/>
      <point x="6.567" y="802.738" type="curve" smooth="yes"/>
      <point x="56.031" y="991.449"/>
      <point x="158.882" y="1130.95"/>
      <point x="354.082" y="1245.23" type="curve"/>
    </contour>
    <contour>
      <point x="732" y="-106" type="curve" smooth="yes"/>
      <point x="732" y="-135"/>
      <point x="705" y="-155"/>
      <point x="665" y="-181" type="curve"/>
      <point x="729" y="-181" type="line"/>
      <point x="729" y="-201" type="line"/>
      <point x="644" y="-201" type="line"/>
      <point x="644" y="-183" type="line"/>
      <point x="695" y="-142"/>
      <point x="710" y="-123"/>
      <point x="710" y="-106" type="curve" smooth="yes"/>
      <point x="710" y="-98"/>
      <point x="706" y="-86"/>
      <point x="691" y="-86" type="curve" smooth="yes"/>
      <point x="675" y="-86"/>
      <point x="669" y="-99"/>
      <point x="668" y="-110" type="curve"/>
      <point x="646" y="-110" type="line"/>
      <point x="648" y="-84"/>
      <point x="663" y="-71"/>
      <point x="691" y="-71" type="curve" smooth="yes"/>
      <point x="717" y="-71"/>
      <point x="732" y="-85"/>
    </contour>
  </outline>
</glyph>
<glyph name="uni120B" format="2">
  <advance width="819"/>
  <unicode hex="120B"/>
  <outline>
    <contour>
      <point x="615" y="1368" type="line"/>
      <point x="594" y="1368" type="line"/>
      <point x="594" y="1469" type="line"/>
      <point x="587" y="1463"/>
      <point x="573" y="1456"/>
      <point x="565" y="1454" type="curve"/>
      <point x="565" y="1473" type="line"/>
      <point x="574" y="1477"/>
      <point x="590" y="1490"/>
      <point x="594" y="1494" type="curve"/>
      <point x="615" y="1494" type="line"/>
    </contour>
    <contour>
      <point x="297" y="1339" type="curve" smooth="yes"/>
      <point x="297" y="1310"/>
      <point x="270" y="1290"/>
      <point x="230" y="1264" type="curve"/>
      <point x="294" y="1264" type="line"/>
      <point x="294" y="1244" type="line"/>
      <point x="209" y="1244" type="line"/>
      <point x="209" y="1262" type="line"/>
      <point x="260" y="1303"/>
      <point x="275" y="1322"/>
      <point x="275" y="1339" type="curve" smooth="yes"/>
      <point x="275" y="1347"/>
      <point x="271" y="1359"/>
      <point x="256" y="1359" type="curve" smooth="yes"/>
      <point x="240" y="1359"/>
      <point x="234" y="1346"/>
      <point x="233" y="1335" type="curve"/>
      <point x="211" y="1335" type="line"/>
      <point x="213" y="1361"/>
      <point x="228" y="1374"/>
      <point x="256" y="1374" type="curve" smooth="yes"/>
      <point x="282" y="1374"/>
      <point x="297" y="1360"/>
    </contour>
    <contour>
      <point x="829" y="57" type="line"/>
      <point x="796" y="0" type="line"/>
      <point x="763" y="57" type="line"/>
      <point x="782.008" y="57" type="line"/>
      <point x="782.001" y="835" type="line" smooth="yes"/>
      <point x="782" y="968.234"/>
      <point x="658.383" y="1196.2"/>
      <point x="489.732" y="1405.63" type="curve"/>
      <point x="513.097" y="1424.45" type="line"/>
      <point x="681.553" y="1215.26"/>
      <point x="812" y="979.843"/>
      <point x="812.001" y="835" type="curve" smooth="yes"/>
      <point x="812.007" y="57" type="line"/>
    </contour>
    <contour>
      <point x="719.284" y="35" type="line" smooth="yes"/>
      <point x="719.284" y="16"/>
      <point x="703.284" y="0"/>
      <point x="684.284" y="0" type="curve" smooth="yes"/>
      <point x="664.284" y="0"/>
      <point x="649.284" y="16"/>
      <point x="649.284" y="35" type="curve" smooth="yes"/>
      <point x="649.284" y="800" type="line" smooth="yes"/>
      <point x="649.284" y="979.002"/>
      <point x="505.284" y="1153"/>
      <point x="505.284" y="1153" type="curve"/>
      <point x="177.031" y="973.065"/>
      <point x="129.802" y="802.988"/>
      <point x="120.646" y="383.031" type="curve"/>
      <point x="120.48" y="364.031"/>
      <point x="104.646" y="348.031"/>
      <point x="85.646" y="348.031" type="curve" smooth="yes"/>
      <point x="66.646" y="348.031"/>
      <point x="49.8408" y="367.018"/>
      <point x="50" y="386.018" type="curve"/>
      <point x="58.437" y="800.988"/>
      <point x="108.418" y="1026.79"/>
      <point x="466.283" y="1205" type="curve"/>
      <point x="466.283" y="1205"/>
      <point x="437.37" y="1259.07"/>
      <point x="385.283" y="1325" type="curve" smooth="yes"/>
      <point x="373.375" y="1340.07"/>
      <point x="376.283" y="1362"/>
      <point x="391.283" y="1374" type="curve" smooth="yes"/>
      <point x="406.283" y="1386"/>
      <point x="427.351" y="1384.06"/>
      <point x="440.283" y="1368" type="curve" smooth="yes"/>
      <point x="609.348" y="1158.06"/>
      <point x="719.283" y="945"/>
      <point x="719.283" y="835" type="curve" smooth="yes"/>
    </contour>
    <contour>
      <point x="369.239" y="1219.34" type="line"/>
      <point x="41.6035" y="1027.53"/>
      <point x="0.904015" y="758.231"/>
      <point x="-8.67074" y="416.108" type="curve"/>
      <point x="10.1925" y="416.108" type="line"/>
      <point x="-22.8075" y="359.108" type="line"/>
      <point x="-55.8075" y="416.108" type="line"/>
      <point x="-38.6697" y="416.108" type="line"/>
      <point x="-35.4422" y="546.944"/>
      <point x="-25.8685" y="678.991"/>
      <point x="6.56702" y="802.738" type="curve" smooth="yes"/>
      <point x="56.0258" y="991.43"/>
      <point x="158.882" y="1130.95"/>
      <point x="354.082" y="1245.23" type="curve"/>
    </contour>
  </outline>
</glyph>
<glyph name="uni120C" format="2">
  <advance width="1106"/>
  <unicode hex="120C"/>
  <outline>
    <contour>
      <point x="615" y="1368" type="line"/>
      <point x="594" y="1368" type="line"/>
      <point x="594" y="1469" type="line"/>
      <point x="587" y="1463"/>
      <point x="573" y="1456"/>
      <point x="565" y="1454" type="curve"/>
      <point x="565" y="1473" type="line"/>
      <point x="574" y="1477"/>
      <point x="590" y="1490"/>
      <point x="594" y="1494" type="curve"/>
      <point x="615" y="1494" type="line"/>
    </contour>
    <contour>
      <point x="829" y="526" type="line"/>
      <point x="796" y="469" type="line"/>
      <point x="763" y="526" type="line"/>
      <point x="782.008" y="526" type="line"/>
      <point x="782.001" y="835" type="line" smooth="yes"/>
      <point x="781.998" y="968.235"/>
      <point x="658.383" y="1196.2"/>
      <point x="489.732" y="1405.63" type="curve"/>
      <point x="513.098" y="1424.45" type="line"/>
      <point x="681.553" y="1215.26"/>
      <point x="811.998" y="979.844"/>
      <point x="812.001" y="835" type="curve" smooth="yes"/>
      <point x="812.007" y="526" type="line"/>
    </contour>
    <contour>
      <point x="317" y="1277" type="curve" smooth="yes"/>
      <point x="317" y="1258"/>
      <point x="303" y="1239"/>
      <point x="271" y="1239" type="curve" smooth="yes"/>
      <point x="238" y="1239"/>
      <point x="230" y="1259"/>
      <point x="230" y="1275" type="curve"/>
      <point x="252" y="1275" type="line"/>
      <point x="252" y="1263"/>
      <point x="260" y="1255"/>
      <point x="272" y="1255" type="curve" smooth="yes"/>
      <point x="284" y="1255"/>
      <point x="295" y="1263"/>
      <point x="295" y="1277" type="curve" smooth="yes"/>
      <point x="295" y="1282"/>
      <point x="291" y="1299"/>
      <point x="273" y="1299" type="curve" smooth="yes"/>
      <point x="262" y="1299" type="line"/>
      <point x="262" y="1313" type="line"/>
      <point x="290" y="1313"/>
      <point x="292" y="1325"/>
      <point x="292" y="1335" type="curve" smooth="yes"/>
      <point x="292" y="1344"/>
      <point x="288" y="1354"/>
      <point x="275" y="1354" type="curve" smooth="yes"/>
      <point x="261" y="1354"/>
      <point x="255" y="1348"/>
      <point x="254" y="1336" type="curve"/>
      <point x="232" y="1336" type="line"/>
      <point x="233" y="1358"/>
      <point x="251" y="1369"/>
      <point x="274" y="1369" type="curve" smooth="yes"/>
      <point x="296" y="1369"/>
      <point x="314" y="1357"/>
      <point x="314" y="1335" type="curve" smooth="yes"/>
      <point x="314" y="1316"/>
      <point x="302" y="1311"/>
      <point x="291" y="1307" type="curve"/>
      <point x="302" y="1304"/>
      <point x="317" y="1295"/>
    </contour>
    <contour>
      <point x="1006" y="172" type="curve" smooth="yes"/>
      <point x="1006" y="77"/>
      <point x="929.001" y="0"/>
      <point x="834.001" y="0" type="curve" smooth="yes"/>
      <point x="739.001" y="0"/>
      <point x="652.001" y="77"/>
      <point x="652.001" y="172" type="curve" smooth="yes"/>
      <point x="652.001" y="800" type="line" smooth="yes"/>
      <point x="652.001" y="979"/>
      <point x="508.001" y="1153"/>
      <point x="508.001" y="1153" type="curve"/>
      <point x="101.186" y="930"/>
      <point x="126.009" y="722.165"/>
      <point x="120.001" y="35" type="curve" smooth="yes"/>
      <point x="119.835" y="16"/>
      <point x="104.001" y="0"/>
      <point x="85.0012" y="0" type="curve" smooth="yes"/>
      <point x="66.0012" y="0"/>
      <point x="49.841" y="16"/>
      <point x="50.0012" y="35" type="curve" smooth="yes"/>
      <point x="55.4799" y="684.458"/>
      <point x="21.1857" y="982"/>
      <point x="469.001" y="1205" type="curve"/>
      <point x="469.001" y="1205"/>
      <point x="440.088" y="1259.07"/>
      <point x="388.001" y="1325" type="curve" smooth="yes"/>
      <point x="376.094" y="1340.07"/>
      <point x="379.001" y="1362"/>
      <point x="394.001" y="1374" type="curve" smooth="yes"/>
      <point x="409.001" y="1386"/>
      <point x="430.069" y="1384.06"/>
      <point x="443.001" y="1368" type="curve" smooth="yes"/>
      <point x="612.066" y="1158.06"/>
      <point x="722.001" y="945"/>
      <point x="722.001" y="835" type="curve" smooth="yes"/>
      <point x="722.001" y="303" type="line"/>
      <point x="752.001" y="328"/>
      <point x="791.001" y="344"/>
      <point x="834.001" y="344" type="curve" smooth="yes"/>
      <point x="929.001" y="344"/>
      <point x="1006" y="267"/>
    </contour>
    <contour>
      <point x="1094" y="176" type="curve" smooth="yes"/>
      <point x="1094" y="31.2915"/>
      <point x="976.704" y="-86"/>
      <point x="832" y="-86" type="curve" smooth="yes"/>
      <point x="694.384" y="-86"/>
      <point x="559.848" y="24.5198"/>
      <point x="560" y="176.09" type="curve"/>
      <point x="590" y="176.06" type="line"/>
      <point x="589.867" y="43.4663"/>
      <point x="708.464" y="-56"/>
      <point x="832" y="-56" type="curve" smooth="yes"/>
      <point x="960.136" y="-56"/>
      <point x="1064" y="47.8637"/>
      <point x="1064" y="176" type="curve" smooth="yes"/>
      <point x="1064" y="297.736"/>
      <point x="970.234" y="397.563"/>
      <point x="850.992" y="407.227" type="curve"/>
      <point x="851" y="389" type="line"/>
      <point x="794" y="422" type="line"/>
      <point x="851" y="455" type="line"/>
      <point x="850.992" y="437.324" type="line"/>
      <point x="986.818" y="427.59"/>
      <point x="1094" y="314.316"/>
    </contour>
    <contour>
      <point x="369.239" y="1219.34" type="line"/>
      <point x="41.6035" y="1027.53"/>
      <point x="0.906517" y="758.396"/>
      <point x="-8.67073" y="416.108" type="curve" smooth="yes"/>
      <point x="-12.1452" y="291.927"/>
      <point x="-9.41143" y="167.093"/>
      <point x="-9.86323" y="57" type="curve"/>
      <point x="9" y="57" type="line"/>
      <point x="-24" y="0" type="line"/>
      <point x="-57" y="57" type="line"/>
      <point x="-39.8622" y="57" type="line"/>
      <point x="-38.9242" y="302.207"/>
      <point x="-55.9442" y="564.248"/>
      <point x="6.567" y="802.738" type="curve" smooth="yes"/>
      <point x="56.0307" y="991.449"/>
      <point x="158.882" y="1130.95"/>
      <point x="354.082" y="1245.23" type="curve"/>
    </contour>
    <contour>
      <point x="544" y="109" type="curve" smooth="yes"/>
      <point x="544" y="80"/>
      <point x="517" y="60"/>
      <point x="477" y="34" type="curve"/>
      <point x="541" y="34" type="line"/>
      <point x="541" y="14" type="line"/>
      <point x="456" y="14" type="line"/>
      <point x="456" y="32" type="line"/>
      <point x="507" y="73"/>
      <point x="522" y="92"/>
      <point x="522" y="109" type="curve" smooth="yes"/>
      <point x="522" y="117"/>
      <point x="518" y="129"/>
      <point x="503" y="129" type="curve" smooth="yes"/>
      <point x="487" y="129"/>
      <point x="481" y="116"/>
      <point x="480" y="105" type="curve"/>
      <point x="458" y="105" type="line"/>
      <point x="460" y="131"/>
      <point x="475" y="144"/>
      <point x="503" y="144" type="curve" smooth="yes"/>
      <point x="529" y="144"/>
      <point x="544" y="130"/>
    </contour>
    <contour>
      <point x="936.001" y="172" type="curve" smooth="yes"/>
      <point x="936.001" y="228"/>
      <point x="890.001" y="274"/>
      <point x="834.001" y="274" type="curve" smooth="yes"/>
      <point x="778.001" y="274"/>
      <point x="732.001" y="228"/>
      <point x="732.001" y="172" type="curve" smooth="yes"/>
      <point x="732.001" y="116"/>
      <point x="778.001" y="70"/>
      <point x="834.001" y="70" type="curve" smooth="yes"/>
      <point x="890.001" y="70"/>
      <point x="936.001" y="116"/>
    </contour>
  </outline>
</glyph>
<glyph name="uni120F" format="2">
  <advance width="1243"/>
  <unicode hex="120F"/>
  <outline>
    <contour>
      <point x="1143.02" y="213.197" type="line" smooth="yes"/>
      <point x="1143.02" y="194.197"/>
      <point x="1127.01" y="178.147"/>
      <point x="1108" y="178.176" type="curve" smooth="yes"/>
      <point x="307.44" y="179.405" type="line" smooth="yes"/>
      <point x="288.431" y="179.434"/>
      <point x="272.419" y="195.425"/>
      <point x="272.419" y="214.425" type="curve" smooth="yes"/>
      <point x="272.419" y="215.449" type="line" smooth="yes"/>
      <point x="272.419" y="234.449"/>
      <point x="288.44" y="249.495"/>
      <point x="307.44" y="249.446" type="curve" smooth="yes"/>
      <point x="649.251" y="248.578" type="line"/>
      <point x="649.251" y="799.949" type="line" smooth="yes"/>
      <point x="649.251" y="978.952"/>
      <point x="505.276" y="1153.02"/>
      <point x="505.276" y="1153.02" type="curve"/>
      <point x="177.023" y="973.089"/>
      <point x="129.578" y="802.839"/>
      <point x="120.662" y="382.976" type="curve" smooth="yes"/>
      <point x="120.259" y="363.978"/>
      <point x="104.641" y="347.955"/>
      <point x="85.6414" y="347.955" type="curve" smooth="yes"/>
      <point x="66.6414" y="347.955"/>
      <point x="49.6299" y="367.05"/>
      <point x="50.0061" y="386.048" type="curve" smooth="yes"/>
      <point x="58.2261" y="801.019"/>
      <point x="108.5" y="1026.84"/>
      <point x="466.364" y="1205.04" type="curve"/>
      <point x="466.364" y="1205.04"/>
      <point x="437.35" y="1259.13"/>
      <point x="385.264" y="1325.06" type="curve" smooth="yes"/>
      <point x="373.356" y="1340.13"/>
      <point x="376.408" y="1362"/>
      <point x="391.408" y="1374" type="curve" smooth="yes"/>
      <point x="406.408" y="1386"/>
      <point x="427.423" y="1384.12"/>
      <point x="440.355" y="1368.06" type="curve" smooth="yes"/>
      <point x="609.416" y="1158.13"/>
      <point x="719.292" y="944.975"/>
      <point x="719.292" y="834.97" type="curve" smooth="yes"/>
      <point x="719.292" y="248.414" type="line"/>
      <point x="1108" y="248.218" type="line" smooth="yes"/>
      <point x="1127" y="248.208"/>
      <point x="1143.02" y="233.221"/>
      <point x="1143.02" y="214.221" type="curve" smooth="yes"/>
    </contour>
    <contour>
      <point x="615" y="1368" type="line"/>
      <point x="594" y="1368" type="line"/>
      <point x="594" y="1469" type="line"/>
      <point x="587" y="1463"/>
      <point x="573" y="1456"/>
      <point x="565" y="1454" type="curve"/>
      <point x="565" y="1473" type="line"/>
      <point x="574" y="1477"/>
      <point x="590" y="1490"/>
      <point x="594" y="1494" type="curve"/>
      <point x="615" y="1494" type="line"/>
    </contour>
    <contour>
      <point x="297" y="1339" type="curve" smooth="yes"/>
      <point x="297" y="1310"/>
      <point x="270" y="1290"/>
      <point x="230" y="1264" type="curve"/>
      <point x="294" y="1264" type="line"/>
      <point x="294" y="1244" type="line"/>
      <point x="209" y="1244" type="line"/>
      <point x="209" y="1262" type="line"/>
      <point x="260" y="1303"/>
      <point x="275" y="1322"/>
      <point x="275" y="1339" type="curve" smooth="yes"/>
      <point x="275" y="1347"/>
      <point x="271" y="1359"/>
      <point x="256" y="1359" type="curve" smooth="yes"/>
      <point x="240" y="1359"/>
      <point x="234" y="1346"/>
      <point x="233" y="1335" type="curve"/>
      <point x="211" y="1335" type="line"/>
      <point x="213" y="1361"/>
      <point x="228" y="1374"/>
      <point x="256" y="1374" type="curve" smooth="yes"/>
      <point x="282" y="1374"/>
      <point x="297" y="1360"/>
    </contour>
    <contour>
      <point x="829" y="410.026" type="line"/>
      <point x="796" y="353.026" type="line"/>
      <point x="763" y="410.026" type="line"/>
      <point x="782" y="410.026" type="line"/>
      <point x="782" y="835" type="line" smooth="yes"/>
      <point x="782" y="968.004"/>
      <point x="658" y="1196"/>
      <point x="490" y="1406" type="curve"/>
      <point x="513" y="1424" type="line"/>
      <point x="682" y="1215"/>
      <point x="812" y="980.005"/>
      <point x="812" y="835" type="curve" smooth="yes"/>
      <point x="812" y="410.026" type="line"/>
    </contour>
    <contour>
      <point x="369" y="1219" type="line"/>
      <point x="42" y="1028"/>
      <point x="1" y="758"/>
      <point x="-9" y="416" type="curve"/>
      <point x="10" y="416" type="line"/>
      <point x="-23" y="359" type="line"/>
      <point x="-56" y="416" type="line"/>
      <point x="-39" y="416" type="line"/>
      <point x="-35" y="547"/>
      <point x="-25.609" y="678.923"/>
      <point x="7" y="803" type="curve" smooth="yes"/>
      <point x="56.364" y="990.829"/>
      <point x="159" y="1131"/>
      <point x="354" y="1245" type="curve"/>
    </contour>
    <contour>
      <point x="1118.46" y="86.515" type="line"/>
      <point x="1061.46" y="53.515" type="line"/>
      <point x="1061.45" y="71.7533" type="line"/>
      <point x="299.06" y="71.761" type="line"/>
      <point x="299.06" y="101.761" type="line"/>
      <point x="1061.45" y="101.752" type="line"/>
      <point x="1061.46" y="119.515" type="line"/>
    </contour>
    <contour>
      <point x="247.882" y="56.1945" type="curve" smooth="yes"/>
      <point x="247.882" y="37.1945"/>
      <point x="233.882" y="18.1945"/>
      <point x="201.882" y="18.1945" type="curve" smooth="yes"/>
      <point x="168.882" y="18.1945"/>
      <point x="160.882" y="38.1945"/>
      <point x="160.882" y="54.1945" type="curve"/>
      <point x="182.882" y="54.1945" type="line"/>
      <point x="182.882" y="42.1945"/>
      <point x="190.882" y="34.1945"/>
      <point x="202.882" y="34.1945" type="curve" smooth="yes"/>
      <point x="214.882" y="34.1945"/>
      <point x="225.882" y="42.1945"/>
      <point x="225.882" y="56.1945" type="curve" smooth="yes"/>
      <point x="225.882" y="61.1945"/>
      <point x="221.882" y="78.1945"/>
      <point x="203.882" y="78.1945" type="curve" smooth="yes"/>
      <point x="192.882" y="78.1945" type="line"/>
      <point x="192.882" y="92.1945" type="line"/>
      <point x="220.882" y="92.1945"/>
      <point x="222.882" y="104.194"/>
      <point x="222.882" y="114.194" type="curve" smooth="yes"/>
      <point x="222.882" y="123.194"/>
      <point x="218.882" y="133.194"/>
      <point x="205.882" y="133.194" type="curve" smooth="yes"/>
      <point x="191.882" y="133.194"/>
      <point x="185.882" y="127.194"/>
      <point x="184.882" y="115.194" type="curve"/>
      <point x="162.882" y="115.194" type="line"/>
      <point x="163.882" y="137.194"/>
      <point x="181.882" y="148.194"/>
      <point x="204.882" y="148.194" type="curve" smooth="yes"/>
      <point x="226.882" y="148.194"/>
      <point x="244.882" y="136.194"/>
      <point x="244.882" y="114.194" type="curve" smooth="yes"/>
      <point x="244.882" y="95.1945"/>
      <point x="232.882" y="90.1945"/>
      <point x="221.882" y="86.1945" type="curve"/>
      <point x="232.882" y="83.1945"/>
      <point x="247.882" y="74.1945"/>
    </contour>
  </outline>
</glyph>
<glyph name="uni1210" format="2">
  <advance width="1118"/>
  <unicode hex="1210"/>
  <outline>
    <contour>
      <point x="445" y="1244" type="line"/>
      <point x="424" y="1244" type="line"/>
      <point x="424" y="1345" type="line"/>
      <point x="417" y="1339"/>
      <point x="403" y="1332"/>
      <point x="395" y="1330" type="curve"/>
      <point x="395" y="1349" type="line"/>
      <point x="404" y="1353"/>
      <point x="420" y="1366"/>
      <point x="424" y="1370" type="curve"/>
      <point x="445" y="1370" type="line"/>
    </contour>
    <contour>
      <point x="395" y="1041" type="curve" smooth="yes"/>
      <point x="395" y="1012"/>
      <point x="368" y="992"/>
      <point x="328" y="966" type="curve"/>
      <point x="392" y="966" type="line"/>
      <point x="392" y="946" type="line"/>
      <point x="307" y="946" type="line"/>
      <point x="307" y="964" type="line"/>
      <point x="358" y="1005"/>
      <point x="373" y="1024"/>
      <point x="373" y="1041" type="curve" smooth="yes"/>
      <point x="373" y="1049"/>
      <point x="369" y="1061"/>
      <point x="354" y="1061" type="curve" smooth="yes"/>
      <point x="338" y="1061"/>
      <point x="332" y="1048"/>
      <point x="331" y="1037" type="curve"/>
      <point x="309" y="1037" type="line"/>
      <point x="311" y="1063"/>
      <point x="326" y="1076"/>
      <point x="354" y="1076" type="curve" smooth="yes"/>
      <point x="380" y="1076"/>
      <point x="395" y="1062"/>
    </contour>
    <contour>
      <point x="748" y="547" type="curve" smooth="yes"/>
      <point x="748" y="528"/>
      <point x="734" y="509"/>
      <point x="702" y="509" type="curve" smooth="yes"/>
      <point x="669" y="509"/>
      <point x="661" y="529"/>
      <point x="661" y="545" type="curve"/>
      <point x="683" y="545" type="line"/>
      <point x="683" y="533"/>
      <point x="691" y="525"/>
      <point x="703" y="525" type="curve" smooth="yes"/>
      <point x="715" y="525"/>
      <point x="726" y="533"/>
      <point x="726" y="547" type="curve" smooth="yes"/>
      <point x="726" y="552"/>
      <point x="722" y="569"/>
      <point x="704" y="569" type="curve" smooth="yes"/>
      <point x="693" y="569" type="line"/>
      <point x="693" y="583" type="line"/>
      <point x="721" y="583"/>
      <point x="723" y="595"/>
      <point x="723" y="605" type="curve" smooth="yes"/>
      <point x="723" y="614"/>
      <point x="719" y="624"/>
      <point x="706" y="624" type="curve" smooth="yes"/>
      <point x="692" y="624"/>
      <point x="686" y="618"/>
      <point x="685" y="606" type="curve"/>
      <point x="663" y="606" type="line"/>
      <point x="664" y="628"/>
      <point x="682" y="639"/>
      <point x="705" y="639" type="curve" smooth="yes"/>
      <point x="727" y="639"/>
      <point x="745" y="627"/>
      <point x="745" y="605" type="curve" smooth="yes"/>
      <point x="745" y="586"/>
      <point x="733" y="581"/>
      <point x="722" y="577" type="curve"/>
      <point x="733" y="574"/>
      <point x="748" y="565"/>
    </contour>
    <contour>
      <point x="1018.18" y="35" type="line" smooth="yes"/>
      <point x="1018.18" y="16"/>
      <point x="1002.18" y="0"/>
      <point x="983.18" y="0" type="curve" smooth="yes"/>
      <point x="963.18" y="0"/>
      <point x="948.18" y="16"/>
      <point x="948.18" y="35" type="curve" smooth="yes"/>
      <point x="948.18" y="582" type="line" smooth="yes"/>
      <point x="948.18" y="746.007"/>
      <point x="879.54" y="778.687"/>
      <point x="696.18" y="774" type="curve" smooth="yes"/>
      <point x="603.407" y="771.629" type="line"/>
      <point x="538.91" y="34.4402" type="line" smooth="yes"/>
      <point x="537.254" y="15.5127"/>
      <point x="519.896" y="0.972974"/>
      <point x="500.993" y="2.62377" type="curve"/>
      <point x="499.997" y="2.71077" type="line"/>
      <point x="481.093" y="4.36157"/>
      <point x="466.524" y="21.7008"/>
      <point x="468.18" y="40.6283" type="curve" smooth="yes"/>
      <point x="532.677" y="777.817" type="line"/>
      <point x="246.529" y="777.817"/>
      <point x="113.986" y="584.084"/>
      <point x="120.18" y="34.9196" type="curve" smooth="yes"/>
      <point x="120.705" y="-11.7027"/>
      <point x="50.7099" y="-12.4935"/>
      <point x="50.1841" y="34.13" type="curve" smooth="yes"/>
      <point x="43.8993" y="591.373"/>
      <point x="198.588" y="847.551"/>
      <point x="538.778" y="847.551" type="curve"/>
      <point x="584.449" y="1369.56" type="line" smooth="yes"/>
      <point x="586.105" y="1388.49"/>
      <point x="603.463" y="1403.03"/>
      <point x="622.367" y="1401.38" type="curve"/>
      <point x="623.363" y="1401.29" type="line"/>
      <point x="642.267" y="1399.64"/>
      <point x="656.835" y="1382.3"/>
      <point x="655.179" y="1363.37" type="curve" smooth="yes"/>
      <point x="609.509" y="841.363" type="line"/>
      <point x="694.18" y="845" type="line" smooth="yes"/>
      <point x="873.025" y="852.683"/>
      <point x="1018.18" y="819.006"/>
      <point x="1018.18" y="613" type="curve" smooth="yes"/>
    </contour>
    <contour>
      <point x="905" y="57" type="line"/>
      <point x="872" y="0" type="line"/>
      <point x="839" y="57" type="line"/>
      <point x="858.177" y="57" type="line"/>
      <point x="858.179" y="582" type="line" smooth="yes"/>
      <point x="858.179" y="634.901"/>
      <point x="854.54" y="656.258"/>
      <point x="838.564" y="668.054" type="curve" smooth="yes"/>
      <point x="808.037" y="690.593"/>
      <point x="711.579" y="684.362"/>
      <point x="672.666" y="683.373" type="curve"/>
      <point x="671.903" y="713.363" type="line"/>
      <point x="719.213" y="714.566"/>
      <point x="816.371" y="721.733"/>
      <point x="856.386" y="692.187" type="curve" smooth="yes"/>
      <point x="886.726" y="669.784"/>
      <point x="888.18" y="630.524"/>
      <point x="888.179" y="582" type="curve" smooth="yes"/>
      <point x="888.177" y="57" type="line"/>
    </contour>
    <contour>
      <point x="519" y="1360" type="line"/>
      <point x="409.469" y="58.4091" type="line"/>
      <point x="425.359" y="57.0156" type="line"/>
      <point x="387.516" y="3.10831" type="line"/>
      <point x="359.609" y="62.7681" type="line"/>
      <point x="379.585" y="61.0141" type="line"/>
      <point x="489.114" y="1362.62" type="line"/>
    </contour>
    <contour>
      <point x="422.931" y="897.497" type="line"/>
      <point x="115.617" y="840.79"/>
      <point x="-10.9563" y="545.955"/>
      <point x="-9.99425" y="59.9983" type="curve"/>
      <point x="8" y="60" type="line"/>
      <point x="-25" y="3" type="line"/>
      <point x="-58" y="60" type="line"/>
      <point x="-39.9932" y="59.9982" type="line"/>
      <point x="-40.898" y="547.352"/>
      <point x="86.377" y="865.965"/>
      <point x="416.949" y="926.927" type="curve"/>
    </contour>
  </outline>
</glyph>
<glyph name="uni1212" format="2">
  <advance width="1551"/>
  <unicode hex="1212"/>
  <outline>
    <contour>
      <point x="445" y="1244" type="line"/>
      <point x="424" y="1244" type="line"/>
      <point x="424" y="1345" type="line"/>
      <point x="417" y="1339"/>
      <point x="403" y="1332"/>
      <point x="395" y="1330" type="curve"/>
      <point x="395" y="1349" type="line"/>
      <point x="404" y="1353"/>
      <point x="420" y="1366"/>
      <point x="424" y="1370" type="curve"/>
      <point x="445" y="1370" type="line"/>
    </contour>
    <contour>
      <point x="1451.18" y="35" type="curve" smooth="yes"/>
      <point x="1451.18" y="16"/>
      <point x="1435.18" y="0"/>
      <point x="1416.18" y="0" type="curve" smooth="yes"/>
      <point x="982.179" y="0" type="line" smooth="yes"/>
      <point x="962.179" y="0"/>
      <point x="948.179" y="16"/>
      <point x="948.179" y="35" type="curve" smooth="yes"/>
      <point x="948.179" y="582" type="line" smooth="yes"/>
      <point x="948.179" y="746.007"/>
      <point x="879.332" y="778.681"/>
      <point x="696.179" y="774" type="curve" smooth="yes"/>
      <point x="603.407" y="771.629" type="line"/>
      <point x="538.91" y="34.4402" type="line" smooth="yes"/>
      <point x="537.254" y="15.5127"/>
      <point x="519.909" y="0.971974"/>
      <point x="500.993" y="2.62377" type="curve"/>
      <point x="499.996" y="2.71077" type="line"/>
      <point x="481.08" y="4.36247"/>
      <point x="466.524" y="21.7007"/>
      <point x="468.18" y="40.6282" type="curve" smooth="yes"/>
      <point x="532.677" y="777.817" type="line"/>
      <point x="246.522" y="777.817"/>
      <point x="113.986" y="584.084"/>
      <point x="120.179" y="34.9195" type="curve" smooth="yes"/>
      <point x="120.705" y="-11.6988"/>
      <point x="50.7098" y="-12.4895"/>
      <point x="50.184" y="34.13" type="curve" smooth="yes"/>
      <point x="43.8995" y="591.373"/>
      <point x="198.596" y="847.551"/>
      <point x="538.778" y="847.551" type="curve"/>
      <point x="584.449" y="1369.56" type="line" smooth="yes"/>
      <point x="586.105" y="1388.49"/>
      <point x="603.45" y="1403.03"/>
      <point x="622.367" y="1401.38" type="curve"/>
      <point x="623.363" y="1401.29" type="line"/>
      <point x="642.28" y="1399.64"/>
      <point x="656.835" y="1382.3"/>
      <point x="655.179" y="1363.37" type="curve" smooth="yes"/>
      <point x="609.509" y="841.363" type="line"/>
      <point x="694.18" y="845" type="line" smooth="yes"/>
      <point x="873.025" y="852.683"/>
      <point x="1018.18" y="819.009"/>
      <point x="1018.18" y="613" type="curve" smooth="yes"/>
      <point x="1018.18" y="70" type="line"/>
      <point x="1416.18" y="70" type="line" smooth="yes"/>
      <point x="1435.18" y="70"/>
      <point x="1451.18" y="55"/>
    </contour>
    <contour>
      <point x="395" y="1041" type="curve" smooth="yes"/>
      <point x="395" y="1012"/>
      <point x="368" y="992"/>
      <point x="328" y="966" type="curve"/>
      <point x="392" y="966" type="line"/>
      <point x="392" y="946" type="line"/>
      <point x="307" y="946" type="line"/>
      <point x="307" y="964" type="line"/>
      <point x="358" y="1005"/>
      <point x="373" y="1024"/>
      <point x="373" y="1041" type="curve" smooth="yes"/>
      <point x="373" y="1049"/>
      <point x="369" y="1061"/>
      <point x="354" y="1061" type="curve" smooth="yes"/>
      <point x="338" y="1061"/>
      <point x="332" y="1048"/>
      <point x="331" y="1037" type="curve"/>
      <point x="309" y="1037" type="line"/>
      <point x="311" y="1063"/>
      <point x="326" y="1076"/>
      <point x="354" y="1076" type="curve" smooth="yes"/>
      <point x="380" y="1076"/>
      <point x="395" y="1062"/>
    </contour>
    <contour>
      <point x="748" y="547" type="curve" smooth="yes"/>
      <point x="748" y="528"/>
      <point x="734" y="509"/>
      <point x="702" y="509" type="curve" smooth="yes"/>
      <point x="669" y="509"/>
      <point x="661" y="529"/>
      <point x="661" y="545" type="curve"/>
      <point x="683" y="545" type="line"/>
      <point x="683" y="533"/>
      <point x="691" y="525"/>
      <point x="703" y="525" type="curve" smooth="yes"/>
      <point x="715" y="525"/>
      <point x="726" y="533"/>
      <point x="726" y="547" type="curve" smooth="yes"/>
      <point x="726" y="552"/>
      <point x="722" y="569"/>
      <point x="704" y="569" type="curve" smooth="yes"/>
      <point x="693" y="569" type="line"/>
      <point x="693" y="583" type="line"/>
      <point x="721" y="583"/>
      <point x="723" y="595"/>
      <point x="723" y="605" type="curve" smooth="yes"/>
      <point x="723" y="614"/>
      <point x="719" y="624"/>
      <point x="706" y="624" type="curve" smooth="yes"/>
      <point x="692" y="624"/>
      <point x="686" y="618"/>
      <point x="685" y="606" type="curve"/>
      <point x="663" y="606" type="line"/>
      <point x="664" y="628"/>
      <point x="682" y="639"/>
      <point x="705" y="639" type="curve" smooth="yes"/>
      <point x="727" y="639"/>
      <point x="745" y="627"/>
      <point x="745" y="605" type="curve" smooth="yes"/>
      <point x="745" y="586"/>
      <point x="733" y="581"/>
      <point x="722" y="577" type="curve"/>
      <point x="733" y="574"/>
      <point x="748" y="565"/>
    </contour>
    <contour>
      <point x="1418" y="-88" type="line"/>
      <point x="1361" y="-121" type="line"/>
      <point x="1361" y="-102.762" type="line"/>
      <point x="1058.01" y="-102.754" type="line"/>
      <point x="1058.01" y="-72.7539" type="line"/>
      <point x="1361" y="-72.7626" type="line"/>
      <point x="1361" y="-55" type="line"/>
    </contour>
    <contour>
      <point x="905" y="57" type="line"/>
      <point x="872" y="0" type="line"/>
      <point x="839" y="57" type="line"/>
      <point x="858.177" y="57" type="line"/>
      <point x="858.179" y="582" type="line" smooth="yes"/>
      <point x="858.179" y="634.901"/>
      <point x="854.54" y="656.258"/>
      <point x="838.565" y="668.054" type="curve" smooth="yes"/>
      <point x="808.035" y="690.594"/>
      <point x="711.579" y="684.362"/>
      <point x="672.666" y="683.373" type="curve"/>
      <point x="671.904" y="713.363" type="line"/>
      <point x="719.213" y="714.566"/>
      <point x="816.371" y="721.732"/>
      <point x="856.386" y="692.187" type="curve" smooth="yes"/>
      <point x="886.724" y="669.786"/>
      <point x="888.18" y="630.524"/>
      <point x="888.179" y="582" type="curve" smooth="yes"/>
      <point x="888.177" y="57" type="line"/>
    </contour>
    <contour>
      <point x="519" y="1360" type="line"/>
      <point x="409.469" y="58.4091" type="line"/>
      <point x="425.359" y="57.0156" type="line"/>
      <point x="387.516" y="3.10831" type="line"/>
      <point x="359.609" y="62.7681" type="line"/>
      <point x="379.585" y="61.0141" type="line"/>
      <point x="489.114" y="1362.62" type="line"/>
    </contour>
    <contour>
      <point x="1012" y="-172" type="line"/>
      <point x="999" y="-172" type="line"/>
      <point x="999" y="-199" type="line"/>
      <point x="978" y="-199" type="line"/>
      <point x="978" y="-172" type="line"/>
      <point x="918" y="-172" type="line"/>
      <point x="918" y="-147" type="line"/>
      <point x="970" y="-72" type="line"/>
      <point x="999" y="-72" type="line"/>
      <point x="999" y="-153" type="line"/>
      <point x="1012" y="-153" type="line"/>
    </contour>
    <contour>
      <point x="422.931" y="897.497" type="line"/>
      <point x="115.617" y="840.79"/>
      <point x="-10.9563" y="545.955"/>
      <point x="-9.99425" y="59.9983" type="curve"/>
      <point x="8" y="60" type="line"/>
      <point x="-25" y="3" type="line"/>
      <point x="-58" y="60" type="line"/>
      <point x="-39.9932" y="59.9982" type="line"/>
      <point x="-40.898" y="547.352"/>
      <point x="86.377" y="865.965"/>
      <point x="416.949" y="926.927" type="curve"/>
    </contour>
    <contour>
      <point x="978" y="-153" type="line"/>
      <point x="978" y="-88" type="line"/>
      <point x="933" y="-153" type="line"/>
    </contour>
  </outline>
</glyph>
<glyph name="uni1213" format="2">
  <advance width="1100"/>
  <unicode hex="1213"/>
  <outline>
    <contour>
      <point x="411" y="1244" type="line"/>
      <point x="390" y="1244" type="line"/>
      <point x="390" y="1345" type="line"/>
      <point x="383" y="1339"/>
      <point x="369" y="1332"/>
      <point x="361" y="1330" type="curve"/>
      <point x="361" y="1349" type="line"/>
      <point x="370" y="1353"/>
      <point x="386" y="1366"/>
      <point x="390" y="1370" type="curve"/>
      <point x="411" y="1370" type="line"/>
    </contour>
    <contour>
      <point x="361" y="1041" type="curve" smooth="yes"/>
      <point x="361" y="1012"/>
      <point x="334" y="992"/>
      <point x="294" y="966" type="curve"/>
      <point x="358" y="966" type="line"/>
      <point x="358" y="946" type="line"/>
      <point x="273" y="946" type="line"/>
      <point x="273" y="964" type="line"/>
      <point x="324" y="1005"/>
      <point x="339" y="1024"/>
      <point x="339" y="1041" type="curve" smooth="yes"/>
      <point x="339" y="1049"/>
      <point x="335" y="1061"/>
      <point x="320" y="1061" type="curve" smooth="yes"/>
      <point x="304" y="1061"/>
      <point x="298" y="1048"/>
      <point x="297" y="1037" type="curve"/>
      <point x="275" y="1037" type="line"/>
      <point x="277" y="1063"/>
      <point x="292" y="1076"/>
      <point x="320" y="1076" type="curve" smooth="yes"/>
      <point x="346" y="1076"/>
      <point x="361" y="1062"/>
    </contour>
    <contour>
      <point x="485" y="1360" type="line"/>
      <point x="405.953" y="456.301" type="line"/>
      <point x="421.843" y="454.907" type="line"/>
      <point x="384" y="401" type="line"/>
      <point x="356.093" y="460.66" type="line"/>
      <point x="376.069" y="458.906" type="line"/>
      <point x="455.114" y="1362.61" type="line"/>
    </contour>
    <contour>
      <point x="714" y="547" type="curve" smooth="yes"/>
      <point x="714" y="528"/>
      <point x="700" y="509"/>
      <point x="668" y="509" type="curve" smooth="yes"/>
      <point x="635" y="509"/>
      <point x="627" y="529"/>
      <point x="627" y="545" type="curve"/>
      <point x="649" y="545" type="line"/>
      <point x="649" y="533"/>
      <point x="657" y="525"/>
      <point x="669" y="525" type="curve" smooth="yes"/>
      <point x="681" y="525"/>
      <point x="692" y="533"/>
      <point x="692" y="547" type="curve" smooth="yes"/>
      <point x="692" y="552"/>
      <point x="688" y="569"/>
      <point x="670" y="569" type="curve" smooth="yes"/>
      <point x="659" y="569" type="line"/>
      <point x="659" y="583" type="line"/>
      <point x="687" y="583"/>
      <point x="689" y="595"/>
      <point x="689" y="605" type="curve" smooth="yes"/>
      <point x="689" y="614"/>
      <point x="685" y="624"/>
      <point x="672" y="624" type="curve" smooth="yes"/>
      <point x="658" y="624"/>
      <point x="652" y="618"/>
      <point x="651" y="606" type="curve"/>
      <point x="629" y="606" type="line"/>
      <point x="630" y="628"/>
      <point x="648" y="639"/>
      <point x="671" y="639" type="curve" smooth="yes"/>
      <point x="693" y="639"/>
      <point x="711" y="627"/>
      <point x="711" y="605" type="curve" smooth="yes"/>
      <point x="711" y="586"/>
      <point x="699" y="581"/>
      <point x="688" y="577" type="curve"/>
      <point x="699" y="574"/>
      <point x="714" y="565"/>
    </contour>
    <contour>
      <point x="999.91" y="35" type="line" smooth="yes"/>
      <point x="999.91" y="16"/>
      <point x="983.91" y="0"/>
      <point x="964.91" y="0" type="curve" smooth="yes"/>
      <point x="944.91" y="0"/>
      <point x="929.91" y="16"/>
      <point x="929.91" y="35" type="curve" smooth="yes"/>
      <point x="929.91" y="582" type="line" smooth="yes"/>
      <point x="929.91" y="746.007"/>
      <point x="860.917" y="776.869"/>
      <point x="677.91" y="774" type="curve" smooth="yes"/>
      <point x="569.667" y="772.303" type="line"/>
      <point x="536.111" y="388.766" type="line" smooth="yes"/>
      <point x="534.452" y="369.808"/>
      <point x="517.093" y="355.299"/>
      <point x="498.193" y="356.949" type="curve"/>
      <point x="497.197" y="357.036" type="line"/>
      <point x="478.297" y="358.686"/>
      <point x="463.722" y="375.996"/>
      <point x="465.381" y="394.954" type="curve" smooth="yes"/>
      <point x="498.936" y="778.491" type="line"/>
      <point x="294.136" y="778.491"/>
      <point x="168.022" y="679.259"/>
      <point x="115.137" y="421.511" type="curve"/>
      <point x="109.141" y="377.486"/>
      <point x="34.9347" y="380.234"/>
      <point x="52.7562" y="447.178" type="curve"/>
      <point x="116.364" y="719.841"/>
      <point x="264.227" y="848.225"/>
      <point x="505.038" y="848.225" type="curve"/>
      <point x="550.708" y="1370.23" type="line" smooth="yes"/>
      <point x="552.364" y="1389.16"/>
      <point x="569.726" y="1403.7"/>
      <point x="588.626" y="1402.05" type="curve"/>
      <point x="589.622" y="1401.96" type="line"/>
      <point x="608.522" y="1400.31"/>
      <point x="623.095" y="1382.97"/>
      <point x="621.439" y="1364.05" type="curve" smooth="yes"/>
      <point x="575.768" y="842.037" type="line"/>
      <point x="675.91" y="845" type="line" smooth="yes"/>
      <point x="855.072" y="850.301"/>
      <point x="999.91" y="819.006"/>
      <point x="999.91" y="613" type="curve" smooth="yes"/>
    </contour>
    <contour>
      <point x="871" y="57" type="line"/>
      <point x="838" y="0" type="line"/>
      <point x="805" y="57" type="line"/>
      <point x="824.177" y="57" type="line"/>
      <point x="824.179" y="582" type="line" smooth="yes"/>
      <point x="824.179" y="634.901"/>
      <point x="820.54" y="656.258"/>
      <point x="804.564" y="668.054" type="curve" smooth="yes"/>
      <point x="774.036" y="690.593"/>
      <point x="677.579" y="684.362"/>
      <point x="638.666" y="683.373" type="curve"/>
      <point x="637.903" y="713.363" type="line"/>
      <point x="685.213" y="714.566"/>
      <point x="782.37" y="721.732"/>
      <point x="822.386" y="692.187" type="curve" smooth="yes"/>
      <point x="852.724" y="669.786"/>
      <point x="854.18" y="630.524"/>
      <point x="854.179" y="582" type="curve" smooth="yes"/>
      <point x="854.177" y="57" type="line"/>
    </contour>
    <contour>
      <point x="388.931" y="897.497" type="line"/>
      <point x="193.934" y="861.515"/>
      <point x="71.706" y="729.659"/>
      <point x="8.65501" y="513.937" type="curve"/>
      <point x="25.8018" y="508.483" type="line"/>
      <point x="-22.9252" y="464.174" type="line"/>
      <point x="-37.0882" y="528.493" type="line"/>
      <point x="-19.9305" y="523.032" type="line"/>
      <point x="45.092" y="747.881"/>
      <point x="172.428" y="888.104"/>
      <point x="382.95" y="926.928" type="curve"/>
    </contour>
  </outline>
</glyph>
<glyph name="uni1215" format="2">
  <advance width="1118"/>
  <unicode hex="1215"/>
  <outline>
    <contour>
      <point x="774" y="1463" type="line"/>
      <point x="761" y="1463" type="line"/>
      <point x="761" y="1436" type="line"/>
      <point x="740" y="1436" type="line"/>
      <point x="740" y="1463" type="line"/>
      <point x="680" y="1463" type="line"/>
      <point x="680" y="1488" type="line"/>
      <point x="732" y="1563" type="line"/>
      <point x="761" y="1563" type="line"/>
      <point x="761" y="1482" type="line"/>
      <point x="774" y="1482" type="line"/>
    </contour>
    <contour>
      <point x="648" y="1520" type="line"/>
      <point x="648" y="1490" type="line"/>
      <point x="258.011" y="1490.01" type="line"/>
      <point x="258.008" y="1472.25" type="line"/>
      <point x="201.008" y="1505.25" type="line"/>
      <point x="258.008" y="1538.25" type="line"/>
      <point x="258.011" y="1520.01" type="line"/>
    </contour>
    <contour>
      <point x="448" y="1151" type="line"/>
      <point x="427" y="1151" type="line"/>
      <point x="427" y="1252" type="line"/>
      <point x="420" y="1246"/>
      <point x="406" y="1239"/>
      <point x="398" y="1237" type="curve"/>
      <point x="398" y="1256" type="line"/>
      <point x="407" y="1260"/>
      <point x="423" y="1273"/>
      <point x="427" y="1277" type="curve"/>
      <point x="448" y="1277" type="line"/>
    </contour>
    <contour>
      <point x="395" y="1041" type="curve" smooth="yes"/>
      <point x="395" y="1012"/>
      <point x="368" y="992"/>
      <point x="328" y="966" type="curve"/>
      <point x="392" y="966" type="line"/>
      <point x="392" y="946" type="line"/>
      <point x="307" y="946" type="line"/>
      <point x="307" y="964" type="line"/>
      <point x="358" y="1005"/>
      <point x="373" y="1024"/>
      <point x="373" y="1041" type="curve" smooth="yes"/>
      <point x="373" y="1049"/>
      <point x="369" y="1061"/>
      <point x="354" y="1061" type="curve" smooth="yes"/>
      <point x="338" y="1061"/>
      <point x="332" y="1048"/>
      <point x="331" y="1037" type="curve"/>
      <point x="309" y="1037" type="line"/>
      <point x="311" y="1063"/>
      <point x="326" y="1076"/>
      <point x="354" y="1076" type="curve" smooth="yes"/>
      <point x="380" y="1076"/>
      <point x="395" y="1062"/>
    </contour>
    <contour>
      <point x="748" y="547" type="curve" smooth="yes"/>
      <point x="748" y="528"/>
      <point x="734" y="509"/>
      <point x="702" y="509" type="curve" smooth="yes"/>
      <point x="669" y="509"/>
      <point x="661" y="529"/>
      <point x="661" y="545" type="curve"/>
      <point x="683" y="545" type="line"/>
      <point x="683" y="533"/>
      <point x="691" y="525"/>
      <point x="703" y="525" type="curve" smooth="yes"/>
      <point x="715" y="525"/>
      <point x="726" y="533"/>
      <point x="726" y="547" type="curve" smooth="yes"/>
      <point x="726" y="552"/>
      <point x="722" y="569"/>
      <point x="704" y="569" type="curve" smooth="yes"/>
      <point x="693" y="569" type="line"/>
      <point x="693" y="583" type="line"/>
      <point x="721" y="583"/>
      <point x="723" y="595"/>
      <point x="723" y="605" type="curve" smooth="yes"/>
      <point x="723" y="614"/>
      <point x="719" y="624"/>
      <point x="706" y="624" type="curve" smooth="yes"/>
      <point x="692" y="624"/>
      <point x="686" y="618"/>
      <point x="685" y="606" type="curve"/>
      <point x="663" y="606" type="line"/>
      <point x="664" y="628"/>
      <point x="682" y="639"/>
      <point x="705" y="639" type="curve" smooth="yes"/>
      <point x="727" y="639"/>
      <point x="745" y="627"/>
      <point x="745" y="605" type="curve" smooth="yes"/>
      <point x="745" y="586"/>
      <point x="733" y="581"/>
      <point x="722" y="577" type="curve"/>
      <point x="733" y="574"/>
      <point x="748" y="565"/>
    </contour>
    <contour>
      <point x="1018.18" y="35" type="line" smooth="yes"/>
      <point x="1018.18" y="16"/>
      <point x="1002.18" y="0"/>
      <point x="983.18" y="0" type="curve" smooth="yes"/>
      <point x="963.18" y="0"/>
      <point x="948.18" y="16"/>
      <point x="948.18" y="35" type="curve" smooth="yes"/>
      <point x="948.18" y="582" type="line" smooth="yes"/>
      <point x="948.18" y="746.007"/>
      <point x="879.38" y="778.683"/>
      <point x="696.18" y="774" type="curve" smooth="yes"/>
      <point x="603.407" y="771.629" type="line"/>
      <point x="538.91" y="34.4402" type="line" smooth="yes"/>
      <point x="537.254" y="15.5127"/>
      <point x="519.906" y="0.972224"/>
      <point x="500.993" y="2.62372" type="curve"/>
      <point x="499.997" y="2.71072" type="line"/>
      <point x="481.083" y="4.36222"/>
      <point x="466.524" y="21.7007"/>
      <point x="468.18" y="40.6282" type="curve" smooth="yes"/>
      <point x="532.677" y="777.817" type="line"/>
      <point x="246.522" y="777.817"/>
      <point x="113.987" y="584.102"/>
      <point x="120.18" y="34.9195" type="curve" smooth="yes"/>
      <point x="120.705" y="-11.6923"/>
      <point x="50.7096" y="-12.4806"/>
      <point x="50.1841" y="34.1299" type="curve" smooth="yes"/>
      <point x="43.9003" y="591.361"/>
      <point x="198.596" y="847.551"/>
      <point x="538.778" y="847.551" type="curve"/>
      <point x="581.399" y="1334.69" type="line"/>
      <point x="223.605" y="1334" type="line" smooth="yes"/>
      <point x="204.605" y="1333.96"/>
      <point x="188.605" y="1350"/>
      <point x="188.605" y="1369" type="curve" smooth="yes"/>
      <point x="188.605" y="1389"/>
      <point x="204.604" y="1404.12"/>
      <point x="223.605" y="1404" type="curve" smooth="yes"/>
      <point x="622.367" y="1401.38" type="line"/>
      <point x="623.363" y="1401.29" type="line"/>
      <point x="642.277" y="1399.64"/>
      <point x="656.835" y="1382.3"/>
      <point x="655.179" y="1363.37" type="curve" smooth="yes"/>
      <point x="609.509" y="841.363" type="line"/>
      <point x="694.18" y="845" type="line" smooth="yes"/>
      <point x="873.025" y="852.683"/>
      <point x="1018.18" y="819.006"/>
      <point x="1018.18" y="613" type="curve" smooth="yes"/>
    </contour>
    <contour>
      <point x="905" y="57" type="line"/>
      <point x="872" y="0" type="line"/>
      <point x="839" y="57" type="line"/>
      <point x="858.177" y="57" type="line"/>
      <point x="858.179" y="582" type="line" smooth="yes"/>
      <point x="858.179" y="634.901"/>
      <point x="854.541" y="656.258"/>
      <point x="838.565" y="668.054" type="curve" smooth="yes"/>
      <point x="808.036" y="690.594"/>
      <point x="711.579" y="684.362"/>
      <point x="672.666" y="683.373" type="curve"/>
      <point x="671.903" y="713.363" type="line"/>
      <point x="719.213" y="714.566"/>
      <point x="816.371" y="721.732"/>
      <point x="856.386" y="692.187" type="curve" smooth="yes"/>
      <point x="886.724" y="669.786"/>
      <point x="888.18" y="630.524"/>
      <point x="888.179" y="582" type="curve" smooth="yes"/>
      <point x="888.177" y="57" type="line"/>
    </contour>
    <contour>
      <point x="513" y="1264" type="line"/>
      <point x="409.469" y="58.4091" type="line"/>
      <point x="425.359" y="57.0156" type="line"/>
      <point x="387.516" y="3.10831" type="line"/>
      <point x="359.609" y="62.7681" type="line"/>
      <point x="379.585" y="61.0141" type="line"/>
      <point x="483.114" y="1266.62" type="line"/>
    </contour>
    <contour>
      <point x="422.931" y="897.497" type="line"/>
      <point x="115.617" y="840.79"/>
      <point x="-10.9563" y="545.955"/>
      <point x="-9.99425" y="59.9983" type="curve"/>
      <point x="8" y="60" type="line"/>
      <point x="-25" y="3" type="line"/>
      <point x="-58" y="60" type="line"/>
      <point x="-39.9932" y="59.9982" type="line"/>
      <point x="-40.898" y="547.352"/>
      <point x="86.377" y="865.965"/>
      <point x="416.949" y="926.927" type="curve"/>
    </contour>
    <contour>
      <point x="740" y="1482" type="line"/>
      <point x="740" y="1547" type="line"/>
      <point x="695" y="1482" type="line"/>
    </contour>
  </outline>
</glyph>
<glyph name="uni1217" format="2">
  <advance width="1523"/>
  <unicode hex="1217"/>
  <outline>
    <contour>
      <point x="1422.94" y="213.197" type="line" smooth="yes"/>
      <point x="1422.94" y="194.197"/>
      <point x="1406.93" y="178.147"/>
      <point x="1387.91" y="178.176" type="curve" smooth="yes"/>
      <point x="587.351" y="179.405" type="line" smooth="yes"/>
      <point x="568.333" y="179.434"/>
      <point x="552.33" y="195.425"/>
      <point x="552.33" y="214.425" type="curve" smooth="yes"/>
      <point x="552.33" y="215.449" type="line" smooth="yes"/>
      <point x="552.33" y="234.449"/>
      <point x="568.351" y="249.492"/>
      <point x="587.351" y="249.446" type="curve" smooth="yes"/>
      <point x="929.162" y="248.627" type="line"/>
      <point x="929.572" y="582.041" type="line" smooth="yes"/>
      <point x="929.773" y="746.044"/>
      <point x="860.492" y="776.712"/>
      <point x="677.463" y="773.939" type="curve" smooth="yes"/>
      <point x="569.329" y="772.301" type="line"/>
      <point x="535.742" y="388.71" type="line" smooth="yes"/>
      <point x="534.082" y="369.749"/>
      <point x="516.823" y="356.966"/>
      <point x="497.854" y="356.966" type="curve" smooth="yes"/>
      <point x="496.83" y="356.966" type="line" smooth="yes"/>
      <point x="477.861" y="356.966"/>
      <point x="463.221" y="375.893"/>
      <point x="464.881" y="394.854" type="curve" smooth="yes"/>
      <point x="498.468" y="778.445" type="line"/>
      <point x="293.667" y="778.445"/>
      <point x="165.061" y="679.731"/>
      <point x="114.673" y="421.478" type="curve" smooth="yes"/>
      <point x="106.163" y="377.864"/>
      <point x="36.261" y="379.713"/>
      <point x="52.4135" y="447.078" type="curve" smooth="yes"/>
      <point x="117.695" y="719.343"/>
      <point x="263.802" y="848.281"/>
      <point x="504.612" y="848.281" type="curve"/>
      <point x="550.282" y="1370.32" type="line" smooth="yes"/>
      <point x="551.938" y="1389.25"/>
      <point x="569.201" y="1402.06"/>
      <point x="588.17" y="1402.06" type="curve" smooth="yes"/>
      <point x="589.194" y="1402.06" type="line" smooth="yes"/>
      <point x="608.163" y="1402.06"/>
      <point x="622.595" y="1382.9"/>
      <point x="620.938" y="1363.97" type="curve" smooth="yes"/>
      <point x="575.268" y="842.137" type="line"/>
      <point x="675.415" y="845.005" type="line" smooth="yes"/>
      <point x="854.589" y="850.134"/>
      <point x="999.524" y="818.966"/>
      <point x="999.409" y="612.966" type="curve" smooth="yes"/>
      <point x="999.204" y="248.422" type="line"/>
      <point x="1387.91" y="248.217" type="line" smooth="yes"/>
      <point x="1406.91" y="248.207"/>
      <point x="1422.94" y="233.221"/>
      <point x="1422.94" y="214.221" type="curve" smooth="yes"/>
    </contour>
    <contour>
      <point x="411" y="1244" type="line"/>
      <point x="390" y="1244" type="line"/>
      <point x="390" y="1345" type="line"/>
      <point x="383" y="1339"/>
      <point x="369" y="1332"/>
      <point x="361" y="1330" type="curve"/>
      <point x="361" y="1349" type="line"/>
      <point x="370" y="1353"/>
      <point x="386" y="1366"/>
      <point x="390" y="1370" type="curve"/>
      <point x="411" y="1370" type="line"/>
    </contour>
    <contour>
      <point x="361" y="1041" type="curve" smooth="yes"/>
      <point x="361" y="1012"/>
      <point x="334" y="992"/>
      <point x="294" y="966" type="curve"/>
      <point x="358" y="966" type="line"/>
      <point x="358" y="946" type="line"/>
      <point x="273" y="946" type="line"/>
      <point x="273" y="964" type="line"/>
      <point x="324" y="1005"/>
      <point x="339" y="1024"/>
      <point x="339" y="1041" type="curve" smooth="yes"/>
      <point x="339" y="1049"/>
      <point x="335" y="1061"/>
      <point x="320" y="1061" type="curve" smooth="yes"/>
      <point x="304" y="1061"/>
      <point x="298" y="1048"/>
      <point x="297" y="1037" type="curve"/>
      <point x="275" y="1037" type="line"/>
      <point x="277" y="1063"/>
      <point x="292" y="1076"/>
      <point x="320" y="1076" type="curve" smooth="yes"/>
      <point x="346" y="1076"/>
      <point x="361" y="1062"/>
    </contour>
    <contour>
      <point x="485" y="1360" type="line"/>
      <point x="406" y="456" type="line"/>
      <point x="422" y="455" type="line"/>
      <point x="384" y="401" type="line"/>
      <point x="356" y="461" type="line"/>
      <point x="376" y="459" type="line"/>
      <point x="455" y="1363" type="line"/>
    </contour>
    <contour>
      <point x="871" y="397.625" type="line"/>
      <point x="838" y="340.625" type="line"/>
      <point x="805" y="397.625" type="line"/>
      <point x="824" y="397.625" type="line"/>
      <point x="824" y="582" type="line" smooth="yes"/>
      <point x="824" y="635.002"/>
      <point x="821.045" y="656.053"/>
      <point x="805" y="668" type="curve" smooth="yes"/>
      <point x="774.038" y="691.055"/>
      <point x="678" y="684"/>
      <point x="639" y="683" type="curve"/>
      <point x="638" y="713" type="line"/>
      <point x="685" y="715"/>
      <point x="781.659" y="721.545"/>
      <point x="822" y="692" type="curve" smooth="yes"/>
      <point x="852.667" y="669.54"/>
      <point x="854" y="631.002"/>
      <point x="854" y="582" type="curve" smooth="yes"/>
      <point x="854" y="397.624" type="line"/>
    </contour>
    <contour>
      <point x="714" y="547" type="curve" smooth="yes"/>
      <point x="714" y="528"/>
      <point x="700" y="509"/>
      <point x="668" y="509" type="curve" smooth="yes"/>
      <point x="635" y="509"/>
      <point x="627" y="529"/>
      <point x="627" y="545" type="curve"/>
      <point x="649" y="545" type="line"/>
      <point x="649" y="533"/>
      <point x="657" y="525"/>
      <point x="669" y="525" type="curve" smooth="yes"/>
      <point x="681" y="525"/>
      <point x="692" y="533"/>
      <point x="692" y="547" type="curve" smooth="yes"/>
      <point x="692" y="552"/>
      <point x="688" y="569"/>
      <point x="670" y="569" type="curve" smooth="yes"/>
      <point x="659" y="569" type="line"/>
      <point x="659" y="583" type="line"/>
      <point x="687" y="583"/>
      <point x="689" y="595"/>
      <point x="689" y="605" type="curve" smooth="yes"/>
      <point x="689" y="614"/>
      <point x="685" y="624"/>
      <point x="672" y="624" type="curve" smooth="yes"/>
      <point x="658" y="624"/>
      <point x="652" y="618"/>
      <point x="651" y="606" type="curve"/>
      <point x="629" y="606" type="line"/>
      <point x="630" y="628"/>
      <point x="648" y="639"/>
      <point x="671" y="639" type="curve" smooth="yes"/>
      <point x="693" y="639"/>
      <point x="711" y="627"/>
      <point x="711" y="605" type="curve" smooth="yes"/>
      <point x="711" y="586"/>
      <point x="699" y="581"/>
      <point x="688" y="577" type="curve"/>
      <point x="699" y="574"/>
      <point x="714" y="565"/>
    </contour>
    <contour>
      <point x="1421.7" y="86.515" type="line"/>
      <point x="1364.7" y="53.515" type="line"/>
      <point x="1364.69" y="71.7533" type="line"/>
      <point x="602.301" y="71.761" type="line"/>
      <point x="602.302" y="101.761" type="line"/>
      <point x="1364.69" y="101.752" type="line"/>
      <point x="1364.7" y="119.515" type="line"/>
    </contour>
    <contour>
      <point x="389" y="897" type="line"/>
      <point x="194" y="862"/>
      <point x="72" y="730"/>
      <point x="9" y="514" type="curve"/>
      <point x="26" y="508" type="line"/>
      <point x="-23" y="464" type="line"/>
      <point x="-37" y="528" type="line"/>
      <point x="-20" y="523" type="line"/>
      <point x="45" y="748"/>
      <point x="172" y="888"/>
      <point x="383" y="927" type="curve"/>
    </contour>
    <contour>
      <point x="554.149" y="51.395" type="line"/>
      <point x="541.149" y="51.395" type="line"/>
      <point x="541.149" y="24.395" type="line"/>
      <point x="520.149" y="24.395" type="line"/>
      <point x="520.149" y="51.395" type="line"/>
      <point x="460.149" y="51.395" type="line"/>
      <point x="460.149" y="76.395" type="line"/>
      <point x="512.149" y="151.395" type="line"/>
      <point x="541.149" y="151.395" type="line"/>
      <point x="541.149" y="70.395" type="line"/>
      <point x="554.149" y="70.395" type="line"/>
    </contour>
    <contour>
      <point x="520.149" y="70.395" type="line"/>
      <point x="520.149" y="135.395" type="line"/>
      <point x="475.149" y="70.395" type="line"/>
    </contour>
  </outline>
</glyph>
<glyph name="uni1218" format="2">
  <advance width="1321"/>
  <unicode hex="1218"/>
  <outline>
    <contour>
      <point x="912" y="1322" type="curve" smooth="yes"/>
      <point x="912" y="1293"/>
      <point x="885" y="1273"/>
      <point x="845" y="1247" type="curve"/>
      <point x="909" y="1247" type="line"/>
      <point x="909" y="1227" type="line"/>
      <point x="824" y="1227" type="line"/>
      <point x="824" y="1245" type="line"/>
      <point x="875" y="1286"/>
      <point x="890" y="1305"/>
      <point x="890" y="1322" type="curve" smooth="yes"/>
      <point x="890" y="1330"/>
      <point x="886" y="1342"/>
      <point x="871" y="1342" type="curve" smooth="yes"/>
      <point x="855" y="1342"/>
      <point x="849" y="1329"/>
      <point x="848" y="1318" type="curve"/>
      <point x="826" y="1318" type="line"/>
      <point x="828" y="1344"/>
      <point x="843" y="1357"/>
      <point x="871" y="1357" type="curve" smooth="yes"/>
      <point x="897" y="1357"/>
      <point x="912" y="1343"/>
    </contour>
    <contour>
      <point x="628" y="1224" type="line"/>
      <point x="607" y="1224" type="line"/>
      <point x="607" y="1325" type="line"/>
      <point x="600" y="1319"/>
      <point x="586" y="1312"/>
      <point x="578" y="1310" type="curve"/>
      <point x="578" y="1329" type="line"/>
      <point x="587" y="1333"/>
      <point x="603" y="1346"/>
      <point x="607" y="1350" type="curve"/>
      <point x="628" y="1350" type="line"/>
    </contour>
    <contour>
      <point x="1310.98" y="858.617" type="curve" smooth="yes"/>
      <point x="1310.98" y="653.021"/>
      <point x="1237.76" y="364.486"/>
      <point x="978.025" y="348.768" type="curve" smooth="yes"/>
      <point x="843.127" y="340.604"/>
      <point x="678.632" y="369.798"/>
      <point x="664.011" y="534.004" type="curve"/>
      <point x="643" y="534" type="line"/>
      <point x="676" y="591" type="line"/>
      <point x="709" y="534" type="line"/>
      <point x="694.174" y="534.004" type="line"/>
      <point x="709.145" y="390.991"/>
      <point x="859.365" y="371.642"/>
      <point x="976.213" y="378.713" type="curve" smooth="yes"/>
      <point x="1207" y="392.679"/>
      <point x="1280.98" y="651.251"/>
      <point x="1280.98" y="858.617" type="curve" smooth="yes"/>
      <point x="1280.98" y="1078.53"/>
      <point x="1159.96" y="1164.77"/>
      <point x="966.122" y="1168.92" type="curve" smooth="yes"/>
      <point x="919.714" y="1169.92"/>
      <point x="812.814" y="1166.9"/>
      <point x="768.019" y="1165.77" type="curve"/>
      <point x="767.261" y="1195.76" type="line"/>
      <point x="864.115" y="1198.21"/>
      <point x="1023.23" y="1207.8"/>
      <point x="1116.82" y="1175.28" type="curve" smooth="yes"/>
      <point x="1236.37" y="1133.75"/>
      <point x="1310.98" y="1032.09"/>
    </contour>
    <contour>
      <point x="1220.98" y="858.617" type="curve" smooth="yes"/>
      <point x="1220.98" y="648.645"/>
      <point x="1146.17" y="449.111"/>
      <point x="972.587" y="438.603" type="curve" smooth="yes"/>
      <point x="897.434" y="434.054"/>
      <point x="755.321" y="429.933"/>
      <point x="752.989" y="554.51" type="curve" smooth="yes"/>
      <point x="743.99" y="1035.25" type="line"/>
      <point x="653.9" y="1028.27" type="line"/>
      <point x="530.983" y="474" type="line" smooth="yes"/>
      <point x="519.988" y="424.424"/>
      <point x="416.922" y="390.502"/>
      <point x="321.997" y="391.97" type="curve" smooth="yes"/>
      <point x="193.217" y="393.961"/>
      <point x="50" y="452.934"/>
      <point x="50" y="604.158" type="curve" smooth="yes"/>
      <point x="50" y="1081.84"/>
      <point x="506.839" y="1097.63"/>
      <point x="829.535" y="1105.79" type="curve" smooth="yes"/>
      <point x="994.955" y="1109.97"/>
      <point x="1220.98" y="1142.61"/>
    </contour>
    <contour>
      <point x="669.005" y="1159.07" type="line"/>
      <point x="336.802" y="1136.97"/>
      <point x="-10" y="1048.01"/>
      <point x="-10" y="604.158" type="curve" smooth="yes"/>
      <point x="-10" y="272.568"/>
      <point x="515.943" y="275.491"/>
      <point x="584.581" y="445.038" type="curve"/>
      <point x="568.513" y="449.318" type="line"/>
      <point x="615.182" y="495.987" type="line"/>
      <point x="632.153" y="432.347" type="line"/>
      <point x="613.745" y="437.256" type="line"/>
      <point x="537.668" y="233.314"/>
      <point x="-40" y="237.501"/>
      <point x="-40" y="604.158" type="curve" smooth="yes"/>
      <point x="-40" y="1075.89"/>
      <point x="335.011" y="1166.92"/>
      <point x="667.014" y="1189.01" type="curve"/>
    </contour>
    <contour>
      <point x="1150.98" y="858.617" type="curve" smooth="yes"/>
      <point x="1150.98" y="1082.14"/>
      <point x="967.651" y="1027.99"/>
      <point x="816.432" y="1040.63" type="curve"/>
      <point x="821.98" y="542.617" type="line" smooth="yes"/>
      <point x="822.497" y="496.147"/>
      <point x="950.13" y="507.372"/>
      <point x="968.354" y="508.475" type="curve" smooth="yes"/>
      <point x="1107.97" y="516.923"/>
      <point x="1150.98" y="688.629"/>
    </contour>
    <contour>
      <point x="579.683" y="1025.34" type="line"/>
      <point x="308.42" y="1008.93"/>
      <point x="119.937" y="889.403"/>
      <point x="119.937" y="602.636" type="curve" smooth="yes"/>
      <point x="119.937" y="517.572"/>
      <point x="204.784" y="458.788"/>
      <point x="327.638" y="462.589" type="curve" smooth="yes"/>
      <point x="376.604" y="464.103"/>
      <point x="458.401" y="470.737"/>
      <point x="467.997" y="514.617" type="curve" smooth="yes"/>
    </contour>
  </outline>
</glyph>
<glyph name="uni1219" format="2">
  <advance width="1754"/>
  <unicode hex="1219"/>
  <outline>
    <contour>
      <point x="1446" y="1004" type="curve" smooth="yes"/>
      <point x="1446" y="985"/>
      <point x="1432" y="966"/>
      <point x="1400" y="966" type="curve" smooth="yes"/>
      <point x="1367" y="966"/>
      <point x="1359" y="986"/>
      <point x="1359" y="1002" type="curve"/>
      <point x="1381" y="1002" type="line"/>
      <point x="1381" y="990"/>
      <point x="1389" y="982"/>
      <point x="1401" y="982" type="curve" smooth="yes"/>
      <point x="1413" y="982"/>
      <point x="1424" y="990"/>
      <point x="1424" y="1004" type="curve" smooth="yes"/>
      <point x="1424" y="1009"/>
      <point x="1420" y="1026"/>
      <point x="1402" y="1026" type="curve" smooth="yes"/>
      <point x="1391" y="1026" type="line"/>
      <point x="1391" y="1040" type="line"/>
      <point x="1419" y="1040"/>
      <point x="1421" y="1052"/>
      <point x="1421" y="1062" type="curve" smooth="yes"/>
      <point x="1421" y="1071"/>
      <point x="1417" y="1081"/>
      <point x="1404" y="1081" type="curve" smooth="yes"/>
      <point x="1390" y="1081"/>
      <point x="1384" y="1075"/>
      <point x="1383" y="1063" type="curve"/>
      <point x="1361" y="1063" type="line"/>
      <point x="1362" y="1085"/>
      <point x="1380" y="1096"/>
      <point x="1403" y="1096" type="curve" smooth="yes"/>
      <point x="1425" y="1096"/>
      <point x="1443" y="1084"/>
      <point x="1443" y="1062" type="curve" smooth="yes"/>
      <point x="1443" y="1043"/>
      <point x="1431" y="1038"/>
      <point x="1420" y="1034" type="curve"/>
      <point x="1431" y="1031"/>
      <point x="1446" y="1022"/>
    </contour>
    <contour>
      <point x="1652" y="929.754" type="line"/>
      <point x="1595" y="896.754" type="line"/>
      <point x="1595" y="914.992" type="line"/>
      <point x="1325" y="915" type="line"/>
      <point x="1325" y="945" type="line"/>
      <point x="1595" y="944.991" type="line"/>
      <point x="1595" y="962.754" type="line"/>
    </contour>
    <contour>
      <point x="912" y="1322" type="curve" smooth="yes"/>
      <point x="912" y="1293"/>
      <point x="885" y="1273"/>
      <point x="845" y="1247" type="curve"/>
      <point x="909" y="1247" type="line"/>
      <point x="909" y="1227" type="line"/>
      <point x="824" y="1227" type="line"/>
      <point x="824" y="1245" type="line"/>
      <point x="875" y="1286"/>
      <point x="890" y="1305"/>
      <point x="890" y="1322" type="curve" smooth="yes"/>
      <point x="890" y="1330"/>
      <point x="886" y="1342"/>
      <point x="871" y="1342" type="curve" smooth="yes"/>
      <point x="855" y="1342"/>
      <point x="849" y="1329"/>
      <point x="848" y="1318" type="curve"/>
      <point x="826" y="1318" type="line"/>
      <point x="828" y="1344"/>
      <point x="843" y="1357"/>
      <point x="871" y="1357" type="curve" smooth="yes"/>
      <point x="897" y="1357"/>
      <point x="912" y="1343"/>
    </contour>
    <contour>
      <point x="628" y="1224" type="line"/>
      <point x="607" y="1224" type="line"/>
      <point x="607" y="1325" type="line"/>
      <point x="600" y="1319"/>
      <point x="586" y="1312"/>
      <point x="578" y="1310" type="curve"/>
      <point x="578" y="1329" type="line"/>
      <point x="587" y="1333"/>
      <point x="603" y="1346"/>
      <point x="607" y="1350" type="curve"/>
      <point x="628" y="1350" type="line"/>
    </contour>
    <contour>
      <point x="1310.98" y="858.617" type="curve" smooth="yes"/>
      <point x="1310.98" y="653.009"/>
      <point x="1237.76" y="364.486"/>
      <point x="978.025" y="348.768" type="curve" smooth="yes"/>
      <point x="843.127" y="340.605"/>
      <point x="678.632" y="369.799"/>
      <point x="664.011" y="534.004" type="curve"/>
      <point x="643" y="534" type="line"/>
      <point x="676" y="591" type="line"/>
      <point x="709" y="534" type="line"/>
      <point x="694.174" y="534.004" type="line"/>
      <point x="709.145" y="390.991"/>
      <point x="859.365" y="371.642"/>
      <point x="976.213" y="378.713" type="curve" smooth="yes"/>
      <point x="1207" y="392.678"/>
      <point x="1280.98" y="651.252"/>
      <point x="1280.98" y="858.617" type="curve" smooth="yes"/>
      <point x="1280.98" y="1078.53"/>
      <point x="1159.92" y="1164.77"/>
      <point x="966.122" y="1168.92" type="curve" smooth="yes"/>
      <point x="919.723" y="1169.92"/>
      <point x="812.814" y="1166.9"/>
      <point x="768.019" y="1165.77" type="curve"/>
      <point x="767.261" y="1195.76" type="line"/>
      <point x="864.115" y="1198.21"/>
      <point x="1023.23" y="1207.8"/>
      <point x="1116.82" y="1175.28" type="curve" smooth="yes"/>
      <point x="1236.37" y="1133.75"/>
      <point x="1310.98" y="1032.1"/>
    </contour>
    <contour>
      <point x="1653.74" y="802.992" type="curve" smooth="yes"/>
      <point x="1653.74" y="783.992"/>
      <point x="1637.82" y="767.991"/>
      <point x="1618.74" y="767.991" type="curve" smooth="yes"/>
      <point x="1216.14" y="768" type="line"/>
      <point x="1197.07" y="594.482"/>
      <point x="1120.88" y="447.578"/>
      <point x="972.588" y="438.603" type="curve" smooth="yes"/>
      <point x="897.396" y="434.052"/>
      <point x="755.32" y="429.981"/>
      <point x="752.989" y="554.51" type="curve" smooth="yes"/>
      <point x="743.99" y="1035.25" type="line"/>
      <point x="653.9" y="1028.27" type="line"/>
      <point x="530.983" y="474" type="line" smooth="yes"/>
      <point x="519.989" y="424.424"/>
      <point x="416.921" y="390.504"/>
      <point x="321.997" y="391.97" type="curve" smooth="yes"/>
      <point x="193.219" y="393.96"/>
      <point x="50" y="452.942"/>
      <point x="50" y="604.158" type="curve"/>
      <point x="50" y="1081.83"/>
      <point x="506.87" y="1097.63"/>
      <point x="829.535" y="1105.79" type="curve"/>
      <point x="994.82" y="1113.18"/>
      <point x="1220.98" y="1142.6"/>
      <point x="1220.98" y="858.617" type="curve" smooth="yes"/>
      <point x="1220.98" y="851.729"/>
      <point x="1220.9" y="844.852"/>
      <point x="1220.74" y="837.993" type="curve"/>
      <point x="1618.74" y="837.992" type="line" smooth="yes"/>
      <point x="1637.75" y="837.992"/>
      <point x="1653.74" y="822.992"/>
    </contour>
    <contour>
      <point x="669.005" y="1159.07" type="line"/>
      <point x="336.802" y="1136.97"/>
      <point x="-10" y="1048"/>
      <point x="-10" y="604.158" type="curve" smooth="yes"/>
      <point x="-10" y="272.569"/>
      <point x="515.943" y="275.491"/>
      <point x="584.581" y="445.038" type="curve"/>
      <point x="568.513" y="449.318" type="line"/>
      <point x="615.182" y="495.987" type="line"/>
      <point x="632.153" y="432.347" type="line"/>
      <point x="613.745" y="437.256" type="line"/>
      <point x="537.668" y="233.314"/>
      <point x="-40" y="237.454"/>
      <point x="-40" y="604.158" type="curve" smooth="yes"/>
      <point x="-40" y="1075.89"/>
      <point x="335.011" y="1166.92"/>
      <point x="667.014" y="1189.01" type="curve"/>
    </contour>
    <contour>
      <point x="1150.98" y="858.617" type="curve" smooth="yes"/>
      <point x="1150.98" y="1082.14"/>
      <point x="967.651" y="1027.99"/>
      <point x="816.432" y="1040.63" type="curve"/>
      <point x="821.98" y="542.617" type="line" smooth="yes"/>
      <point x="822.497" y="496.147"/>
      <point x="950.131" y="507.373"/>
      <point x="968.354" y="508.475" type="curve" smooth="yes"/>
      <point x="1107.9" y="516.918"/>
      <point x="1150.98" y="688.63"/>
    </contour>
    <contour>
      <point x="579.683" y="1025.34" type="line"/>
      <point x="308.42" y="1008.93"/>
      <point x="119.937" y="889.395"/>
      <point x="119.937" y="602.636" type="curve"/>
      <point x="119.937" y="517.58"/>
      <point x="204.79" y="458.79"/>
      <point x="327.638" y="462.589" type="curve" smooth="yes"/>
      <point x="376.568" y="464.102"/>
      <point x="458.401" y="470.737"/>
      <point x="467.997" y="514.617" type="curve" smooth="yes"/>
    </contour>
  </outline>
</glyph>
<glyph name="uni121B" format="2">
  <advance width="1321"/>
  <unicode hex="121B"/>
  <outline>
    <contour>
      <point x="906.986" y="1570.99" type="curve" smooth="yes"/>
      <point x="906.986" y="1541.99"/>
      <point x="879.986" y="1521.99"/>
      <point x="839.986" y="1495.99" type="curve"/>
      <point x="903.986" y="1495.99" type="line"/>
      <point x="903.986" y="1475.99" type="line"/>
      <point x="818.986" y="1475.99" type="line"/>
      <point x="818.986" y="1493.99" type="line"/>
      <point x="869.986" y="1534.99"/>
      <point x="884.986" y="1553.99"/>
      <point x="884.986" y="1570.99" type="curve" smooth="yes"/>
      <point x="884.986" y="1578.99"/>
      <point x="880.986" y="1590.99"/>
      <point x="865.986" y="1590.99" type="curve" smooth="yes"/>
      <point x="849.986" y="1590.99"/>
      <point x="843.986" y="1577.99"/>
      <point x="842.986" y="1566.99" type="curve"/>
      <point x="820.986" y="1566.99" type="line"/>
      <point x="822.986" y="1592.99"/>
      <point x="837.986" y="1605.99"/>
      <point x="865.986" y="1605.99" type="curve" smooth="yes"/>
      <point x="891.986" y="1605.99"/>
      <point x="906.986" y="1591.99"/>
    </contour>
    <contour>
      <point x="622.986" y="1472.99" type="line"/>
      <point x="601.986" y="1472.99" type="line"/>
      <point x="601.986" y="1573.99" type="line"/>
      <point x="594.986" y="1567.99"/>
      <point x="580.986" y="1560.99"/>
      <point x="572.986" y="1558.99" type="curve"/>
      <point x="572.986" y="1577.99" type="line"/>
      <point x="581.986" y="1581.99"/>
      <point x="597.986" y="1594.99"/>
      <point x="601.986" y="1598.99" type="curve"/>
      <point x="622.986" y="1598.99" type="line"/>
    </contour>
    <contour>
      <point x="1305.97" y="1107.61" type="curve" smooth="yes"/>
      <point x="1305.97" y="901.993"/>
      <point x="1232.75" y="613.477"/>
      <point x="973.012" y="597.76" type="curve" smooth="yes"/>
      <point x="838.114" y="589.597"/>
      <point x="673.618" y="618.79"/>
      <point x="658.997" y="782.996" type="curve"/>
      <point x="637.986" y="782.992" type="line"/>
      <point x="670.986" y="839.992" type="line"/>
      <point x="703.986" y="782.992" type="line"/>
      <point x="689.16" y="782.996" type="line"/>
      <point x="704.131" y="639.983"/>
      <point x="854.351" y="620.634"/>
      <point x="971.199" y="627.705" type="curve" smooth="yes"/>
      <point x="1201.99" y="641.67"/>
      <point x="1275.97" y="900.244"/>
      <point x="1275.97" y="1107.61" type="curve" smooth="yes"/>
      <point x="1275.97" y="1327.52"/>
      <point x="1154.9" y="1413.76"/>
      <point x="961.108" y="1417.91" type="curve" smooth="yes"/>
      <point x="914.711" y="1418.91"/>
      <point x="800.553" y="1415.89"/>
      <point x="755.757" y="1414.76" type="curve"/>
      <point x="755" y="1444.75" type="line"/>
      <point x="851.854" y="1447.2"/>
      <point x="1018.21" y="1456.79"/>
      <point x="1111.81" y="1424.27" type="curve" smooth="yes"/>
      <point x="1231.35" y="1382.74"/>
      <point x="1305.97" y="1281.11"/>
    </contour>
    <contour>
      <point x="982" y="459" type="curve" smooth="yes"/>
      <point x="982" y="440"/>
      <point x="968" y="421"/>
      <point x="936" y="421" type="curve" smooth="yes"/>
      <point x="903" y="421"/>
      <point x="895" y="441"/>
      <point x="895" y="457" type="curve"/>
      <point x="917" y="457" type="line"/>
      <point x="917" y="445"/>
      <point x="925" y="437"/>
      <point x="937" y="437" type="curve" smooth="yes"/>
      <point x="949" y="437"/>
      <point x="960" y="445"/>
      <point x="960" y="459" type="curve" smooth="yes"/>
      <point x="960" y="464"/>
      <point x="956" y="481"/>
      <point x="938" y="481" type="curve" smooth="yes"/>
      <point x="927" y="481" type="line"/>
      <point x="927" y="495" type="line"/>
      <point x="955" y="495"/>
      <point x="957" y="507"/>
      <point x="957" y="517" type="curve" smooth="yes"/>
      <point x="957" y="526"/>
      <point x="953" y="536"/>
      <point x="940" y="536" type="curve" smooth="yes"/>
      <point x="926" y="536"/>
      <point x="920" y="530"/>
      <point x="919" y="518" type="curve"/>
      <point x="897" y="518" type="line"/>
      <point x="898" y="540"/>
      <point x="916" y="551"/>
      <point x="939" y="551" type="curve" smooth="yes"/>
      <point x="961" y="551"/>
      <point x="979" y="539"/>
      <point x="979" y="517" type="curve" smooth="yes"/>
      <point x="979" y="498"/>
      <point x="967" y="493"/>
      <point x="956" y="489" type="curve"/>
      <point x="967" y="486"/>
      <point x="982" y="477"/>
    </contour>
    <contour>
      <point x="1220.98" y="1112.51" type="curve"/>
      <point x="1220.98" y="1112.51"/>
      <point x="1213.68" y="1021.5"/>
      <point x="1209.96" y="977.256" type="curve" smooth="yes"/>
      <point x="1130.57" y="33.7672" type="line" smooth="yes"/>
      <point x="1128.98" y="14.857"/>
      <point x="1111.58" y="0.294716"/>
      <point x="1092.66" y="1.95072" type="curve" smooth="yes"/>
      <point x="1073.73" y="3.60672"/>
      <point x="1059.12" y="20.9017"/>
      <point x="1060.84" y="39.8682" type="curve" smooth="yes"/>
      <point x="1127.25" y="773.718" type="line"/>
      <point x="1088.7" y="726.173"/>
      <point x="1037.56" y="695.745"/>
      <point x="972.587" y="691.813" type="curve" smooth="yes"/>
      <point x="897.436" y="687.265"/>
      <point x="755.319" y="683.255"/>
      <point x="752.989" y="807.72" type="curve" smooth="yes"/>
      <point x="743.99" y="1288.46" type="line"/>
      <point x="653.9" y="1281.48" type="line"/>
      <point x="530.983" y="727.21" type="line" smooth="yes"/>
      <point x="519.988" y="677.633"/>
      <point x="416.921" y="643.713"/>
      <point x="321.997" y="645.18" type="curve" smooth="yes"/>
      <point x="193.219" y="647.17"/>
      <point x="50" y="706.152"/>
      <point x="50" y="857.368" type="curve"/>
      <point x="50" y="1335.04"/>
      <point x="506.86" y="1350.84"/>
      <point x="829.535" y="1359" type="curve"/>
      <point x="994.692" y="1366.39"/>
      <point x="1220.8" y="1395.74"/>
    </contour>
    <contour>
      <point x="663.992" y="1408.07" type="line"/>
      <point x="331.788" y="1385.96"/>
      <point x="-15.0137" y="1297"/>
      <point x="-15.0137" y="853.15" type="curve" smooth="yes"/>
      <point x="-15.0137" y="521.56"/>
      <point x="510.93" y="524.483"/>
      <point x="579.567" y="694.03" type="curve"/>
      <point x="563.499" y="698.31" type="line"/>
      <point x="610.168" y="744.979" type="line"/>
      <point x="627.139" y="681.339" type="line"/>
      <point x="608.731" y="686.248" type="line"/>
      <point x="532.655" y="482.306"/>
      <point x="-45.0138" y="486.455"/>
      <point x="-45.0138" y="853.15" type="curve" smooth="yes"/>
      <point x="-45.0138" y="1324.89"/>
      <point x="329.997" y="1415.91"/>
      <point x="662" y="1438" type="curve"/>
    </contour>
    <contour>
      <point x="1039" y="567" type="line"/>
      <point x="995.822" y="76.3405" type="line"/>
      <point x="1010.97" y="75.8135" type="line"/>
      <point x="976" y="20" type="line"/>
      <point x="945.008" y="78.1145" type="line"/>
      <point x="965.812" y="77.3832" type="line"/>
      <point x="1009.09" y="569.267" type="line"/>
    </contour>
    <contour>
      <point x="1150.98" y="1111.83" type="curve" smooth="yes"/>
      <point x="1150.98" y="1335.35"/>
      <point x="967.651" y="1281.2"/>
      <point x="816.432" y="1293.84" type="curve"/>
      <point x="821.98" y="795.827" type="line" smooth="yes"/>
      <point x="822.497" y="749.357"/>
      <point x="950.13" y="760.583"/>
      <point x="968.354" y="761.685" type="curve" smooth="yes"/>
      <point x="1107.91" y="770.128"/>
      <point x="1150.98" y="941.84"/>
    </contour>
    <contour>
      <point x="579.683" y="1278.55" type="line"/>
      <point x="308.42" y="1262.14"/>
      <point x="119.937" y="1142.61"/>
      <point x="119.937" y="855.846" type="curve"/>
      <point x="119.937" y="770.79"/>
      <point x="204.787" y="712"/>
      <point x="327.638" y="715.799" type="curve" smooth="yes"/>
      <point x="376.573" y="717.312"/>
      <point x="458.401" y="723.947"/>
      <point x="467.997" y="767.827" type="curve" smooth="yes"/>
    </contour>
  </outline>
</glyph>
<glyph name="uni121C" format="2">
  <advance width="1524"/>
  <unicode hex="121C"/>
  <outline>
    <contour>
      <point x="906.986" y="1570.99" type="curve" smooth="yes"/>
      <point x="906.986" y="1541.99"/>
      <point x="879.986" y="1521.99"/>
      <point x="839.986" y="1495.99" type="curve"/>
      <point x="903.986" y="1495.99" type="line"/>
      <point x="903.986" y="1475.99" type="line"/>
      <point x="818.986" y="1475.99" type="line"/>
      <point x="818.986" y="1493.99" type="line"/>
      <point x="869.986" y="1534.99"/>
      <point x="884.986" y="1553.99"/>
      <point x="884.986" y="1570.99" type="curve" smooth="yes"/>
      <point x="884.986" y="1578.99"/>
      <point x="880.986" y="1590.99"/>
      <point x="865.986" y="1590.99" type="curve" smooth="yes"/>
      <point x="849.986" y="1590.99"/>
      <point x="843.986" y="1577.99"/>
      <point x="842.986" y="1566.99" type="curve"/>
      <point x="820.986" y="1566.99" type="line"/>
      <point x="822.986" y="1592.99"/>
      <point x="837.986" y="1605.99"/>
      <point x="865.986" y="1605.99" type="curve" smooth="yes"/>
      <point x="891.986" y="1605.99"/>
      <point x="906.986" y="1591.99"/>
    </contour>
    <contour>
      <point x="622.986" y="1472.99" type="line"/>
      <point x="601.986" y="1472.99" type="line"/>
      <point x="601.986" y="1573.99" type="line"/>
      <point x="594.986" y="1567.99"/>
      <point x="580.986" y="1560.99"/>
      <point x="572.986" y="1558.99" type="curve"/>
      <point x="572.986" y="1577.99" type="line"/>
      <point x="581.986" y="1581.99"/>
      <point x="597.986" y="1594.99"/>
      <point x="601.986" y="1598.99" type="curve"/>
      <point x="622.986" y="1598.99" type="line"/>
    </contour>
    <contour>
      <point x="1305.97" y="1107.61" type="curve" smooth="yes"/>
      <point x="1305.97" y="901.97"/>
      <point x="1232.74" y="613.476"/>
      <point x="973.012" y="597.76" type="curve" smooth="yes"/>
      <point x="838.114" y="589.597"/>
      <point x="673.618" y="618.79"/>
      <point x="658.997" y="782.995" type="curve"/>
      <point x="637.986" y="782.992" type="line"/>
      <point x="670.986" y="839.992" type="line"/>
      <point x="703.986" y="782.992" type="line"/>
      <point x="689.16" y="782.995" type="line"/>
      <point x="704.131" y="639.982"/>
      <point x="854.365" y="620.635"/>
      <point x="971.199" y="627.704" type="curve" smooth="yes"/>
      <point x="1201.99" y="641.669"/>
      <point x="1275.97" y="900.245"/>
      <point x="1275.97" y="1107.61" type="curve" smooth="yes"/>
      <point x="1275.97" y="1327.52"/>
      <point x="1154.83" y="1413.77"/>
      <point x="961.108" y="1417.91" type="curve" smooth="yes"/>
      <point x="914.727" y="1418.91"/>
      <point x="802.553" y="1415.89"/>
      <point x="757.757" y="1414.76" type="curve"/>
      <point x="757" y="1444.75" type="line"/>
      <point x="853.854" y="1447.2"/>
      <point x="1018.22" y="1456.79"/>
      <point x="1111.81" y="1424.27" type="curve" smooth="yes"/>
      <point x="1231.35" y="1382.75"/>
      <point x="1305.97" y="1281.14"/>
    </contour>
    <contour>
      <point x="1040" y="559" type="line"/>
      <point x="1019.86" y="355.527" type="line"/>
      <point x="1035" y="355" type="line"/>
      <point x="1000.03" y="299.187" type="line"/>
      <point x="969.042" y="357.301" type="line"/>
      <point x="989.846" y="356.57" type="line"/>
      <point x="1010.09" y="561.267" type="line"/>
    </contour>
    <contour>
      <point x="982" y="459" type="curve" smooth="yes"/>
      <point x="982" y="440"/>
      <point x="968" y="421"/>
      <point x="936" y="421" type="curve" smooth="yes"/>
      <point x="903" y="421"/>
      <point x="895" y="441"/>
      <point x="895" y="457" type="curve"/>
      <point x="917" y="457" type="line"/>
      <point x="917" y="445"/>
      <point x="925" y="437"/>
      <point x="937" y="437" type="curve" smooth="yes"/>
      <point x="949" y="437"/>
      <point x="960" y="445"/>
      <point x="960" y="459" type="curve" smooth="yes"/>
      <point x="960" y="464"/>
      <point x="956" y="481"/>
      <point x="938" y="481" type="curve" smooth="yes"/>
      <point x="927" y="481" type="line"/>
      <point x="927" y="495" type="line"/>
      <point x="955" y="495"/>
      <point x="957" y="507"/>
      <point x="957" y="517" type="curve" smooth="yes"/>
      <point x="957" y="526"/>
      <point x="953" y="536"/>
      <point x="940" y="536" type="curve" smooth="yes"/>
      <point x="926" y="536"/>
      <point x="920" y="530"/>
      <point x="919" y="518" type="curve"/>
      <point x="897" y="518" type="line"/>
      <point x="898" y="540"/>
      <point x="916" y="551"/>
      <point x="939" y="551" type="curve" smooth="yes"/>
      <point x="961" y="551"/>
      <point x="979" y="539"/>
      <point x="979" y="517" type="curve" smooth="yes"/>
      <point x="979" y="498"/>
      <point x="967" y="493"/>
      <point x="956" y="489" type="curve"/>
      <point x="967" y="486"/>
      <point x="982" y="477"/>
    </contour>
    <contour>
      <point x="1508" y="172" type="curve" smooth="yes"/>
      <point x="1508" y="27.654"/>
      <point x="1391.08" y="-90"/>
      <point x="1247" y="-90" type="curve" smooth="yes"/>
      <point x="1020.98" y="-90"/>
      <point x="965.149" y="126"/>
      <point x="987.101" y="265.036" type="curve"/>
      <point x="1016.73" y="260.357" type="line"/>
      <point x="995.601" y="126.513"/>
      <point x="1050.52" y="-60"/>
      <point x="1247" y="-60" type="curve" smooth="yes"/>
      <point x="1374.38" y="-60"/>
      <point x="1478" y="44.096"/>
      <point x="1478" y="172" type="curve" smooth="yes"/>
      <point x="1478" y="274.416"/>
      <point x="1411.52" y="361.642"/>
      <point x="1319.57" y="392.282" type="curve"/>
      <point x="1313.9" y="376.665" type="line"/>
      <point x="1271.62" y="427.169" type="line"/>
      <point x="1336.47" y="438.684" type="line"/>
      <point x="1329.85" y="420.479" type="line"/>
      <point x="1433.33" y="385.626"/>
      <point x="1508" y="287.37"/>
    </contour>
    <contour>
      <point x="1423.34" y="157.896" type="curve" smooth="yes"/>
      <point x="1415.06" y="63.2573"/>
      <point x="1331.8" y="-6.74924"/>
      <point x="1238" y="1.45401" type="curve" smooth="yes"/>
      <point x="1143.44" y="9.72426"/>
      <point x="1063.33" y="93.7063"/>
      <point x="1071.61" y="187.859" type="curve"/>
      <point x="1071.68" y="188.663" type="line"/>
      <point x="1133" y="781" type="line"/>
      <point x="1095.35" y="738.335"/>
      <point x="1033.58" y="695.504"/>
      <point x="972.587" y="691.813" type="curve" smooth="yes"/>
      <point x="897.444" y="687.266"/>
      <point x="755.319" y="683.239"/>
      <point x="752.989" y="807.72" type="curve" smooth="yes"/>
      <point x="743.99" y="1288.46" type="line"/>
      <point x="653.9" y="1281.48" type="line"/>
      <point x="530.983" y="727.21" type="line" smooth="yes"/>
      <point x="519.988" y="677.633"/>
      <point x="416.921" y="643.713"/>
      <point x="321.997" y="645.18" type="curve" smooth="yes"/>
      <point x="193.219" y="647.169"/>
      <point x="50" y="706.152"/>
      <point x="50" y="857.368" type="curve"/>
      <point x="50" y="1335.04"/>
      <point x="506.87" y="1350.84"/>
      <point x="829.535" y="1359" type="curve"/>
      <point x="994.668" y="1366.38"/>
      <point x="1222.02" y="1395.76"/>
      <point x="1220.98" y="1112.62" type="curve" smooth="yes"/>
      <point x="1220.16" y="887.624"/>
      <point x="1154.96" y="340.24"/>
      <point x="1152.6" y="312.705" type="curve"/>
      <point x="1152.83" y="313.064" type="line"/>
      <point x="1184.9" y="335.355"/>
      <point x="1225.17" y="347.891"/>
      <point x="1267.98" y="344.147" type="curve" smooth="yes"/>
      <point x="1361.47" y="335.972"/>
      <point x="1431.62" y="252.535"/>
    </contour>
    <contour>
      <point x="663.992" y="1408.07" type="line"/>
      <point x="331.788" y="1385.96"/>
      <point x="-15.0137" y="1297"/>
      <point x="-15.0137" y="853.15" type="curve" smooth="yes"/>
      <point x="-15.0137" y="521.561"/>
      <point x="510.93" y="524.483"/>
      <point x="579.567" y="694.03" type="curve"/>
      <point x="563.499" y="698.31" type="line"/>
      <point x="610.168" y="744.979" type="line"/>
      <point x="627.139" y="681.339" type="line"/>
      <point x="608.731" y="686.248" type="line"/>
      <point x="532.655" y="482.306"/>
      <point x="-45.0138" y="486.447"/>
      <point x="-45.0138" y="853.15" type="curve" smooth="yes"/>
      <point x="-45.0138" y="1324.88"/>
      <point x="329.997" y="1415.91"/>
      <point x="662" y="1438" type="curve"/>
    </contour>
    <contour>
      <point x="952" y="168" type="line"/>
      <point x="939" y="168" type="line"/>
      <point x="939" y="141" type="line"/>
      <point x="918" y="141" type="line"/>
      <point x="918" y="168" type="line"/>
      <point x="858" y="168" type="line"/>
      <point x="858" y="193" type="line"/>
      <point x="910" y="268" type="line"/>
      <point x="939" y="268" type="line"/>
      <point x="939" y="187" type="line"/>
      <point x="952" y="187" type="line"/>
    </contour>
    <contour>
      <point x="1150.98" y="1111.83" type="curve" smooth="yes"/>
      <point x="1150.98" y="1335.35"/>
      <point x="967.651" y="1281.2"/>
      <point x="816.432" y="1293.84" type="curve"/>
      <point x="821.98" y="795.827" type="line" smooth="yes"/>
      <point x="822.497" y="749.357"/>
      <point x="950.131" y="760.583"/>
      <point x="968.354" y="761.685" type="curve" smooth="yes"/>
      <point x="1107.9" y="770.128"/>
      <point x="1150.98" y="941.84"/>
    </contour>
    <contour>
      <point x="1353.61" y="163.997" type="curve" smooth="yes"/>
      <point x="1358.49" y="219.785"/>
      <point x="1317.72" y="269.53"/>
      <point x="1261.88" y="274.413" type="curve" smooth="yes"/>
      <point x="1205.05" y="279.383"/>
      <point x="1156.26" y="237.478"/>
      <point x="1151.38" y="181.69" type="curve" smooth="yes"/>
      <point x="1146.5" y="125.903"/>
      <point x="1187.26" y="76.158"/>
      <point x="1244.1" y="71.188" type="curve" smooth="yes"/>
      <point x="1299.94" y="66.305"/>
      <point x="1348.73" y="108.21"/>
    </contour>
    <contour>
      <point x="579.683" y="1278.55" type="line"/>
      <point x="308.42" y="1262.14"/>
      <point x="119.937" y="1142.6"/>
      <point x="119.937" y="855.846" type="curve"/>
      <point x="119.937" y="770.79"/>
      <point x="204.79" y="712"/>
      <point x="327.638" y="715.799" type="curve" smooth="yes"/>
      <point x="376.568" y="717.312"/>
      <point x="458.401" y="723.947"/>
      <point x="467.997" y="767.827" type="curve" smooth="yes"/>
    </contour>
    <contour>
      <point x="918" y="187" type="line"/>
      <point x="918" y="252" type="line"/>
      <point x="873" y="187" type="line"/>
    </contour>
  </outline>
</glyph>
<glyph name="uni121D" format="2">
  <advance width="1423"/>
  <unicode hex="121D"/>
  <outline>
    <contour>
      <point x="1009.97" y="1570.99" type="curve" smooth="yes"/>
      <point x="1009.97" y="1541.99"/>
      <point x="982.974" y="1521.99"/>
      <point x="942.974" y="1495.99" type="curve"/>
      <point x="1006.97" y="1495.99" type="line"/>
      <point x="1006.97" y="1475.99" type="line"/>
      <point x="921.974" y="1475.99" type="line"/>
      <point x="921.974" y="1493.99" type="line"/>
      <point x="972.974" y="1534.99"/>
      <point x="987.974" y="1553.99"/>
      <point x="987.974" y="1570.99" type="curve" smooth="yes"/>
      <point x="987.974" y="1578.99"/>
      <point x="983.974" y="1590.99"/>
      <point x="968.974" y="1590.99" type="curve" smooth="yes"/>
      <point x="952.974" y="1590.99"/>
      <point x="946.974" y="1577.99"/>
      <point x="945.974" y="1566.99" type="curve"/>
      <point x="923.974" y="1566.99" type="line"/>
      <point x="925.974" y="1592.99"/>
      <point x="940.974" y="1605.99"/>
      <point x="968.974" y="1605.99" type="curve" smooth="yes"/>
      <point x="994.974" y="1605.99"/>
      <point x="1009.97" y="1591.99"/>
    </contour>
    <contour>
      <point x="725.974" y="1472.99" type="line"/>
      <point x="704.974" y="1472.99" type="line"/>
      <point x="704.974" y="1573.99" type="line"/>
      <point x="697.974" y="1567.99"/>
      <point x="683.974" y="1560.99"/>
      <point x="675.974" y="1558.99" type="curve"/>
      <point x="675.974" y="1577.99" type="line"/>
      <point x="684.974" y="1581.99"/>
      <point x="700.974" y="1594.99"/>
      <point x="704.974" y="1598.99" type="curve"/>
      <point x="725.974" y="1598.99" type="line"/>
    </contour>
    <contour>
      <point x="1408.95" y="1107.61" type="curve" smooth="yes"/>
      <point x="1408.95" y="901.963"/>
      <point x="1335.73" y="613.475"/>
      <point x="1076" y="597.76" type="curve" smooth="yes"/>
      <point x="941.103" y="589.598"/>
      <point x="776.607" y="618.79"/>
      <point x="761.985" y="782.995" type="curve"/>
      <point x="740.975" y="782.992" type="line"/>
      <point x="773.975" y="839.992" type="line"/>
      <point x="806.975" y="782.992" type="line"/>
      <point x="792.148" y="782.995" type="line"/>
      <point x="807.119" y="639.982"/>
      <point x="957.354" y="620.636"/>
      <point x="1074.19" y="627.704" type="curve" smooth="yes"/>
      <point x="1304.98" y="641.668"/>
      <point x="1378.95" y="900.246"/>
      <point x="1378.95" y="1107.61" type="curve" smooth="yes"/>
      <point x="1378.95" y="1327.52"/>
      <point x="1257.72" y="1413.77"/>
      <point x="1064.1" y="1417.91" type="curve" smooth="yes"/>
      <point x="1017.73" y="1418.91"/>
      <point x="887.553" y="1415.89"/>
      <point x="842.758" y="1414.76" type="curve"/>
      <point x="842" y="1444.75" type="line"/>
      <point x="938.854" y="1447.2"/>
      <point x="1121.21" y="1456.79"/>
      <point x="1214.8" y="1424.27" type="curve" smooth="yes"/>
      <point x="1334.35" y="1382.74"/>
      <point x="1408.95" y="1281.18"/>
    </contour>
    <contour>
      <point x="766.98" y="1408.07" type="line"/>
      <point x="434.776" y="1385.96"/>
      <point x="87.9745" y="1296.99"/>
      <point x="87.9745" y="853.15" type="curve" smooth="yes"/>
      <point x="87.9745" y="521.562"/>
      <point x="613.918" y="524.483"/>
      <point x="682.555" y="694.03" type="curve"/>
      <point x="666.487" y="698.31" type="line"/>
      <point x="713.156" y="744.979" type="line"/>
      <point x="730.127" y="681.339" type="line"/>
      <point x="711.719" y="686.248" type="line"/>
      <point x="635.643" y="482.306"/>
      <point x="57.9744" y="486.447"/>
      <point x="57.9744" y="853.15" type="curve" smooth="yes"/>
      <point x="57.9744" y="1324.88"/>
      <point x="432.985" y="1415.91"/>
      <point x="764.988" y="1438" type="curve"/>
    </contour>
    <contour>
      <point x="1323.47" y="1111.83" type="curve" smooth="yes"/>
      <point x="1323.47" y="901.858"/>
      <point x="1248.65" y="702.316"/>
      <point x="1075.08" y="691.813" type="curve" smooth="yes"/>
      <point x="999.925" y="687.266"/>
      <point x="857.814" y="683.127"/>
      <point x="855.481" y="807.72" type="curve" smooth="yes"/>
      <point x="846.48" y="1288.46" type="line"/>
      <point x="756.392" y="1281.48" type="line"/>
      <point x="633.475" y="727.21" type="line" smooth="yes"/>
      <point x="631.454" y="718.096"/>
      <point x="621.573" y="702.531"/>
      <point x="608.053" y="692.109" type="curve"/>
      <point x="112.839" y="8.34803" type="line" smooth="yes"/>
      <point x="101.45" y="-7.37747"/>
      <point x="80.0046" y="-10.4078"/>
      <point x="64.8388" y="0.347982" type="curve" smooth="yes"/>
      <point x="48.9936" y="11.5855"/>
      <point x="45.0526" y="33.1917"/>
      <point x="56.8388" y="49.348" type="curve" smooth="yes"/>
      <point x="495.282" y="650.346" type="line"/>
      <point x="472.207" y="646.636"/>
      <point x="448.071" y="644.816"/>
      <point x="424.489" y="645.18" type="curve" smooth="yes"/>
      <point x="295.884" y="647.164"/>
      <point x="152.492" y="706.152"/>
      <point x="152.492" y="857.368" type="curve"/>
      <point x="152.492" y="1335.04"/>
      <point x="609.362" y="1350.84"/>
      <point x="932.028" y="1359" type="curve"/>
      <point x="1097.31" y="1366.39"/>
      <point x="1323.47" y="1395.81"/>
    </contour>
    <contour>
      <point x="693" y="402" type="curve" smooth="yes"/>
      <point x="693" y="383"/>
      <point x="679" y="364"/>
      <point x="647" y="364" type="curve" smooth="yes"/>
      <point x="614" y="364"/>
      <point x="606" y="384"/>
      <point x="606" y="400" type="curve"/>
      <point x="628" y="400" type="line"/>
      <point x="628" y="388"/>
      <point x="636" y="380"/>
      <point x="648" y="380" type="curve" smooth="yes"/>
      <point x="660" y="380"/>
      <point x="671" y="388"/>
      <point x="671" y="402" type="curve" smooth="yes"/>
      <point x="671" y="407"/>
      <point x="667" y="424"/>
      <point x="649" y="424" type="curve" smooth="yes"/>
      <point x="638" y="424" type="line"/>
      <point x="638" y="438" type="line"/>
      <point x="666" y="438"/>
      <point x="668" y="450"/>
      <point x="668" y="460" type="curve" smooth="yes"/>
      <point x="668" y="469"/>
      <point x="664" y="479"/>
      <point x="651" y="479" type="curve" smooth="yes"/>
      <point x="637" y="479"/>
      <point x="631" y="473"/>
      <point x="630" y="461" type="curve"/>
      <point x="608" y="461" type="line"/>
      <point x="609" y="483"/>
      <point x="627" y="494"/>
      <point x="650" y="494" type="curve" smooth="yes"/>
      <point x="672" y="494"/>
      <point x="690" y="482"/>
      <point x="690" y="460" type="curve" smooth="yes"/>
      <point x="690" y="441"/>
      <point x="678" y="436"/>
      <point x="667" y="432" type="curve"/>
      <point x="678" y="429"/>
      <point x="693" y="420"/>
    </contour>
    <contour>
      <point x="632" y="551" type="line"/>
      <point x="269.24" y="34.172" type="line"/>
      <point x="282" y="26" type="line"/>
      <point x="223.471" y="-4.196" type="line"/>
      <point x="226.427" y="61.597" type="line"/>
      <point x="243.952" y="50.3647" type="line"/>
      <point x="607.42" y="568.196" type="line"/>
    </contour>
    <contour>
      <point x="1253.47" y="1111.83" type="curve" smooth="yes"/>
      <point x="1253.47" y="1335.35"/>
      <point x="1070.14" y="1281.2"/>
      <point x="918.924" y="1293.84" type="curve"/>
      <point x="924.472" y="795.827" type="line" smooth="yes"/>
      <point x="924.989" y="749.357"/>
      <point x="1052.62" y="760.583"/>
      <point x="1070.85" y="761.685" type="curve" smooth="yes"/>
      <point x="1210.38" y="770.125"/>
      <point x="1253.47" y="941.841"/>
    </contour>
    <contour>
      <point x="682.175" y="1278.55" type="line"/>
      <point x="410.912" y="1262.14"/>
      <point x="222.429" y="1142.6"/>
      <point x="222.429" y="855.846" type="curve"/>
      <point x="222.429" y="770.79"/>
      <point x="307.31" y="712.003"/>
      <point x="430.13" y="715.799" type="curve" smooth="yes"/>
      <point x="479.014" y="717.309"/>
      <point x="560.893" y="723.947"/>
      <point x="570.489" y="767.827" type="curve" smooth="yes"/>
    </contour>
  </outline>
</glyph>
